<?xml version="1.0" encoding="utf-8"?>
<!-- Generator: Adobe Illustrator 22.0.1, SVG Export Plug-In . SVG Version: 6.00 Build 0)  -->
<svg version="1.1" id="Layer_1" xmlns="http://www.w3.org/2000/svg" xmlns:xlink="http://www.w3.org/1999/xlink" x="0px" y="0px"
	 viewBox="0 0 61.7 34.8" style="enable-background:new 0 0 61.7 34.8;" xml:space="preserve">
<style type="text/css">
	.st0{fill:#EC268F;}
	.st1{fill:url(#SVGID_1_);}
	.st2{fill:#FFC10E;}
</style>
<g>
	<g>
		<g>
			<g>
				<path class="st0" d="M44.8,5.7c-0.2-0.2-0.4-0.3-0.8-0.4c-0.6-0.1-1.7,0-1.7-0.3c0-0.2,0.3-0.3,0.4-0.3c0.1,0,0.3,0.1,0.4,0.1
					c0.7,0,1.5-0.5,1.5-1.4c0-0.3-0.1-0.5-0.2-0.7c0.2-0.1,0.4-0.3,0.4-0.8c-0.2,0.2-0.5,0.3-0.7,0.3h-0.3c0,0-0.3-0.2-0.6-0.2
					c-0.7,0-1.5,0.5-1.5,1.4c0,0.6,0.4,1,0.6,1.1c-0.3,0.2-0.5,0.4-0.5,0.7c0,0.2,0.1,0.3,0.2,0.4C42.4,6,43.5,5.8,44.1,6
					c0.4,0.1,0.4,0.3,0.4,0.3c0,0.1,0,0.2-0.1,0.2C44.3,6.7,43.9,7,43.2,7c-0.7,0-1.1-0.3-1.1-0.5c0-0.2,0.2-0.4,0.6-0.3
					c-0.1-0.1-0.3-0.3-0.6-0.3c-0.5,0-0.8,0.4-0.8,0.8c0,0.3,0.3,0.9,1.6,0.9c1.2,0,2-0.6,2-1.3C45,6.1,44.9,5.9,44.8,5.7z
					 M43.1,2.4c0.4,0,0.8,0.4,0.8,1c0,0.6-0.4,1-0.8,1c-0.4,0-0.8-0.4-0.8-1C42.4,2.8,42.7,2.4,43.1,2.4z"/>
				<path class="st0" d="M20,5.4c-0.4,0.3-0.4,0-0.4-0.1c0-0.1,0-0.1,0-0.1v-2c0-0.8-0.5-1.2-1.3-1.2c-1,0-1.4,0.6-1.5,0.6l0,0.1
					l0.2,0.2l0,0c0.3-0.2,0.7-0.4,1-0.4c0.3,0,0.9,0.2,0.9,0.7v0.3c-0.7,0.1-2.2,0.4-2.2,1.6c0,0.8,0.7,1,1.1,1c0.3,0,0.7-0.2,1-0.5
					l0,0V5l-0.1,0.1c-0.1,0.1-0.3,0.2-0.6,0.2c-0.3,0-0.6-0.2-0.6-0.6c0-0.4,0.6-0.8,1.5-0.9v1.4c0,0.6,0.3,0.7,0.4,0.7
					c0.2,0,0.4-0.1,0.6-0.3L20,5.4L20,5.4z"/>
				<path class="st0" d="M30.5,5.4c-0.4,0.3-0.4,0-0.4-0.1c0-0.1,0-0.1,0-0.1v-2c0-0.8-0.5-1.2-1.3-1.2c-1,0-1.4,0.6-1.5,0.6l0,0.1
					l0.2,0.2l0,0c0.3-0.2,0.7-0.4,1-0.4c0.3,0,0.9,0.2,0.9,0.7v0.3c-0.7,0.1-2.2,0.4-2.2,1.6c0,0.8,0.7,1,1.1,1c0.3,0,0.7-0.2,1-0.5
					l0,0V5l-0.1,0.1c-0.1,0.1-0.3,0.2-0.6,0.2c-0.3,0-0.6-0.2-0.6-0.6c0-0.4,0.6-0.8,1.5-0.9v1.4c0,0.6,0.3,0.7,0.4,0.7
					c0.2,0,0.4-0.1,0.6-0.3L30.5,5.4L30.5,5.4z"/>
				<path class="st0" d="M35.8,0c-0.1,0.3-0.5,0.5-0.5,0.8c0,0.3,0.5,0.5,0.5,0.6c0-0.1,0.5-0.3,0.5-0.6C36.3,0.5,35.9,0.3,35.8,0z"
					/>
			</g>
			<path class="st0" d="M37.3,2v0.2h0.2c0.1,0,0.2,0.1,0.2,0.2l0,3.6h0.7V3.5c0-0.3,0.3-1,0.9-1c0.5,0,0.7,0.3,0.7,0.9v2.5H41V5.7
				h-0.2c-0.1,0-0.2-0.1-0.2-0.2V3.3c0-0.7-0.3-1.4-1.1-1.4c-0.4,0-0.8,0.2-1.2,0.6V2H37.3z"/>
			<path class="st0" d="M35.5,5.9h1.1V5.7h-0.2c-0.1,0-0.2-0.1-0.2-0.2V2H36l-0.8,0.3v0.2l0.2,0c0.1,0,0.2,0.1,0.2,0.2V5.9z"/>
			<g>
				<path class="st0" d="M34.3,5L34.3,5c-0.2,0.3-0.3,0.4-0.7,0.4c0,0-0.8,0-1.6,0l2.1-3.1V2h-2.8l-0.2,0.8l0.2,0l0,0
					c0.1-0.2,0.3-0.4,0.6-0.4c0,0,0.6,0,1.2,0l-2.1,3.1v0.4h3.1l0.2-0.8L34.3,5z"/>
			</g>
			<path class="st0" d="M26.4,5.7c-0.1,0-0.2-0.1-0.2-0.2V3.3c0-0.7-0.3-1.4-1.1-1.4c-0.4,0-0.8,0.2-1.2,0.6c0,0-0.1,0.1-0.1,0.1
				c-0.2-0.4-0.5-0.7-1-0.7c-0.4,0-0.8,0.2-1.1,0.6V2h-1v0.2h0.2c0.1,0,0.2,0.1,0.2,0.2l0,3.6h0.7V3.5c0-0.3,0.2-1,0.8-1
				c0.5,0,0.7,0.3,0.7,0.9v2.5h0.7V3.5v0c0-0.3,0.3-1,0.9-1c0.5,0,0.7,0.3,0.7,0.9v2.5h1.1V5.7H26.4z"/>
		</g>
		<g>
			<path class="st0" d="M15,17.1c-0.4,0-0.5-0.3-0.5-0.7V8.6H13v3.7H9.4V8.6H7.9v7.8c0,0.4-0.1,0.7-0.5,0.7H7.1v0.3h2.3v-3.9H13v3.9
				h2.3v-0.3H15z"/>
			<path class="st0" d="M25.7,8.6v8.8H28v-0.3h-0.3c-0.4,0-0.5-0.3-0.5-0.7V8.6H25.7z"/>
			<path class="st0" d="M35.1,15.4c-0.1,0.2-0.2,0.3-0.3,0.5c-0.1,0.1-0.2,0.2-0.3,0.3c-0.1,0.1-0.3,0.1-0.4,0.1c-0.2,0-0.4,0-0.6,0
				l-2.1,0c-0.4,0-0.5-0.1-0.5-0.4V8.6h-1.5v7.8c0,0.4-0.1,0.7-0.5,0.7h-0.3v0.3h6.2l0.5-2L35.1,15.4z"/>
			<path class="st0" d="M51.4,8.6V15l-4.3-6.3h-1.4v7.8c0,0.4-0.1,0.7-0.5,0.7h-0.3v0.3h2.3v-6.2l4.2,6.2h1.4V8.6H51.4z"/>
			<linearGradient id="SVGID_1_" gradientUnits="userSpaceOnUse" x1="16.8322" y1="26.3594" x2="45.2681" y2="26.3594">
				<stop  offset="3.547510e-03" style="stop-color:#C5168C"/>
				<stop  offset="0.25" style="stop-color:#D70A8B"/>
				<stop  offset="0.5" style="stop-color:#ED3C95"/>
				<stop  offset="0.75" style="stop-color:#F9A51A"/>
				<stop  offset="1" style="stop-color:#FFC10E"/>
			</linearGradient>
			<path class="st1" d="M40,18.6c1.7-2,5.5,0.7,7.4-0.6c-0.4,0.7-1.6,1.3-2.1,1.6c-2.1,1.6-1.8,5.5-3.6,8.8c-2.2,3.9-7.2,7.4-13.4,6
				c-5.6-1.2-7.8-5.4-8.8-8.1c-0.9-2.3-1.2-2.9-2.5-4.1c2.9,1,4.2,4.8,9.4,5.9c4.3,0.9,9.3-0.2,12.2-3.7c2.4-2.9,2.6-4.5,4.2-5.5
				C42.1,18.9,41.3,18.2,40,18.6z"/>
			<g>
				<g>
					<path class="st0" d="M20.2,10.5l0.9,2.2c0.7,0,1.3,0.2,1.8,0.5L21,8.6h-1.1l-1.9,4.5c0.4-0.2,0.8-0.3,1.2-0.4L20.2,10.5z"/>
				</g>
			</g>
			<g>
				<g>
					<path class="st0" d="M39.6,10.5l0.9,2.2c0.7,0,1.3,0.2,1.8,0.5l-1.9-4.5h-1.1l-1.9,4.5c0.4-0.2,0.8-0.3,1.2-0.4L39.6,10.5z"/>
				</g>
			</g>
			<path class="st0" d="M7,8.6H0.1L0,10.5h0.2c0.1-0.3,0.2-0.6,0.3-0.7c0.1-0.1,0.4-0.2,0.7-0.2h1.6v7.8h2.3v-0.3H4.8
				c-0.4,0-0.5-0.3-0.5-0.7V9.6h1.5c0.3,0,0.5,0.1,0.7,0.2c0.1,0.1,0.3,0.4,0.3,0.7H7L7,8.6z"/>
			<path class="st0" d="M56.7,8.7c1.4,0,4.9,0.3,4.9,4.4c0,4.2-3.8,4.4-5.3,4.4c-1.3,0-2.1,0-2.9,0v-0.3h0.3c0.4,0,0.5-0.3,0.5-0.7
				V8.7H56.7z M55.8,9.6v6.9h0.3c1.2,0,2.3-0.3,3.1-1c0.8-0.7,0.9-1.9,0.9-2.5c0-0.5-0.1-1.7-0.9-2.5c-0.8-0.8-2.2-1-2.8-1H55.8z"/>
		</g>
	</g>
	<path class="st2" d="M20.4,14c0.5,0,1.2,0.1,1.6,1.1l0.3,1.1c0.2,0.6,0.6,0.9,1.1,1c0.4,0.1,0.8,0.1,1.1,0.1l0.4,0v-0.3
		c-0.5,0-0.8-0.2-1.1-1l-0.5-1.5c-0.4-1.1-1.3-1.3-2.9-1.3c-1.7,0-2.6,0.3-2.9,1.3L17,16.2c-0.3,0.8-0.6,1-1.1,1v0.3l0.4,0
		c0.3,0,0.8,0,1.1-0.1c0.4-0.1,0.8-0.4,1.1-1l0.3-1.1C19.2,14.1,19.9,14,20.4,14z"/>
	<path class="st2" d="M39.9,14c0.5,0,1.2,0.1,1.6,1.1l0.3,1.1c0.2,0.6,0.6,0.9,1.1,1c0.4,0.1,0.8,0.1,1.1,0.1l0.4,0v-0.3
		c-0.5,0-0.8-0.2-1.1-1l-0.5-1.5c-0.4-1.1-1.3-1.3-2.9-1.3c-1.7,0-2.6,0.3-2.9,1.3l-0.5,1.5c-0.3,0.8-0.6,1-1.1,1v0.3l0.4,0
		c0.3,0,0.8,0,1.1-0.1c0.4-0.1,0.8-0.4,1.1-1l0.3-1.1C38.7,14.1,39.3,14,39.9,14z"/>
</g>
</svg>
