<?xml version="1.0" encoding="utf-8"?>
<!-- Generator: Adobe Illustrator 22.0.1, SVG Export Plug-In . SVG Version: 6.00 Build 0)  -->
<svg version="1.1" id="Layer_1" xmlns="http://www.w3.org/2000/svg" xmlns:xlink="http://www.w3.org/1999/xlink" x="0px" y="0px"
	 viewBox="0 0 63 33.1" style="enable-background:new 0 0 63 33.1;" xml:space="preserve">
<style type="text/css">
	.st0{fill:#A73439;}
	.st1{fill:#85754E;}
</style>
<g>
	<g>
		<path class="st0" d="M17.2,10.6c-0.1,0.4-0.3,1.6-0.4,2h-6v-0.3C11.9,12.1,12,12,12,11V6.1C12,5,11.9,4.9,11,4.8V4.5h5.5
			c0,0.3,0.1,1.1,0.1,1.8l-0.4,0c-0.1-0.5-0.2-0.8-0.4-1.1c-0.2-0.3-0.5-0.4-1.4-0.4h-0.9c-0.4,0-0.4,0-0.4,0.4v2.8h1.2
			c1.1,0,1.2-0.1,1.3-0.9H16v2.4h-0.4c-0.2-0.9-0.2-1-1.3-1h-1.2V11c0,0.6,0.1,0.9,0.3,1c0.2,0.2,0.7,0.2,1.3,0.2
			c0.9,0,1.3-0.1,1.6-0.4c0.2-0.2,0.4-0.7,0.6-1.2L17.2,10.6z"/>
		<path class="st0" d="M27.9,4.8c-0.7,0-1,0.2-1,0.7c0,0.4-0.1,0.9-0.1,2.1v5h-0.4l-5.3-6.5h0v3.1c0,1.1,0,1.7,0.1,2.1
			c0.1,0.6,0.3,0.8,1.2,0.8v0.3h-2.9v-0.3c0.7,0,1-0.2,1.1-0.8c0-0.4,0.1-1,0.1-2.1V6.6c0-0.9,0-1-0.2-1.2c-0.3-0.3-0.5-0.4-1.1-0.5
			V4.5h1.8l5.2,6.2h0v-3c0-1.1,0-1.7-0.1-2.1c-0.1-0.6-0.3-0.7-1.2-0.8V4.5h2.9V4.8z"/>
		<path class="st0" d="M36.3,6.4c-0.1-0.6-0.2-0.9-0.4-1.1c-0.2-0.3-0.4-0.4-1.3-0.4h-0.9V11c0,1,0.1,1.1,1.3,1.2v0.3h-3.5v-0.3
			c1.1-0.1,1.2-0.2,1.2-1.2V4.9h-0.8c-1,0-1.3,0.1-1.4,0.4c-0.1,0.2-0.2,0.6-0.4,1.1h-0.4c0.1-0.8,0.1-1.6,0.1-2.2h0.2
			c0.2,0.3,0.3,0.3,0.7,0.3h4.9c0.3,0,0.4-0.1,0.6-0.3h0.3c0,0.6,0.1,1.5,0.1,2.2L36.3,6.4z"/>
		<path class="st0" d="M41.1,5.9L41.1,5.9c-0.4,1.1-0.8,2.1-1.2,3.2h2.3L41.1,5.9z M42.3,12.5v-0.3c0.8-0.1,0.9-0.2,0.7-0.7
			c-0.2-0.5-0.4-1.1-0.7-1.9h-2.6c-0.2,0.6-0.4,1.1-0.5,1.6c-0.3,0.8-0.2,0.9,0.8,1v0.3h-2.7v-0.3c0.8-0.1,1-0.2,1.4-1.3l2.6-6.5
			l0.4-0.1c0.8,2.1,1.6,4.5,2.4,6.6c0.4,1.1,0.6,1.2,1.4,1.3v0.3H42.3z"/>
		<path class="st0" d="M49.4,8.6c0.6,0,1-0.1,1.3-0.4c0.5-0.4,0.7-0.9,0.7-1.5c0-1.3-0.9-1.8-1.8-1.8c-0.4,0-0.6,0-0.7,0.1
			c-0.1,0.1-0.1,0.2-0.1,0.5v3.1H49.4z M54,12.6c-0.1,0-0.3,0-0.4,0c-0.9,0-1.4-0.3-2-1.1c-0.4-0.6-0.9-1.4-1.2-2
			c-0.2-0.3-0.4-0.5-1-0.5h-0.4v2c0,1,0.1,1.1,1.1,1.2v0.3h-3.2v-0.3c1-0.1,1.1-0.1,1.1-1.2V6c0-1.1-0.1-1.1-1.1-1.2V4.5h3.1
			c0.9,0,1.5,0.1,2,0.4c0.5,0.3,0.8,0.9,0.8,1.6c0,1.1-0.7,1.7-1.6,2.1c0.2,0.4,0.7,1.2,1.1,1.8c0.4,0.6,0.7,1,1,1.3
			c0.3,0.4,0.6,0.5,0.9,0.6L54,12.6z"/>
		<path class="st0" d="M58.7,5.9L58.7,5.9c-0.4,1.1-0.8,2.1-1.2,3.2h2.3L58.7,5.9z M59.9,12.5v-0.3c0.8-0.1,0.9-0.2,0.7-0.7
			c-0.2-0.5-0.4-1.1-0.7-1.9h-2.6c-0.2,0.6-0.4,1.1-0.5,1.6c-0.3,0.8-0.2,0.9,0.8,1v0.3h-2.7v-0.3c0.8-0.1,1-0.2,1.4-1.3l2.6-6.5
			l0.4-0.1c0.8,2.1,1.6,4.5,2.4,6.6c0.4,1.1,0.6,1.2,1.4,1.3v0.3H59.9z"/>
		<path class="st0" d="M8.2,10.3C8.2,10.3,8.2,10.3,8.2,10.3C8.2,10.6,7.9,11,7.9,11c-0.3,0.4-0.9,1.1-2.5,1c-2.6-0.2-3.6-2.3-3.5-4
			C2,5.4,3.6,4.3,5.3,4.4c2.2,0,2.6,1.3,2.6,1.6c0,0.4-0.3,0.6-0.5,0.6C7.1,6.7,6.6,6.7,6.4,7.1C6.1,7.6,6.4,8,6.7,8.3c0,0,0,0,0,0
			c0,0,0-0.1,0.1-0.2c0.1-0.3,0.3-0.7,0.9-1c1-0.5,1-1.1,1-1.5c0-0.5-0.4-0.9-0.7-1.2C7.4,4,5.7,3.2,5.4,2.3C5,3,4.2,3.6,3.5,4
			C2.9,4.4,1.4,5.4,1.1,7.4C1.1,8,1.1,8.8,1.3,9.5c0,0.1,0,0.1,0,0C1.1,9.2,0.8,8.6,0.8,7.7c0-1.1,0.5-2.3,1.5-3.2
			C3.6,3.3,6.7,2.2,4.6,0c0,0,0,0,0,0c0,1.2-1.7,2.7-2.6,3.6C1.2,4.5,0.1,5.6,0,7.9c-0.1,2.4,1.8,4.7,5,4.7c1.8,0,3.1-0.9,3.1-0.9
			c0.2-0.1,0.2-0.1,0.2-0.3c0.1-0.4,0.2-1.1,0.2-1.1L8.2,10.3z"/>
		<path class="st0" d="M22,15.3c-0.2-0.9-0.8-1-1.4-1c-1.1,0-1.8,0.7-1.8,2c0,1.1,0.5,2.2,1.9,2.2c0.2,0,0.5,0,0.7-0.1
			c0.2-0.1,0.2-0.1,0.2-0.4v-0.6c0-0.5,0-0.5-0.8-0.6v-0.2h1.8v0.2c-0.4,0.1-0.4,0.1-0.4,0.6v0.5c0,0.2,0,0.5,0,0.6
			c-0.4,0.1-1,0.3-1.5,0.3c-1.5,0-2.5-1-2.5-2.3c0-1.6,1.3-2.4,2.6-2.4c0.6,0,1.1,0.1,1.3,0.2c0,0.2,0.1,0.6,0.1,1.1L22,15.3z"/>
		<path class="st0" d="M25.1,16.5h0.4c0.3,0,0.5,0,0.7-0.2c0.3-0.2,0.4-0.6,0.4-0.9c0-0.7-0.5-1-1-1c-0.2,0-0.3,0-0.4,0
			c0,0-0.1,0-0.1,0.2V16.5z M25.1,17.6c0,0.8,0.1,0.8,0.6,0.8v0.2h-1.8v-0.2c0.6,0,0.6-0.1,0.6-0.8v-2.5c0-0.8-0.1-0.8-0.6-0.8v-0.2
			h1.8c0.4,0,0.8,0.1,1.1,0.2c0.3,0.2,0.5,0.5,0.5,0.9c0,0.6-0.4,1-0.9,1.2c0.1,0.2,0.4,0.7,0.6,1c0.3,0.4,0.4,0.6,0.6,0.8
			c0.1,0.2,0.3,0.3,0.5,0.3l0,0.1h-0.1c-0.8,0-1-0.3-1.3-0.6c-0.2-0.3-0.5-0.8-0.7-1.2c-0.1-0.2-0.2-0.3-0.4-0.3h-0.4V17.6z"/>
		<path class="st0" d="M30.2,16.7h1.2L30.8,15h0L30.2,16.7z M31.5,18.5l0.2,0c0.3,0,0.3-0.1,0.2-0.3c0-0.2-0.3-0.7-0.4-1.2h-1.4
			c-0.1,0.2-0.3,0.7-0.3,1c-0.1,0.4-0.1,0.5,0.2,0.5l0.2,0v0.2h-1.5v-0.2c0.5,0,0.5-0.1,0.8-0.7l1.4-3.7l0.2-0.1l0.5,1.3
			c0.3,0.9,0.6,1.8,0.9,2.5c0.2,0.6,0.3,0.6,0.7,0.7v0.2h-1.7V18.5z"/>
		<path class="st0" d="M38.4,18.7h-0.2l-3-3.7h0v1.8c0,0.7,0,1.1,0.1,1.3c0,0.2,0.2,0.3,0.7,0.4v0.2h-1.7v-0.2
			c0.4,0,0.6-0.1,0.6-0.4c0-0.2,0.1-0.6,0.1-1.3v-1.5c0-0.5,0-0.6-0.1-0.8c-0.1-0.2-0.3-0.2-0.6-0.2v-0.2h1l2.9,3.5h0V16
			c0-0.7,0-1.1-0.1-1.3c0-0.2-0.2-0.3-0.7-0.4v-0.2h1.7v0.2c-0.4,0-0.6,0.1-0.6,0.4c0,0.2-0.1,0.6-0.1,1.3V18.7z"/>
		<path class="st0" d="M41.5,17.8c0,0.3,0,0.5,0.1,0.5c0.1,0.1,0.3,0.1,0.5,0.1c1.5,0,2-1,2-2c0-0.7-0.2-1.4-0.8-1.8
			c-0.3-0.1-0.7-0.2-1.2-0.2c-0.3,0-0.4,0-0.5,0c0,0-0.1,0.1-0.1,0.2V17.8z M42.2,14.1c0.8,0,1.5,0.2,1.9,0.6
			c0.3,0.3,0.6,0.8,0.6,1.5c0,1.7-1.3,2.5-2.9,2.5h-1.6v-0.2c0.6,0,0.7-0.1,0.7-0.8v-2.5c0-0.8-0.1-0.8-0.6-0.8v-0.2H42.2z"/>
	</g>
	<g>
		<path class="st1" d="M20.1,24.2l-0.3-0.3c0,0-0.1,0.1-0.1,0.1l0,0c-0.1,0.1-0.2,0.1-0.3,0.2c-0.1,0.1-0.2,0.1-0.4,0.1
			c-0.2,0-0.3-0.1-0.5-0.2c-0.1-0.1-0.2-0.3-0.2-0.4c0-0.1,0-0.2,0.1-0.3c0.1-0.1,0.2-0.2,0.3-0.3l0,0c0.1-0.1,0.1-0.1,0.2-0.1
			c-0.2-0.2-0.3-0.4-0.3-0.6c0-0.2,0.1-0.3,0.2-0.4c0.1-0.1,0.3-0.2,0.5-0.2c0.2,0,0.3,0.1,0.5,0.2c0.1,0.1,0.2,0.2,0.2,0.4
			c0,0.2-0.2,0.4-0.5,0.7l0,0l0.4,0.4c0.1-0.1,0.2-0.3,0.3-0.4h0.4c-0.1,0.2-0.2,0.5-0.4,0.7l0.5,0.6H20.1z M19.5,23.7L19.5,23.7
			l-0.3-0.6L19,23.2c-0.2,0.1-0.3,0.3-0.3,0.4c0,0.1,0,0.1,0.1,0.2c0.1,0.1,0.1,0.1,0.2,0.1c0.1,0,0.1,0,0.2-0.1
			C19.3,23.8,19.4,23.7,19.5,23.7z M19.2,22.7l0.1-0.1c0.1-0.1,0.2-0.2,0.2-0.3c0-0.1,0-0.1-0.1-0.2C19.4,22,19.4,22,19.3,22
			c-0.1,0-0.1,0-0.2,0.1c-0.1,0-0.1,0.1-0.1,0.2c0,0.1,0,0.1,0.1,0.2C19.1,22.5,19.2,22.6,19.2,22.7z"/>
		<path class="st1" d="M23.9,24.2H23v-2.6h0.7c0.2,0,0.4,0,0.5,0.1c0.1,0.1,0.2,0.1,0.3,0.2c0.1,0.1,0.1,0.2,0.1,0.3
			c0,0.3-0.1,0.4-0.4,0.5c0.2,0,0.3,0.1,0.4,0.2c0.1,0.1,0.2,0.3,0.2,0.4c0,0.1,0,0.2-0.1,0.4c-0.1,0.1-0.2,0.2-0.3,0.3
			C24.2,24.2,24.1,24.2,23.9,24.2z M23.7,21.9h-0.3v0.8h0.2c0.2,0,0.3,0,0.4-0.1c0.1-0.1,0.1-0.2,0.1-0.3
			C24.2,22.1,24,21.9,23.7,21.9z M23.7,23h-0.3v0.8h0.4c0.2,0,0.3,0,0.4,0c0.1,0,0.1-0.1,0.2-0.1c0-0.1,0.1-0.1,0.1-0.2
			c0-0.1,0-0.2-0.1-0.2c0-0.1-0.1-0.1-0.2-0.1C24,23.1,23.9,23,23.7,23z"/>
		<path class="st1" d="M26.6,21.6h0.3l1.2,2.6h-0.4l-0.3-0.8h-1.1l-0.3,0.8h-0.4L26.6,21.6z M27.1,23.1l-0.4-0.9l-0.4,0.9H27.1z"/>
		<path class="st1" d="M30.9,21.6h0.3v2.6h-0.3l-1.7-2v2h-0.3v-2.6h0.3l1.7,2V21.6z"/>
		<path class="st1" d="M33.7,22.9h0.9V24c-0.3,0.1-0.6,0.2-0.9,0.2c-0.4,0-0.8-0.1-1-0.4c-0.3-0.2-0.4-0.6-0.4-0.9
			c0-0.4,0.1-0.7,0.4-1c0.3-0.3,0.6-0.4,1-0.4c0.1,0,0.3,0,0.4,0c0.1,0,0.3,0.1,0.5,0.2v0.4c-0.3-0.2-0.6-0.3-0.9-0.3
			c-0.3,0-0.5,0.1-0.7,0.3c-0.2,0.2-0.3,0.4-0.3,0.7c0,0.3,0.1,0.5,0.3,0.7c0.2,0.2,0.4,0.3,0.7,0.3c0.1,0,0.3,0,0.5-0.1l0,0v-0.5
			h-0.5V22.9z"/>
		<path class="st1" d="M37.1,21.6h0.5l-1.1,1.2l1.4,1.3h-0.5l-1.3-1.3v1.3h-0.4v-2.6h0.4v1.2L37.1,21.6z"/>
		<path class="st1" d="M39.5,21.6c0.4,0,0.7,0.1,1,0.4c0.3,0.3,0.4,0.6,0.4,0.9c0,0.4-0.1,0.7-0.4,0.9c-0.3,0.2-0.6,0.4-1,0.4
			c-0.4,0-0.7-0.1-1-0.4c-0.3-0.2-0.4-0.6-0.4-0.9c0-0.4,0.1-0.7,0.4-1C38.8,21.7,39.1,21.6,39.5,21.6z M39.5,21.9
			c-0.3,0-0.5,0.1-0.7,0.3c-0.2,0.2-0.3,0.4-0.3,0.7c0,0.3,0.1,0.5,0.3,0.7c0.2,0.2,0.4,0.3,0.7,0.3c0.3,0,0.5-0.1,0.7-0.3
			c0.2-0.2,0.3-0.4,0.3-0.7c0-0.3-0.1-0.5-0.3-0.7C40.1,22,39.8,21.9,39.5,21.9z"/>
		<path class="st1" d="M43.4,21.6h0.5l-1.1,1.2l1.4,1.3h-0.5l-1.3-1.3v1.3h-0.4v-2.6h0.4v1.2L43.4,21.6z"/>
		<path class="st1" d="M9.2,28v0.4c-0.3,0.1-0.6,0.2-0.9,0.2c-0.3,0-0.5-0.1-0.7-0.2C7.3,28.4,7.1,28.2,7,28
			c-0.1-0.2-0.2-0.4-0.2-0.7c0-0.4,0.1-0.7,0.4-0.9c0.3-0.3,0.6-0.4,1-0.4c0.3,0,0.6,0.1,0.9,0.2v0.4c-0.3-0.2-0.6-0.3-0.9-0.3
			c-0.3,0-0.5,0.1-0.7,0.3c-0.2,0.2-0.3,0.4-0.3,0.7c0,0.3,0.1,0.5,0.3,0.7c0.2,0.2,0.4,0.3,0.7,0.3C8.6,28.3,8.9,28.2,9.2,28z"/>
		<path class="st1" d="M11.4,26c0.4,0,0.7,0.1,1,0.4c0.3,0.3,0.4,0.6,0.4,0.9c0,0.4-0.1,0.7-0.4,0.9c-0.3,0.2-0.6,0.4-1,0.4
			c-0.4,0-0.7-0.1-1-0.4c-0.3-0.2-0.4-0.6-0.4-0.9c0-0.4,0.1-0.7,0.4-1C10.7,26.2,11,26,11.4,26z M11.5,26.4c-0.3,0-0.5,0.1-0.7,0.3
			c-0.2,0.2-0.3,0.4-0.3,0.7c0,0.3,0.1,0.5,0.3,0.7c0.2,0.2,0.4,0.3,0.7,0.3c0.3,0,0.5-0.1,0.7-0.3c0.2-0.2,0.3-0.4,0.3-0.7
			c0-0.3-0.1-0.5-0.3-0.7C12,26.5,11.7,26.4,11.5,26.4z"/>
		<path class="st1" d="M15.9,26.1h0.3v2.6h-0.3l-1.7-2v2h-0.3v-2.6h0.3l1.7,2V26.1z"/>
		<path class="st1" d="M19,26.1h0.4l-1.1,2.6h-0.1l-1.1-2.6h0.4l0.8,1.8L19,26.1z"/>
		<path class="st1" d="M20.2,26.1h1.5v0.3h-1.1v0.8h1.1v0.3h-1.1v0.8h1.1v0.3h-1.5V26.1z"/>
		<path class="st1" d="M24.7,26.1H25v2.6h-0.3l-1.7-2v2h-0.3v-2.6h0.3l1.7,2V26.1z"/>
		<path class="st1" d="M25.9,26.1H28v0.3h-0.9v2.2h-0.4v-2.2h-0.9V26.1z"/>
		<path class="st1" d="M29,26.1h0.4v2.6H29V26.1z"/>
		<path class="st1" d="M31.7,26c0.4,0,0.7,0.1,1,0.4c0.3,0.3,0.4,0.6,0.4,0.9c0,0.4-0.1,0.7-0.4,0.9c-0.3,0.2-0.6,0.4-1,0.4
			c-0.4,0-0.7-0.1-1-0.4c-0.3-0.2-0.4-0.6-0.4-0.9c0-0.4,0.1-0.7,0.4-1C31,26.2,31.3,26,31.7,26z M31.7,26.4c-0.3,0-0.5,0.1-0.7,0.3
			c-0.2,0.2-0.3,0.4-0.3,0.7c0,0.3,0.1,0.5,0.3,0.7c0.2,0.2,0.4,0.3,0.7,0.3c0.3,0,0.5-0.1,0.7-0.3c0.2-0.2,0.3-0.4,0.3-0.7
			c0-0.3-0.1-0.5-0.3-0.7C32.2,26.5,32,26.4,31.7,26.4z"/>
		<path class="st1" d="M36.2,26.1h0.3v2.6h-0.3l-1.7-2v2h-0.3v-2.6h0.3l1.7,2V26.1z"/>
		<path class="st1" d="M41.4,28v0.4c-0.3,0.1-0.6,0.2-0.9,0.2c-0.3,0-0.5-0.1-0.7-0.2c-0.2-0.1-0.4-0.3-0.5-0.5
			c-0.1-0.2-0.2-0.4-0.2-0.7c0-0.4,0.1-0.7,0.4-0.9c0.3-0.3,0.6-0.4,1-0.4c0.3,0,0.6,0.1,0.9,0.2v0.4c-0.3-0.2-0.6-0.3-0.9-0.3
			c-0.3,0-0.5,0.1-0.7,0.3c-0.2,0.2-0.3,0.4-0.3,0.7c0,0.3,0.1,0.5,0.3,0.7c0.2,0.2,0.4,0.3,0.7,0.3C40.8,28.3,41.1,28.2,41.4,28z"
			/>
		<path class="st1" d="M42.5,26.1h1.5v0.3h-1.1v0.8h1.1v0.3h-1.1v0.8h1.1v0.3h-1.5V26.1z"/>
		<path class="st1" d="M46.9,26.1h0.3v2.6H47l-1.7-2v2h-0.3v-2.6h0.3l1.7,2V26.1z"/>
		<path class="st1" d="M48.2,26.1h2.1v0.3h-0.9v2.2h-0.4v-2.2h-0.9V26.1z"/>
		<path class="st1" d="M51.2,28.6v-2.6h0.6c0.3,0,0.5,0.1,0.6,0.2c0.2,0.1,0.2,0.3,0.2,0.5c0,0.1,0,0.3-0.1,0.4
			c-0.1,0.1-0.2,0.2-0.3,0.2c0.1,0.1,0.2,0.1,0.2,0.2c0.1,0.1,0.2,0.3,0.3,0.5c0.1,0.1,0.2,0.3,0.2,0.3l0.1,0.2h-0.4l-0.1-0.2
			c0,0,0,0,0,0l-0.1-0.1l-0.1-0.2l-0.1-0.2c-0.1-0.1-0.1-0.2-0.2-0.3c-0.1-0.1-0.1-0.1-0.2-0.1c-0.1,0-0.1,0-0.3,0h-0.1v1.1H51.2z
			 M51.7,26.4h-0.1v0.8h0.1c0.2,0,0.3,0,0.4,0c0.1,0,0.1-0.1,0.2-0.1c0-0.1,0.1-0.1,0.1-0.2c0-0.1,0-0.2-0.1-0.2
			c0-0.1-0.1-0.1-0.2-0.1C52,26.4,51.9,26.4,51.7,26.4z"/>
		<path class="st1" d="M54.1,26.1h1.5v0.3h-1.1v0.8h1.1v0.3h-1.1v0.8h1.1v0.3h-1.5V26.1z"/>
		<path class="st1" d="M10.7,30.5H11l1.1,2.6h-0.4l-0.3-0.8h-1.1L10,33.1H9.6L10.7,30.5z M11.2,32l-0.4-0.9L10.4,32H11.2z"/>
		<path class="st1" d="M12.4,30.5h2.1v0.3h-0.9v2.2h-0.4v-2.2h-0.9V30.5z"/>
		<path class="st1" d="M19.2,32.5v0.4c-0.3,0.1-0.6,0.2-0.9,0.2c-0.3,0-0.5-0.1-0.7-0.2c-0.2-0.1-0.4-0.3-0.5-0.5
			c-0.1-0.2-0.2-0.4-0.2-0.7c0-0.4,0.1-0.7,0.4-0.9c0.3-0.3,0.6-0.4,1-0.4c0.3,0,0.6,0.1,0.9,0.2v0.4c-0.3-0.2-0.6-0.3-0.9-0.3
			c-0.3,0-0.5,0.1-0.7,0.3c-0.2,0.2-0.3,0.4-0.3,0.7c0,0.3,0.1,0.5,0.3,0.7c0.2,0.2,0.4,0.3,0.7,0.3C18.6,32.8,18.9,32.7,19.2,32.5z
			"/>
		<path class="st1" d="M20.3,30.5h1.5v0.3h-1.1v0.8h1.1V32h-1.1v0.8h1.1v0.3h-1.5V30.5z"/>
		<path class="st1" d="M24.7,30.5h0.3v2.6h-0.3l-1.7-2v2h-0.3v-2.6H23l1.7,2V30.5z"/>
		<path class="st1" d="M26,30.5h2.1v0.3h-0.9v2.2h-0.4v-2.2H26V30.5z"/>
		<path class="st1" d="M29,33.1v-2.6h0.6c0.3,0,0.5,0.1,0.6,0.2c0.2,0.1,0.2,0.3,0.2,0.5c0,0.1,0,0.3-0.1,0.4
			c-0.1,0.1-0.2,0.2-0.3,0.2c0.1,0.1,0.2,0.1,0.2,0.2c0.1,0.1,0.2,0.3,0.3,0.5c0.1,0.1,0.2,0.3,0.2,0.3l0.1,0.2h-0.4l-0.1-0.2
			c0,0,0,0,0,0l-0.1-0.1l-0.1-0.2l-0.1-0.2c-0.1-0.1-0.1-0.2-0.2-0.3c-0.1-0.1-0.1-0.1-0.2-0.1c-0.1,0-0.1,0-0.3,0h-0.1v1.1H29z
			 M29.5,30.8h-0.1v0.8h0.1c0.2,0,0.3,0,0.4,0c0.1,0,0.1-0.1,0.2-0.1c0-0.1,0.1-0.1,0.1-0.2c0-0.1,0-0.2-0.1-0.2
			c0-0.1-0.1-0.1-0.2-0.1C29.8,30.8,29.7,30.8,29.5,30.8z"/>
		<path class="st1" d="M32.7,30.5h0.3l1.2,2.6h-0.4l-0.3-0.8h-1.1L32,33.1h-0.4L32.7,30.5z M33.2,32l-0.4-0.9L32.4,32H33.2z"/>
		<path class="st1" d="M34.9,30.5h0.4v2.2h1.2v0.3h-1.5V30.5z"/>
		<path class="st1" d="M40.2,30.5h0.4l-1,2.6h-0.1L38.6,31l-0.8,2.1h-0.1l-1-2.6h0.4l0.7,1.8l0.7-1.8h0.4l0.7,1.8L40.2,30.5z"/>
		<path class="st1" d="M42.6,30.5c0.4,0,0.7,0.1,1,0.4c0.3,0.3,0.4,0.6,0.4,0.9c0,0.4-0.1,0.7-0.4,0.9c-0.3,0.2-0.6,0.4-1,0.4
			c-0.4,0-0.7-0.1-1-0.4c-0.3-0.2-0.4-0.6-0.4-0.9c0-0.4,0.1-0.7,0.4-1C41.8,30.6,42.2,30.5,42.6,30.5z M42.6,30.8
			c-0.3,0-0.5,0.1-0.7,0.3c-0.2,0.2-0.3,0.4-0.3,0.7c0,0.3,0.1,0.5,0.3,0.7c0.2,0.2,0.4,0.3,0.7,0.3c0.3,0,0.5-0.1,0.7-0.3
			c0.2-0.2,0.3-0.4,0.3-0.7c0-0.3-0.1-0.5-0.3-0.7C43.1,30.9,42.8,30.8,42.6,30.8z"/>
		<path class="st1" d="M45,33.1v-2.6h0.6c0.3,0,0.5,0.1,0.6,0.2c0.2,0.1,0.2,0.3,0.2,0.5c0,0.1,0,0.3-0.1,0.4
			c-0.1,0.1-0.2,0.2-0.3,0.2c0.1,0.1,0.2,0.1,0.2,0.2c0.1,0.1,0.2,0.3,0.3,0.5c0.1,0.1,0.2,0.3,0.2,0.3l0.1,0.2h-0.4l-0.1-0.2
			c0,0,0,0,0,0l-0.1-0.1l-0.1-0.2l-0.1-0.2c-0.1-0.1-0.1-0.2-0.2-0.3c-0.1-0.1-0.1-0.1-0.2-0.1c-0.1,0-0.1,0-0.3,0h-0.1v1.1H45z
			 M45.4,30.8h-0.1v0.8h0.1c0.2,0,0.3,0,0.4,0c0.1,0,0.1-0.1,0.2-0.1c0-0.1,0.1-0.1,0.1-0.2c0-0.1,0-0.2-0.1-0.2
			c0-0.1-0.1-0.1-0.2-0.1C45.8,30.8,45.6,30.8,45.4,30.8z"/>
		<path class="st1" d="M47.8,30.5h0.4v2.2h1.2v0.3h-1.5V30.5z"/>
		<path class="st1" d="M50.2,33.1v-2.6h0.9c0.3,0,0.6,0.1,0.8,0.2c0.2,0.1,0.4,0.3,0.5,0.5c0.1,0.2,0.2,0.4,0.2,0.7
			c0,0.2,0,0.3-0.1,0.5c-0.1,0.2-0.2,0.3-0.3,0.4c-0.1,0.1-0.3,0.2-0.4,0.3c-0.1,0-0.2,0.1-0.3,0.1c-0.1,0-0.2,0-0.5,0H50.2z
			 M51,30.8h-0.5v1.9H51c0.2,0,0.3,0,0.4,0c0.1,0,0.2-0.1,0.3-0.1c0.1,0,0.1-0.1,0.2-0.1c0.2-0.2,0.3-0.4,0.3-0.7
			c0-0.3-0.1-0.5-0.3-0.7c-0.1-0.1-0.1-0.1-0.2-0.2c-0.1,0-0.2-0.1-0.3-0.1C51.3,30.8,51.2,30.8,51,30.8z"/>
	</g>
</g>
</svg>
