<?xml version="1.0" encoding="utf-8"?>
<!-- Generator: Adobe Illustrator 22.0.1, SVG Export Plug-In . SVG Version: 6.00 Build 0)  -->
<svg version="1.1" id="Layer_1" xmlns="http://www.w3.org/2000/svg" xmlns:xlink="http://www.w3.org/1999/xlink" x="0px" y="0px"
	 viewBox="0 0 72.5 24" style="enable-background:new 0 0 72.5 24;" xml:space="preserve">
<style type="text/css">
	.st0{fill:#F48020;}
	.st1{fill:#434244;}
</style>
<g>
	<polygon class="st0" points="15.9,13.4 18.8,7.8 21.8,13.4 18.8,12.1 	"/>
	<path class="st1" d="M32.9,11.9c-0.6-0.3-1.4-0.5-2.3-0.5c-1.5,0-2.4,0.6-2.4,1.7v0c0,1,0.8,1.5,1.9,1.5c1.6,0,2.8-0.9,2.8-2.2
		V11.9z M33.7,17l-0.9-1.3c-0.9,1-2,1.6-3.8,1.6c-2.3,0-4.3-1.3-4.3-3.8v0c0-2.7,2.1-4,5-4c1.3,0,2.2,0.2,3,0.5V9.7
		c0-1.5-0.9-2.3-2.7-2.3c-1.3,0-2.3,0.3-3.4,0.7l-0.9-2.7c1.4-0.6,2.7-1,4.8-1c3.9,0,5.6,2,5.6,5.4V17H33.7z"/>
	<path class="st1" d="M48.6,10.7c0-2.1-1.4-3.4-3-3.4c-1.6,0-3,1.4-3,3.4v0c0,2.1,1.4,3.4,3,3.4C47.2,14.2,48.6,12.8,48.6,10.7
		L48.6,10.7z M46.4,17.2c-1.9,0-3-0.9-3.9-1.9L41.4,17H39V0h3.5v6.3c0.9-1.2,2-2,3.9-2c2.9,0,5.7,2.3,5.7,6.4v0
		C52.1,14.9,49.4,17.2,46.4,17.2"/>
	<rect x="54.6" class="st1" width="3.5" height="17"/>
	<path class="st1" d="M66.4,7.1c1.5,0,2.4,1.1,2.6,2.6h-5.3C64,8.2,64.9,7.1,66.4,7.1 M69.5,13.4c-0.8,0.7-1.6,1-2.7,1
		c-1.6,0-2.7-0.8-3-2.4h8.7c0-0.3,0-0.5,0-0.9v0c0-3.5-1.9-6.8-6.1-6.8c-3.6,0-6.2,2.9-6.2,6.5v0c0,3.8,2.8,6.4,6.5,6.4
		c1.9,0,3.3-0.6,4.4-1.6L69.5,13.4z"/>
	<path class="st1" d="M6.5,6.7c0.9,0,1.6,0.2,2,0.6c0.4,0.4,0.6,1,0.6,1.6c0,0.6-0.2,1.2-0.6,1.6c-0.4,0.4-1.1,0.6-2,0.6
		c-0.9,0-1.6-0.2-2-0.6C4.1,10.1,3.9,9.6,3.9,9c0-0.7,0.2-1.2,0.6-1.6C4.9,6.9,5.6,6.7,6.5,6.7 M5.2,18.1l3,0.1c1,0,1.4,0.2,1.5,0.3
		c0.2,0.2,0.3,0.4,0.3,0.8c0,0.5-0.3,0.9-0.9,1.2c-0.7,0.4-1.7,0.6-3,0.6c-0.4,0-0.8,0-1.2-0.1c-0.3,0-0.6-0.1-0.9-0.3
		c-0.2-0.1-0.4-0.2-0.5-0.4c-0.1-0.1-0.1-0.4-0.1-0.6c0-0.5,0.2-0.8,0.4-1.2C4.2,18.2,4.6,18.1,5.2,18.1 M12.5,16.2
		c-0.8-0.7-2-1-3.7-1.1L5.3,15c-0.3,0-1,0-1.2-0.3c-0.1-0.1-0.1-0.2,0-0.4c0-0.1,0.3-0.5,0.4-0.6C5.1,13.9,5.8,14,6.5,14
		c0.8,0,1.6-0.1,2.3-0.3c0.7-0.2,1.3-0.6,1.9-1c0.5-0.4,1-1,1.2-1.6c0.3-0.6,0.4-1.3,0.4-2.1c0-0.4-0.1-0.8-0.2-1.2
		c0-0.1-0.1-0.2-0.1-0.2c0-0.1-0.1-0.2-0.1-0.2c0-0.1-0.1-0.2-0.1-0.3l1.9-0.2l0-2.5L9.1,4.4C9,4.3,8.9,4.3,8.8,4.2
		C8.1,4,7.3,3.9,6.5,3.9C5.5,3.9,4.7,4,4,4.3C3.2,4.5,2.6,4.9,2.1,5.3C1.6,5.8,1.2,6.3,0.9,7C0.7,7.6,0.5,8.3,0.5,9
		c0,0.9,0.2,1.6,0.6,2.3c0.3,0.5,0.6,0.9,1,1.3c-0.3,0.3-0.6,0.6-0.8,0.9c-0.6,1-0.7,2.2-0.1,3c0.1,0.2,0.3,0.3,0.4,0.5
		c-0.4,0.3-0.7,0.6-1,1C0.2,18.7,0,19.4,0,20.2c0,1.4,0.6,2.4,1.7,3C2.7,23.8,4.1,24,6,24c1.1,0,2.1-0.1,3-0.3
		c0.9-0.2,1.7-0.5,2.4-1c0.7-0.4,1.3-1,1.7-1.6c0.4-0.6,0.6-1.3,0.6-2.1C13.7,17.8,13.3,16.9,12.5,16.2"/>
</g>
</svg>
