<?xml version="1.0" encoding="utf-8"?>
<!-- Generator: Adobe Illustrator 22.0.1, SVG Export Plug-In . SVG Version: 6.00 Build 0)  -->
<svg version="1.1" id="Layer_1" xmlns="http://www.w3.org/2000/svg" xmlns:xlink="http://www.w3.org/1999/xlink" x="0px" y="0px"
	 viewBox="0 0 46.2 24.4" style="enable-background:new 0 0 46.2 24.4;" xml:space="preserve">
<style type="text/css">
	.st0{fill:#C10230;}
</style>
<g>
	<path class="st0" d="M2.7,14c0.9,0,1.6-2.6,1.6-6.6c0-1,0-2.8-0.4-4.4C3.6,1.7,3.2,0.9,2.7,0.9H1.9v13H2.7z M3.2,14.9H1.9v9.5H0V0
		h3.2c2,0,3.6,3.3,3.6,7.4C6.8,11.6,5.2,14.9,3.2,14.9"/>
	<polygon class="st0" points="34.6,16.1 34.6,24.4 32.9,24.4 32.9,16.1 30.6,0 32.5,0 34.4,12.8 36.5,0 37.3,0 	"/>
	<path class="st0" d="M10.9,0h-2l0.5,2.9L5.9,24.4h0.7l1.6-9.6h3.4l1.8,9.6h2L10.9,0z M9.9,5.1l1.6,8.9H8.4L9.9,5.1z"/>
	<path class="st0" d="M26.8,0h-2l0.5,2.9l-3.5,21.4h0.7l1.6-9.6h3.4l1.8,9.6h2L26.8,0z M25.8,5.1l1.6,8.9h-3.1L25.8,5.1z"/>
	<path class="st0" d="M41.7,0h-2l0.5,2.9l-3.5,21.4h0.7l1.6-9.6h3.4l1.8,9.6h2L41.7,0z M40.7,5.1l1.6,8.9h-3.1L40.7,5.1z"/>
	<path class="st0" d="M20.4,12.2L20.4,12.2c-1.3-2.7-3.1-4.4-3.2-8c0-1.8,0.7-3.1,1.7-3.1c0.6,0,1.3,0.6,1.7,1.6l0.5-1.3
		C20.6,0.6,19.6,0,19,0c-1.8,0-3.4,3.1-3.4,7.2c0,2.1,0.5,3.7,1.2,5l0,0c1.3,2.7,3.1,4.4,3.2,8c0,1.8-0.7,3.1-1.7,3.1
		c-0.6,0-1.3-0.6-1.7-1.6l-0.5,1.3c0.6,0.9,1.5,1.4,2.2,1.4c1.8,0,3.4-3.1,3.4-7.2C21.6,15.1,21.1,13.5,20.4,12.2"/>
</g>
</svg>
