<?xml version="1.0" encoding="utf-8"?>
<!-- Generator: Adobe Illustrator 22.0.1, SVG Export Plug-In . SVG Version: 6.00 Build 0)  -->
<svg version="1.1" xmlns="http://www.w3.org/2000/svg" xmlns:xlink="http://www.w3.org/1999/xlink" x="0px" y="0px"
	 viewBox="0 0 1661 373.7" style="enable-background:new 0 0 1661 373.7;" xml:space="preserve">
<style type="text/css">
	.st0{fill:#3D2966;}
</style>
<g id="图层_1">
	<g>
		<g>
			<path class="st0" d="M145.4,132.5H4.5v0.4H0v229.6h31.6V270h113.8c37.9,0,68.8-30.8,68.8-68.8
				C214.2,163.4,183.3,132.5,145.4,132.5z M145.4,238.5H31.6v-74.4h113.8c20.5,0,37.2,16.7,37.2,37.2
				C182.6,221.8,165.9,238.5,145.4,238.5z"/>
			<path class="st0" d="M834.1,317L642,136.8c-4.6-4.3-11.3-5.5-17.1-3c-5.8,2.5-9.5,8.2-9.5,14.5v225.4H647v-189L839.1,365
				c4.6,4.3,11.3,5.5,17.1,3c5.8-2.5,9.5-8.2,9.5-14.5V131.4h-31.6V317z"/>
			<path class="st0" d="M289.7,151.7v200.6c0,8.7,7.1,15.8,15.8,15.8h214.2v-31.6H321.3v-65.4h166.8v-31.6H321.3v-72.1h198.4v-31.6
				H305.5C296.8,135.9,289.7,143,289.7,151.7z"/>
			<polygon class="st0" points="954.7,165.2 1046,165.2 1046,367 1077.6,367 1077.6,165.2 1168.9,165.2 1168.9,133.6 954.7,133.6 
							"/>
			<path class="st0" d="M1312.7,134.8c-5.9,0-11.3,3.4-14,8.7l-113.6,225h35.1l30.6-60.5h124.1l30.5,60.5h35.1l-113.7-225.2
				C1324.1,138,1318.8,134.6,1312.7,134.8z M1266.8,276.4l46.2-91.2l46,91.2H1266.8z"/>
			<path class="st0" d="M1658.7,101.6c5.4-11.1,0.9-25-10-30.8c-10.9-5.8-21.7-20.5-23.8-32.8c-2.1-12.2-13.9-20.8-26.2-19
				c-12.3,1.7-29.6-3.9-38.5-12.5c-8.9-8.6-23.5-8.6-32.4,0c-8.9,8.6-26.2,14.3-38.5,12.5c-12.3-1.7-24.1,6.8-26.2,19
				c-2.1,12.2-12.9,26.9-23.8,32.8c-10.9,5.8-15.5,19.7-10,30.8c5.4,11.1,5.4,29.4,0,40.5c-5.4,11.1-0.9,25,10,30.8
				c10.9,5.8,21.7,20.6,23.8,32.8c2.1,12.2,13.9,20.8,26.2,19c12.3-1.7,29.6,3.9,38.5,12.5c8.9,8.6,23.5,8.6,32.4,0
				c8.9-8.6,26.2-14.2,38.5-12.5c12.3,1.7,24.1-6.8,26.2-19c2.1-12.2,12.9-26.9,23.8-32.8c10.9-5.8,15.5-19.7,10-30.8
				C1653.2,130.9,1653.2,112.7,1658.7,101.6z M1618.5,106.9l-8.8,10.7c-7.8,9.6-13.7,27.6-13,39.9l0.8,13.9
				c0.7,12.4-8.2,18.8-19.7,14.3l-12.9-5c-11.5-4.5-30.4-4.5-42,0l-12.9,5c-11.5,4.5-20.4-1.9-19.7-14.3l0.8-13.9
				c0.7-12.4-5.1-30.3-13-39.9l-8.8-10.7c-7.8-9.6-4.5-20,7.5-23.2l13.4-3.5c12-3.1,27.3-14.3,34-24.7l7.5-11.7
				c6.7-10.4,17.7-10.4,24.3,0l7.5,11.7c6.7,10.4,22,21.5,34,24.7l13.4,3.5C1623,86.9,1626.4,97.4,1618.5,106.9z"/>
		</g>
	</g>
</g>
<g id="图层_2">
</g>
<g id="图层_3">
</g>
</svg>
