<?xml version="1.0" encoding="utf-8"?>
<!-- Generator: Adobe Illustrator 22.0.1, SVG Export Plug-In . SVG Version: 6.00 Build 0)  -->
<svg version="1.1" id="Layer_1" xmlns="http://www.w3.org/2000/svg" xmlns:xlink="http://www.w3.org/1999/xlink" x="0px" y="0px"
	 viewBox="0 0 87.8 31.4" style="enable-background:new 0 0 87.8 31.4;" xml:space="preserve">
<style type="text/css">
	.st0{fill:#614E47;}
	.st1{fill:url(#SVGID_1_);}
	.st2{fill:url(#SVGID_2_);}
</style>
<g>
	<g>
		<path class="st0" d="M48.3,28.8l5.8-13.1c0.4-0.9,1.1-1.4,2.1-1.4h0.2c1,0,1.7,0.5,2.1,1.4l5.8,13.1c0.1,0.3,0.2,0.5,0.2,0.7
			c0,1-0.8,1.8-1.7,1.8c-0.9,0-1.4-0.5-1.8-1.3l-1.1-2.6h-7.3l-1.2,2.7c-0.3,0.7-0.9,1.1-1.7,1.1c-1,0-1.7-0.8-1.7-1.7
			C48.1,29.3,48.2,29.1,48.3,28.8 M58.6,24.2l-2.3-5.5L54,24.2H58.6z"/>
		<path class="st0" d="M67.8,16.2c0-1,0.8-1.8,1.8-1.8c1,0,1.8,0.8,1.8,1.8v13.2c0,1-0.8,1.8-1.8,1.8c-1,0-1.8-0.8-1.8-1.8V16.2z"/>
		<path class="st0" d="M75.5,29.4c-0.4-0.3-0.7-0.8-0.7-1.4c0-0.9,0.8-1.7,1.7-1.7c0.5,0,0.8,0.2,1,0.3c1.3,0.9,2.6,1.5,4.2,1.5
			c1.5,0,2.4-0.6,2.4-1.6v0c0-0.9-0.6-1.4-3.3-2.1c-3.3-0.9-5.5-1.8-5.5-5.1v0c0-3,2.4-5,5.8-5c2,0,3.8,0.5,5.3,1.5
			c0.4,0.2,0.8,0.7,0.8,1.4c0,1-0.8,1.7-1.7,1.7c-0.4,0-0.6-0.1-0.9-0.3c-1.2-0.7-2.3-1.1-3.5-1.1c-1.4,0-2.1,0.6-2.1,1.4v0
			c0,1.1,0.7,1.4,3.6,2.2c3.4,0.9,5.3,2.1,5.3,5v0.1c0,3.3-2.5,5.1-6.1,5.1C79.6,31.4,77.4,30.7,75.5,29.4"/>
	</g>
	<g>
		<g>
			<g>
				<g>
					<g>
						
							<linearGradient id="SVGID_1_" gradientUnits="userSpaceOnUse" x1="-393.8188" y1="-13.7198" x2="-371.8977" y2="24.2486" gradientTransform="matrix(-1 0 0 1 -353.2168 0)">
							<stop  offset="0.2" style="stop-color:#73A333"/>
							<stop  offset="0.2684" style="stop-color:#81AC32"/>
							<stop  offset="0.4791" style="stop-color:#A9C530"/>
							<stop  offset="0.647" style="stop-color:#C1D42F"/>
							<stop  offset="0.75" style="stop-color:#CADA2E"/>
						</linearGradient>
						<path class="st1" d="M0,2.7c6.5,5.5,26.9,25.9,49.9,6.5c4.6-3.9,8.6-6.9,13.7-8.9C49.1-2.7,30,21.2,0,2.7z"/>
						<g>
							<linearGradient id="SVGID_2_" gradientUnits="userSpaceOnUse" x1="34.3399" y1="23.6587" x2="17.2848" y2="3.3332">
								<stop  offset="0.15" style="stop-color:#CADA2E"/>
								<stop  offset="0.3046" style="stop-color:#C0D42F"/>
								<stop  offset="0.5641" style="stop-color:#A6C330"/>
								<stop  offset="0.895" style="stop-color:#7CA932"/>
								<stop  offset="0.96" style="stop-color:#73A333"/>
							</linearGradient>
							<path class="st2" d="M8.3,10.8c1.8,2.5,3.5,4.5,5.2,6.4c17.3,16.9,29.2-1.8,29.4-1.9C33.2,20.6,22,21.6,8.3,10.8z"/>
						</g>
					</g>
				</g>
			</g>
		</g>
	</g>
</g>
</svg>
