<?xml version="1.0" encoding="utf-8"?>
<!-- Generator: Adobe Illustrator 22.0.1, SVG Export Plug-In . SVG Version: 6.00 Build 0)  -->
<svg version="1.1" id="Layer_1" xmlns="http://www.w3.org/2000/svg" xmlns:xlink="http://www.w3.org/1999/xlink" x="0px" y="0px"
	 viewBox="0 0 35.3 42.3" style="enable-background:new 0 0 35.3 42.3;" xml:space="preserve">
<style type="text/css">
	.st0{fill:#00A551;}
</style>
<g>
	<path class="st0" d="M34.5,9.9c-1.5-7.6-8.8-9.1-8.9-9.1c-2.3-0.6-5-0.9-7.8-0.9c-4.2,0-7.4,0.6-7.6,0.7c-8.5,1.7-9.5,9.5-9.5,9.5
		C-0.8,18.1,0.6,24.9,0.6,25C2.1,34.2,11,35.1,11,35.1c2.2,0.4,4.4,0.6,6.8,0.6c3.8,0,6.4-0.6,6.4-0.6c9.1-1.4,10.3-9.7,10.3-9.7
		C36.3,16.9,34.5,10,34.5,9.9z M32.2,24.6c0,0.3-1,7-8.6,8.1c0,0-2.3,0.5-5.7,0.5c-2.1,0-4.1-0.2-6-0.6c-0.1,0-7.4-0.8-8.7-8.5
		C3,24,1.9,18,3.2,11c0-0.1,0.9-6.5,7.9-7.9c0,0,3-0.6,6.8-0.6c2.5,0,4.8,0.3,6.9,0.8c0.1,0,6.1,1.2,7.4,7.6
		C32.2,10.9,33.8,16.9,32.2,24.6z"/>
	<path class="st0" d="M25.8,6.2l-0.5-0.6l-3.7,6.7l-4-7l-3.9,7.1l-3.5-6.6L9.8,6.2C9.6,6.5,5.2,12,5.2,17.2c0,0.1-0.2,2.7,1.9,5
		c1.9,2,4.8,3.1,8.8,3.3v5.2h3.5l0-5.2c4.1-0.2,7.1-1.3,8.9-3.3c2.1-2.3,1.9-4.9,1.9-5C30.3,11.9,26,6.4,25.8,6.2z M15.7,15.9l2-3.5
		l1.9,3.5l-1.9,3.6L15.7,15.9z M9.9,12.5l5.2,9.5c-1.8-0.2-5.9-0.9-6.5-4.2C8.6,17.8,8.2,16.3,9.9,12.5z M26.7,17.9
		C26.1,21,22,21.8,20.2,22l5.2-9.5C27.1,16.3,26.7,17.8,26.7,17.9z"/>
	<polygon class="st0" points="11.2,41.4 12.1,41.6 12.3,40.8 11.4,40.6 	"/>
	<polygon class="st0" points="6.1,39.7 7.1,40.1 7.4,39.3 6.5,38.9 	"/>
	<path class="st0" d="M5.2,37.7c0,0-0.4,0.3-0.6,0.3c0,0-0.1,0-0.1,0c-0.3-0.1-0.7-0.4-0.6-1c0.1-0.7,0.7-1.2,1-1.3l0,0
		c0.3-0.1,0.4-0.1,0.6,0.1c0.2,0.2,0.4,0.4,0.3,0.9l0,0l0.9,0.5l0-0.1c0,0,0.6-1.5-0.8-2.2c-0.3-0.2-0.7-0.3-1-0.3
		c-0.8,0-1.3,0.6-1.6,0.9l-0.1,0.1c-0.2,0.2-0.5,0.9-0.5,1.7c0,0.4,0.2,0.8,0.6,1.1c0.4,0.3,0.8,0.5,1.2,0.5c0.5,0,0.9-0.2,1.3-0.7
		l0-0.1L5.2,37.7L5.2,37.7z"/>
	<path class="st0" d="M11.9,38.5c0.1-0.7-0.6-1.2-0.9-1.3c-0.3-0.1-1.7-0.5-1.7-0.5l-0.1,0L8,40.6l1,0.3l0.4-1.3
		c0.2,0.1,0.9,0.3,1.3,0.3l0,0c0.1,0,0.2,0,0.2,0C11.6,39.6,11.7,39.2,11.9,38.5z M10.8,38.6c0,0.2-0.2,0.3-0.3,0.4c0,0,0,0-0.1,0
		c-0.2,0-0.6-0.1-0.8-0.2l0.2-0.8c0.2,0.1,0.7,0.2,0.8,0.3C10.8,38.3,10.8,38.4,10.8,38.6z"/>
	<path class="st0" d="M15.1,38.9c0.7,0,0.9,0.7,0.9,0.7l0,0l1,0l0-0.1c0,0-0.1-1.4-1.5-1.6c-0.1,0-0.2,0-0.3,0
		c-1.2,0-1.8,0.9-1.9,1.6c-0.1,0.5-0.1,1.3,0.3,1.9c0.3,0.4,0.7,0.6,1.3,0.7c0.1,0,0.1,0,0.2,0c0.4,0,0.8-0.2,0.9-0.3l0,0.3l0.8,0
		l0.2-2.2l-1.8-0.2L15,40.7l0.8,0.1c0,0.2-0.2,0.5-0.7,0.6c0,0,0,0-0.1,0c-0.8,0-0.9-0.7-0.9-1.1c0-0.4,0.2-0.8,0.4-1.1
		C14.8,38.9,14.9,38.9,15.1,38.9z"/>
	<path class="st0" d="M21,41.4c0-0.1,0-0.6-0.1-0.8c0-0.2-0.2-0.3-0.3-0.4c0.1-0.1,0.4-0.4,0.4-1c-0.1-0.8-1-1-1-1l-2.3,0.1l0.1,4
		l1,0l-0.1-1.4c0.1,0,0.5,0,0.8,0c0.1,0,0.1,0,0.2,0c0.2,0,0.3,0.3,0.3,0.7c0,0.3,0.1,0.7,0.1,0.7l0,0.1l1.2-0.1L21.2,42
		C21.1,41.9,21,41.6,21,41.4z M19.7,39c0,0,0.3,0.1,0.3,0.3c0,0.4-0.3,0.5-0.3,0.5l-1,0l0-0.8L19.7,39z"/>
	<path class="st0" d="M23.4,37.5c-0.1,0-0.3,0-0.4,0c-0.5,0.1-0.9,0.4-1.2,0.9c-0.3,0.5-0.4,1.1-0.3,1.7c0.2,1,1.1,1.8,2,1.8
		c0.1,0,0.3,0,0.4,0c1.1-0.2,1.8-1.4,1.6-2.6C25.2,38.3,24.4,37.5,23.4,37.5z M23.6,40.9c-0.5,0-0.9-0.4-1-1
		c-0.1-0.7,0.2-1.3,0.7-1.4c0,0,0.1,0,0.1,0c0.5,0,0.9,0.4,1,1c0.1,0.7-0.2,1.3-0.7,1.4C23.7,40.9,23.6,40.9,23.6,40.9z"/>
	<path class="st0" d="M28.4,36.1l-1,0.4l0.8,2.2c0,0,0.2,0.4,0.1,0.7c0,0.1-0.1,0.2-0.3,0.3c-0.1,0-0.2,0.1-0.3,0.1
		c-0.4,0-0.6-0.5-0.6-0.5l-0.9-2.3l-0.9,0.4l1,2.8c0.1,0.3,0.6,0.7,1.2,0.7c0.3,0,0.7-0.1,1-0.3c1.3-0.7,0.7-2,0.7-2L28.4,36.1z"/>
	<path class="st0" d="M31.2,34.7c-0.3,0-0.6,0.1-0.7,0.2l-1.6,0.9l2,3.5l0.9-0.5l-0.7-1.2c0.2-0.1,1.1-0.6,1.2-0.9
		c0.3-0.7,0.1-1-0.3-1.6C31.8,34.8,31.6,34.7,31.2,34.7z M31.4,36.4c-0.1,0.2-0.5,0.4-0.7,0.5l-0.4-0.7c0.2-0.1,0.6-0.4,0.8-0.4
		c0,0,0,0,0,0c0.1,0,0.2,0.1,0.3,0.2C31.4,36,31.4,36.2,31.4,36.4z"/>
</g>
</svg>
