<?xml version="1.0" encoding="utf-8"?>
<!-- Generator: Adobe Illustrator 22.0.1, SVG Export Plug-In . SVG Version: 6.00 Build 0)  -->
<svg version="1.1" id="Layer_1" xmlns="http://www.w3.org/2000/svg" xmlns:xlink="http://www.w3.org/1999/xlink" x="0px" y="0px"
	 viewBox="0 0 129.2 28.4" style="enable-background:new 0 0 129.2 28.4;" xml:space="preserve">
<style type="text/css">
	.st0{fill:url(#SVGID_1_);}
	.st1{fill:url(#SVGID_2_);}
	.st2{fill:#463738;}
</style>
<g>
	
		<linearGradient id="SVGID_1_" gradientUnits="userSpaceOnUse" x1="-353.9356" y1="-14.1522" x2="-331.3274" y2="25.0065" gradientTransform="matrix(-1 0 0 1 -312.0576 0)">
		<stop  offset="0.2" style="stop-color:#74A333"/>
		<stop  offset="0.2686" style="stop-color:#82AD33"/>
		<stop  offset="0.4793" style="stop-color:#A9C630"/>
		<stop  offset="0.6471" style="stop-color:#C2D52F"/>
		<stop  offset="0.75" style="stop-color:#CBDB2F"/>
	</linearGradient>
	<path class="st0" d="M0,2.8c6.7,5.6,27.7,26.7,51.5,6.7c4.8-4,8.9-7.1,14.1-9.2C50.7-2.8,30.9,21.9,0,2.8z"/>
	<g>
		<linearGradient id="SVGID_2_" gradientUnits="userSpaceOnUse" x1="35.4208" y1="24.4007" x2="17.8314" y2="3.4384">
			<stop  offset="0.15" style="stop-color:#CBDB2F"/>
			<stop  offset="0.3045" style="stop-color:#C1D52F"/>
			<stop  offset="0.5639" style="stop-color:#A7C431"/>
			<stop  offset="0.8946" style="stop-color:#7DA933"/>
			<stop  offset="0.96" style="stop-color:#74A333"/>
		</linearGradient>
		<path class="st1" d="M8.6,11.2c1.8,2.6,3.6,4.7,5.3,6.6c17.8,17.5,30.1-1.8,30.3-2C34.2,21.3,22.7,22.3,8.6,11.2z"/>
	</g>
	<g>
		<path class="st2" d="M51.6,28.3c-0.7,0-1.3-0.5-1.3-1.2v-9.9c0-0.7,0.6-1.2,1.3-1.2c0.7,0,1.2,0.5,1.2,1.2V27
			C52.8,27.7,52.3,28.3,51.6,28.3L51.6,28.3z"/>
		<path class="st2" d="M57,28.3c-0.7,0-1.2-0.6-1.2-1.2v-9.9c0-0.7,0.6-1.3,1.3-1.3h0.2c0.6,0,1,0.4,1.2,0.7l5.5,7.1v-6.6
			c0-0.7,0.6-1.2,1.2-1.2c0.7,0,1.2,0.6,1.2,1.2V27c0,0.7-0.5,1.2-1.2,1.2h-0.1c-0.6,0-1-0.4-1.2-0.7l-5.7-7.3V27
			C58.2,27.7,57.7,28.3,57,28.3L57,28.3z"/>
		<path class="st2" d="M73.1,28.3c-0.7,0-1.3-0.6-1.3-1.2v-8.7h-2.6c-0.6,0-1.2-0.5-1.2-1.2c0-0.6,0.5-1.2,1.2-1.2H77
			c0.6,0,1.2,0.5,1.2,1.2c0,0.6-0.5,1.2-1.2,1.2h-2.7V27C74.4,27.7,73.8,28.3,73.1,28.3L73.1,28.3z"/>
		<path class="st2" d="M98.7,28.4c-3.3,0-5.2-2-5.2-5.4v-5.8c0-0.7,0.6-1.2,1.3-1.2c0.7,0,1.2,0.5,1.2,1.2v5.7c0,2,1,3.1,2.8,3.1
			c1.8,0,2.7-1.1,2.7-3v-5.8c0-0.7,0.6-1.2,1.3-1.2c0.7,0,1.2,0.5,1.2,1.2v5.7C103.9,26.4,102,28.4,98.7,28.4L98.7,28.4z"/>
		<path class="st2" d="M112.2,28.4c-3.5,0-6.2-2.8-6.2-6.3v0c0-3.6,2.7-6.3,6.3-6.3c1.6,0,2.9,0.4,4.2,1.4c0.3,0.2,0.5,0.6,0.5,1
			c0,0.7-0.5,1.2-1.2,1.2c-0.3,0-0.5-0.1-0.8-0.2c-0.9-0.7-1.7-1-2.7-1c-2.1,0-3.7,1.7-3.7,3.9v0c0,2.2,1.6,3.9,3.7,3.9
			c1.1,0,1.9-0.3,2.8-1.1c0.2-0.2,0.5-0.3,0.8-0.3c0.6,0,1.2,0.5,1.2,1.2c0,0.3-0.1,0.7-0.4,0.9C115.3,27.9,114,28.4,112.2,28.4
			L112.2,28.4z"/>
		<path class="st2" d="M128,28.3c-0.7,0-1.2-0.5-1.2-1.2v-3.8h-5.2V27c0,0.7-0.5,1.2-1.2,1.2c-0.7,0-1.3-0.5-1.3-1.2v-9.9
			c0-0.7,0.6-1.2,1.3-1.2c0.7,0,1.2,0.5,1.2,1.2v3.7h5.2v-3.7c0-0.7,0.5-1.2,1.2-1.2c0.7,0,1.3,0.5,1.3,1.2V27
			C129.2,27.7,128.7,28.3,128,28.3L128,28.3z"/>
		<path class="st2" d="M84.9,28.4c-3.6,0-6.3-2.7-6.3-6.3v0c0-3.5,2.8-6.3,6.4-6.3c3.6,0,6.3,2.7,6.3,6.3v0
			C91.3,25.6,88.5,28.4,84.9,28.4L84.9,28.4z M84.9,18.1c-2.1,0-3.7,1.7-3.7,3.9v0c0,2.2,1.6,3.9,3.8,3.9c2.1,0,3.7-1.7,3.7-3.9v0
			C88.7,19.8,87.1,18.1,84.9,18.1L84.9,18.1z"/>
	</g>
</g>
</svg>
