<?xml version="1.0" encoding="utf-8"?>
<!-- Generator: Adobe Illustrator 22.0.1, SVG Export Plug-In . SVG Version: 6.00 Build 0)  -->
<svg version="1.1" id="Layer_1" xmlns="http://www.w3.org/2000/svg" xmlns:xlink="http://www.w3.org/1999/xlink" x="0px" y="0px"
	 viewBox="0 0 41.9 39" style="enable-background:new 0 0 41.9 39;" xml:space="preserve">
<style type="text/css">
	.st0{fill:none;}
	.st1{fill:#BD9538;}
	.st2{fill:#231F20;}
</style>
<g>
	<g>
		<path class="st0" d="M0,0v39h41.9V0H0z"/>
		<g>
			<path class="st1" d="M11.2,14c0.3,0.3,0.5,0.6,0.6,1c0.3,1.5-1.2,3.2-1.6,5.2C10,20.4,9,21.8,10,23c-0.3,0.1-0.3,0.5-0.2,1.1
				c0.2,0.5,0.5,0.8,0.9,0.8c0,0.5-0.1,0.7-0.4,0.8c-0.3,0.1-0.7-0.3-1-0.4c-0.2-0.1-0.3,0-0.3,0c0.4-0.8-0.1-1.1-0.4-0.9
				c0.2-0.4-0.1-0.7-0.4-0.8c0.1-0.6,0.4-1.2,0.1-1.7c-0.2-0.2-0.5-0.4-1-0.3c-0.4-0.7-1.5-0.7-2.1,0c-1.3,0-2,1.8-1.8,2.7
				c0.8-1,1.5-0.6,1.5-0.1c0,0.5-0.2,0.8-0.2,1.6c0.1,1.4,1.2,2,1.3,2.6c0.1,0.4-1,0.5-1,0.5c0.6,0.8,1.7,1.2,2.4,1.1
				c0.7-0.1,1.1-0.5,1.4-0.8c0,0,0.9,0.7,1.2,1.1c0,0,0.1-0.3,0.2-0.6c0,0.4,0,0.6,0.3,0.8c0.7,0.3,1.6,0.5,2,0.7l-0.1-0.7
				c0,0,0.1,0.7,0.8,0.8c0.6,0.1,1.4,0.1,1.4,0.1c0,0.9-0.2,1.3-0.4,1.8c-0.2-0.1-0.6-0.1-0.8,0.3c-0.3-0.1-0.5,0.1-0.5,0.1
				c-0.7-0.4-1.3-1.1-2-0.9c-0.5,0.1-0.8,0.4-1,0.9c-0.8,0.2-0.9,1.2-0.6,1.9c-0.1,0.3-0.2,0.6-0.1,1c0.2,0.9,1.1,1.9,1.9,2
				c-0.4-0.8-0.1-1.5,0.5-1.1c0.3,0.2,0.6,0.4,1.1,0.6c1.4,0.6,2.7,0.1,3.4-0.1c0.6-0.2,0.8,0.3,0.6,0.8c0.5-0.1,1.7-0.6,1.7-1.8
				c0-0.6-0.4-1.1-0.7-1.3h0c0.5-0.1,0.8-0.4,1.2-0.7c-0.2,0-0.4-0.1-0.7-0.2c0,0,0.5,0.1,0.8-0.1c0.3-0.2,0.8-1.2,1.2-1.6
				c-0.3,0.1-0.7,0-0.9,0c0,0,0.7,0,1-0.5c0.1-0.2,0.4-1.1,0.8-1.6c-0.2,0.1-0.5,0.1-0.8,0.1c0.4-0.1,0.7-0.2,0.9-0.8
				c0.1-0.4,0.3-1,0.4-1.1c0.3,0,0.8-0.2,1.2-0.3c0.2,0.5,0.3,2,2,2.2c1.6,0.2,2.4-0.3,2.7,0.1c0.4,0.5-0.7,1.2-1,1.4
				c-0.3,0.2-0.5,0.4-0.6,0.7c-0.4-0.4-0.8,0-0.7,0.3c-0.4-0.2-0.6,0.1-0.7,0.3c-0.5-0.3-0.8-0.8-1.5-0.8c-0.4,0-0.9,0.2-1,0.7
				c-0.9,0-1.1,0.9-0.8,1.6c-0.2,0.2-0.3,0.6-0.3,1.1c0.2,1,0.8,1.8,1.6,2c-0.4-0.8,0-1.4,0.5-1.2c0.4,0.2,0.7,0.5,1.4,0.8
				c1.2,0.4,2.5-0.1,2.9-0.2c0.5-0.1,1.1,0.2,0.9,1c0.7-0.1,1.2-0.5,1.5-1.1c0.3-0.8,0-1.6-0.8-2v0c0.2,0,0.6,0,1,0l-0.5-0.4
				c0.3,0.2,0.6,0.3,1,0.2c0.1,0,0.2-0.1,0.3-0.1c0,0,0,0.1,0,0.1c-0.2,0.5,0.1,1,0.4,1.2c-0.2,1.1,1.2,2.4,2.4,2.4
				c-0.6-0.6-0.3-1.4,0.4-1.2c0.4,0.1,0.9,0.4,1.5,0.4c1.4,0.1,2.2-0.5,2.8-0.7c0.5-0.2,0.6,0.4,0.5,0.9c1-0.3,1.9-1.1,1.7-2.4
				c-0.1-0.4-0.3-0.9-0.8-1.2c0.1-0.1,0.3-0.3,0.4-0.5c-0.2,0-0.6-0.1-0.6-0.1c0.1,0,0.6,0,0.9-0.5c0.4-0.6,0.4-0.9,0.7-1.5
				c-0.3,0-0.7,0-0.7,0c0.5-0.1,0.7-0.3,0.8-0.7c0.2-0.8,0.5-1.6,0.5-1.6L40.9,30c0.4-0.2,0.6-0.4,0.7-1c0.1-1,0.3-1.5,0.3-1.5
				l-0.6,0.2c0,0,0.4-0.2,0.4-0.8c0.1-1.2,0.2-1.9,0.2-1.9c-0.5,0.3-0.9,0.4-0.9,0.4c0.4-0.5,0.8-2.1,0-3.1c-1.1,1.7-3,1.3-3.5,2.3
				c-0.1,0.3-0.2,0.7,0.1,1c-0.1,0.1-0.2,0.1-0.3,0.2c-1-0.9,0-2.4,0.2-3.2c0.2-0.7,0.2-1.3,0.1-1.7c0.2,0.1,0.5,0.1,0.6,0.1
				c-0.3-0.4-0.2-1-0.4-1.7c-0.1-0.5-0.3-0.9-0.9-1c0.1-0.2,0-0.4-0.2-0.5c2.1-1.1,3-4.8,0.8-6.7c-2.8-2.3-8,1.3-10.4,1.5
				c-2.4,0.2-2.7-2.1-1.9-2.9c0.6-0.6,1.6-0.8,2-0.7c-0.1,0.6,0.3,1.9,1.9,1.8c3.9,0,5.1-6.3,4.4-8c-1.5,2.8-2.6,3.5-6,3.8
				c-7.4,0.5-5.9,8.3-1,8.4c3,0.1,7.8-3.4,9.3-1.8c0.7,0.8,0.1,1.9-1.1,2.4c-0.1-0.3-0.5-0.3-0.7-0.1c-0.3-0.5-1-0.6-2.6-0.9
				c0,0.2,0.1,0.3,0.1,0.5c-0.6,0.1-1.3,0.2-1.6,0.8c0.1-0.3,0.2-0.6,0.2-0.7c-1.2,0.7-2.2,0.4-2.6,1.3c0,0,0,0,0,0
				c0-0.3,0.1-0.6,0.1-0.6c-0.2,0.1-0.4,0.2-0.5,0.3c-0.4-0.2-0.8-0.5-1.3-0.6c0.1,0.4,0.2,0.7,0.3,1.1c-0.3,0.1-0.6,0.3-0.8,0.7
				c0-0.1,0.1-0.4,0.3-0.7c-1,0.5-1.8,0.1-2.3,0.9c0.1-0.1,0.2-0.4,0.3-0.6c-0.9,0.2-1.6-0.2-2.3,0.3c0,0,0.3-0.3,0.5-0.4
				c-0.7-0.1-1.5-0.4-1.5-0.4c0.1-0.3,0.2-0.5,0.2-0.8c0,0-0.6-0.5-0.9-0.6c0,0,0.2,0,0.5,0c-0.3-0.2-0.4-1-1-1.3
				c0.3-0.1,0.5-0.4,0.6-0.8c0.4-0.8,0.5-2.2,0.1-3.7c-0.4-1.3-1-1.9-1-1.9c-0.1,1-0.5,1.9-1.2,2.7c0-0.5-0.5-1.3-0.9-1.6
				c0.2,0,0.6-0.1,0.6-0.1c-0.7-0.3-1-1.3-1.6-1.8c-0.4-0.3-0.8-0.5-1.4-0.4c-0.1-0.6-0.3-1.2-0.3-1.5c0-0.5,0-1,0.3-1.7
				c-0.8,0.3-1.5,0.7-1.8,1.1c-0.2-1.5-1.9-1.7-2.1-3.8C9.1,1.2,8.8,3.1,8.8,3.1C8,2,7,1.6,6.5,1.4c0.2,0.7-0.2,1.8-0.6,2.4
				C5.6,4.2,5.3,4.5,5.1,4.8c0-0.3-0.1-0.5-0.1-0.6C4.8,5,3.9,5.4,3.5,5.9C3,6.3,2.8,6.7,2.8,7.2L2.6,6.7C2.5,7.1,2.1,8.1,2,8.7
				c-0.1,0.9,0.3,1.9,1.1,2.6c-0.3,0-0.5,0.1-0.7,0.1c-0.6,0-0.8-0.7-1.4-0.6c0.3,0.5-0.4,1.6,0.2,2.2c-0.2,0-0.3-0.1-0.5-0.2
				c0.1,0.4,0.2,1,0.4,1.3c0.3,0.7,0.7,0.7,0.8,0.8c0,0.1,0,0.7-0.8,0.3c-0.7-0.4-1.1,0.3-1.2,0.5c0.7,0,1,0.9,1.7,1.2
				c0.6,0.3,1.3,0.3,1.8-0.2c0.3,0.4,0.9,0.3,1,0c0.2,0.1,0.4,0,0.5-0.2c0-0.1,0-0.2,0-0.3c0.5,0.2,1.1,0.2,1.4,0.2
				c-0.2-0.2-0.6-0.8-0.8-1.3C6,14.7,6.5,14.4,6.8,14c0.1-0.1,0.1-0.2,0.1-0.3c0.6,1.7-0.8,1.9-0.1,2.8C7,16,7.6,16,8,15.7
				c0.5-0.5,0.3-1.2,0.6-1.4c0,0.2,0,0.4,0,0.5c0,0.5,0.2,0.9,0.2,1.2c-0.3,0.2-1,0.3-1.4,0.4c0.3,0.5,1,0.7,1.1,0.8
				c0,0.2,0,0.3,0.1,0.4c0.2,0.1,0.5,0.1,0.7-0.1c0.6,0.2,1.1,0.1,1.4-0.1c0.8-0.8,0.1-2-0.1-3.3C10.9,14,11,14,11.2,14z M35,33.5
				c-0.3-0.2-0.6,0.1-0.6,0.4c-0.2-0.2-0.5,0-0.6,0.2c-0.3-0.1-0.7-0.3-1-0.5c0.2-0.3,0.3-0.6,0.7-0.9l-0.9-0.1
				c0.2,0,0.9,0.1,1.2-0.5c0.2-0.3,0.4-0.7,0.7-1.2l-0.7,0c0.4-0.1,0.5-0.2,0.6-0.5c0.1-0.3,0.3-0.7,0.3-0.9c0.6,0.3,0.6,0.6,0.7,1
				C35.4,32.1,34.6,32.7,35,33.5z"/>
			<path class="st2" d="M11.2,14c0.3,0.3,0.5,0.6,0.6,1c0.3,1.5-1.2,3.2-1.6,5.2C10,20.4,9,21.8,10,23c-0.3,0.1-0.3,0.5-0.2,1.1
				c0.2,0.5,0.5,0.8,0.9,0.8c0,0.5-0.1,0.7-0.4,0.8c-0.3,0.1-0.7-0.3-1-0.4c-0.2-0.1-0.3,0-0.3,0c0.4-0.8-0.1-1.1-0.4-0.9
				c0.2-0.4-0.1-0.7-0.4-0.8c0.1-0.6,0.4-1.2,0.1-1.7c-0.2-0.2-0.5-0.4-1-0.3c-0.4-0.7-1.5-0.7-2.1,0c-1.3,0-2,1.8-1.8,2.7
				c0.8-1,1.5-0.6,1.5-0.1c0,0.5-0.2,0.8-0.2,1.6c0.1,1.4,1.2,2,1.3,2.6c0.1,0.4-1,0.5-1,0.5c0.6,0.8,1.7,1.2,2.4,1.1
				c0.7-0.1,1.1-0.5,1.4-0.8c0,0,0.9,0.7,1.2,1.1c0,0,0.1-0.3,0.2-0.6c0,0.4,0,0.6,0.3,0.8c0.7,0.3,1.6,0.5,2,0.7l-0.1-0.7
				c0,0,0.1,0.7,0.8,0.8c0.6,0.1,1.4,0.1,1.4,0.1c0,0.9-0.2,1.3-0.4,1.8c-0.2-0.1-0.6-0.1-0.8,0.3c-0.3-0.1-0.5,0.1-0.5,0.1
				c-0.7-0.4-1.3-1.1-2-0.9c-0.5,0.1-0.8,0.4-1,0.9c-0.8,0.2-0.9,1.2-0.6,1.9c-0.1,0.3-0.2,0.6-0.1,1c0.2,0.9,1.1,1.9,1.9,2
				c-0.4-0.8-0.1-1.5,0.5-1.1c0.3,0.2,0.6,0.4,1.1,0.6c1.4,0.6,2.7,0.1,3.4-0.1c0.6-0.2,0.8,0.3,0.6,0.8c0.5-0.1,1.7-0.6,1.7-1.8
				c0-0.6-0.4-1.1-0.7-1.3h0c0.5-0.1,0.8-0.4,1.2-0.7c-0.2,0-0.4-0.1-0.7-0.2c0,0,0.5,0.1,0.8-0.1c0.3-0.2,0.8-1.2,1.2-1.6
				c-0.3,0.1-0.7,0-0.9,0c0,0,0.7,0,1-0.5c0.1-0.2,0.4-1.1,0.8-1.6c-0.2,0.1-0.5,0.1-0.8,0.1c0.4-0.1,0.7-0.2,0.9-0.8
				c0.1-0.4,0.3-1,0.4-1.1c0.3,0,0.8-0.2,1.2-0.3c0.2,0.5,0.3,2,2,2.2c1.6,0.2,2.4-0.3,2.7,0.1c0.4,0.5-0.7,1.2-1,1.4
				c-0.3,0.2-0.5,0.4-0.6,0.7c-0.4-0.4-0.8,0-0.7,0.3c-0.4-0.2-0.6,0.1-0.7,0.3c-0.5-0.3-0.8-0.8-1.5-0.8c-0.4,0-0.9,0.2-1,0.7
				c-0.9,0-1.1,0.9-0.8,1.6c-0.2,0.2-0.3,0.6-0.3,1.1c0.2,1,0.8,1.8,1.6,2c-0.4-0.8,0-1.4,0.5-1.2c0.4,0.2,0.7,0.5,1.4,0.8
				c1.2,0.4,2.5-0.1,2.9-0.2c0.5-0.1,1.1,0.2,0.9,1c0.7-0.1,1.2-0.5,1.5-1.1c0.3-0.8,0-1.6-0.8-2v0c0.2,0,0.6,0,1,0l-0.5-0.4
				c0.3,0.2,0.6,0.3,1,0.2c0.1,0,0.2-0.1,0.3-0.1c0,0,0,0.1,0,0.1c-0.2,0.5,0.1,1,0.4,1.2c-0.2,1.1,1.2,2.4,2.4,2.4
				c-0.6-0.6-0.3-1.4,0.4-1.2c0.4,0.1,0.9,0.4,1.5,0.4c1.4,0.1,2.2-0.5,2.8-0.7c0.5-0.2,0.6,0.4,0.5,0.9c1-0.3,1.9-1.1,1.7-2.4
				c-0.1-0.4-0.3-0.9-0.8-1.2c0.1-0.1,0.3-0.3,0.4-0.5c-0.2,0-0.6-0.1-0.6-0.1c0.1,0,0.6,0,0.9-0.5c0.4-0.6,0.4-0.9,0.7-1.5
				c-0.3,0-0.7,0-0.7,0c0.5-0.1,0.7-0.3,0.8-0.7c0.2-0.8,0.5-1.6,0.5-1.6L40.9,30c0.4-0.2,0.6-0.4,0.7-1c0.1-1,0.3-1.5,0.3-1.5
				l-0.6,0.2c0,0,0.4-0.2,0.4-0.8c0.1-1.2,0.2-1.9,0.2-1.9c-0.5,0.3-0.9,0.4-0.9,0.4c0.4-0.5,0.8-2.1,0-3.1c-1.1,1.7-3,1.3-3.5,2.3
				c-0.1,0.3-0.2,0.7,0.1,1c-0.1,0.1-0.2,0.1-0.3,0.2c-1-0.9,0-2.4,0.2-3.2c0.2-0.7,0.2-1.3,0.1-1.7c0.2,0.1,0.5,0.1,0.6,0.1
				c-0.3-0.4-0.2-1-0.4-1.7c-0.1-0.5-0.3-0.9-0.9-1c0.1-0.2,0-0.4-0.2-0.5c2.1-1.1,3-4.8,0.8-6.7c-2.8-2.3-8,1.3-10.4,1.5
				c-2.4,0.2-2.7-2.1-1.9-2.9c0.6-0.6,1.6-0.8,2-0.7c-0.1,0.6,0.3,1.9,1.9,1.8c3.9,0,5.1-6.3,4.4-8c-1.5,2.8-2.6,3.5-6,3.8
				c-7.4,0.5-5.9,8.3-1,8.4c3,0.1,7.8-3.4,9.3-1.8c0.7,0.8,0.1,1.9-1.1,2.4c-0.1-0.3-0.5-0.3-0.7-0.1c-0.3-0.5-1-0.6-2.6-0.9
				c0,0.2,0.1,0.3,0.1,0.5c-0.6,0.1-1.3,0.2-1.6,0.8c0.1-0.3,0.2-0.6,0.2-0.7c-1.2,0.7-2.2,0.4-2.6,1.3c0,0,0,0,0,0
				c0-0.3,0.1-0.6,0.1-0.6c-0.2,0.1-0.4,0.2-0.5,0.3c-0.4-0.2-0.8-0.5-1.3-0.6c0.1,0.4,0.2,0.7,0.3,1.1c-0.3,0.1-0.6,0.3-0.8,0.7
				c0-0.1,0.1-0.4,0.3-0.7c-1,0.5-1.8,0.1-2.3,0.9c0.1-0.1,0.2-0.4,0.3-0.6c-0.9,0.2-1.6-0.2-2.3,0.3c0,0,0.3-0.3,0.5-0.4
				c-0.7-0.1-1.5-0.4-1.5-0.4c0.1-0.3,0.2-0.5,0.2-0.8c0,0-0.6-0.5-0.9-0.6c0,0,0.2,0,0.5,0c-0.3-0.2-0.4-1-1-1.3
				c0.3-0.1,0.5-0.4,0.6-0.8c0.4-0.8,0.5-2.2,0.1-3.7c-0.4-1.3-1-1.9-1-1.9c-0.1,1-0.5,1.9-1.2,2.7c0-0.5-0.5-1.3-0.9-1.6
				c0.2,0,0.6-0.1,0.6-0.1c-0.7-0.3-1-1.3-1.6-1.8c-0.4-0.3-0.8-0.5-1.4-0.4c-0.1-0.6-0.3-1.2-0.3-1.5c0-0.5,0-1,0.3-1.7
				c-0.8,0.3-1.5,0.7-1.8,1.1c-0.2-1.5-1.9-1.7-2.1-3.8C9.1,1.2,8.8,3.1,8.8,3.1C8,2,7,1.6,6.5,1.4c0.2,0.7-0.2,1.8-0.6,2.4
				C5.6,4.2,5.3,4.5,5.1,4.8c0-0.3-0.1-0.5-0.1-0.6C4.8,5,3.9,5.4,3.5,5.9C3,6.3,2.8,6.7,2.8,7.2L2.6,6.7C2.5,7.1,2.1,8.1,2,8.7
				c-0.1,0.9,0.3,1.9,1.1,2.6c-0.3,0-0.5,0.1-0.7,0.1c-0.6,0-0.8-0.7-1.4-0.6c0.3,0.5-0.4,1.6,0.2,2.2c-0.2,0-0.3-0.1-0.5-0.2
				c0.1,0.4,0.2,1,0.4,1.3c0.3,0.7,0.7,0.7,0.8,0.8c0,0.1,0,0.7-0.8,0.3c-0.7-0.4-1.1,0.3-1.2,0.5c0.7,0,1,0.9,1.7,1.2
				c0.6,0.3,1.3,0.3,1.8-0.2c0.3,0.4,0.9,0.3,1,0c0.2,0.1,0.4,0,0.5-0.2c0-0.1,0-0.2,0-0.3c0.5,0.2,1.1,0.2,1.4,0.2
				c-0.2-0.2-0.6-0.8-0.8-1.3C6,14.7,6.5,14.4,6.8,14c0.1-0.1,0.1-0.2,0.1-0.3c0.6,1.7-0.8,1.9-0.1,2.8C7,16,7.6,16,8,15.7
				c0.5-0.5,0.3-1.2,0.6-1.4c0,0.2,0,0.4,0,0.5c0,0.5,0.2,0.9,0.2,1.2c-0.3,0.2-1,0.3-1.4,0.4c0.3,0.5,1,0.7,1.1,0.8
				c0,0.2,0,0.3,0.1,0.4c0.2,0.1,0.5,0.1,0.7-0.1c0.6,0.2,1.1,0.1,1.4-0.1c0.8-0.8,0.1-2-0.1-3.3C10.9,14,11,14,11.2,14z M2.5,9.7
				c-0.2-0.5-0.1-1.2,0.2-2c0.1,0.4,0.5,0.8,0.8,1C3.1,8.1,3.1,7.5,3.2,7.2C3.3,6,4.5,5.7,4.9,5.1c0,0.4,0.1,0.8,0.3,1.2
				c0-0.7,0.3-1.4,0.8-2.1C6.3,3.9,6.9,3.1,6.9,2c0.8,0.4,2,1.3,1.9,2.7C8.7,5.8,7.8,5.9,7.4,5.7C6.7,5.5,6.7,4.6,7.2,4.4
				C7.7,4.2,8,4.5,8,4.7c0.1-0.5-0.4-0.8-0.9-0.6C6.4,4.5,6.3,5.5,7.1,6C5.6,6.6,4.5,8,4.4,9.5c-0.1,0.9,0.2,1.8,0.7,2.5
				c0,0.3,0,0.6-0.2,0.9c-0.1-0.5-0.2-0.9-0.4-1.1l0,0C3.9,11,3.2,11.3,2.5,9.7z M9.6,10.3C9.7,9.5,9.2,8.9,9,8.5
				C8.9,8.1,8.9,7.8,8.9,7.8S8.5,8,8.4,8.9C8.3,9.6,8,9.8,8,9.8S7.9,9.6,7.7,9.5c0-0.2-0.1-0.4-0.1-0.5c0.1-1,1-1.7,2-1.6
				c1,0.1,1.8,0.9,1.7,1.9c0,0.4-0.2,0.7-0.4,0.9c-0.2-0.6-0.7-0.9-0.9-1.1C10.1,9.6,9.8,10.2,9.6,10.3z M10.8,12.5
				c0.3-0.8,0.3-1.4,0.2-1.9c0.4-0.4,0.6-0.8,0.6-1.3c0.1-1.2-0.8-2.2-2-2.3C9.1,6.9,8.5,7.1,8,7.5C7.6,7.9,7.4,8.4,7.3,8.9
				c0,0.1,0,0.2,0,0.2C7,9,6.7,8.8,6.3,8.8c0.4,0.8-0.1,1.4-0.5,1.9c-0.1-0.4-0.2-0.8-0.2-1.2c0-1.8,2-3.3,3.7-3.2
				c2,0,3.6,1.6,3.5,3.4C12.7,10.9,12,12,10.8,12.5C10.8,12.5,10.8,12.5,10.8,12.5z M5.2,9.5c0,0.5,0.1,1,0.3,1.5
				c0,0-0.1,0.1-0.1,0.1c-0.1,0.2-0.2,0.3-0.2,0.5c-0.3-0.6-0.5-1.3-0.4-2c0.1-2,2.3-4,4.6-3.6C6.4,6.1,5.2,8.2,5.2,9.5z M1.6,14.2
				c-0.3-0.3-0.3-0.7-0.4-1c0.4,0.2,0.7,0.2,1.1,0.2c-1.4-0.8-0.7-1.7-0.8-2.2c1,1.3,2.2-0.2,2.9,1C4.2,12.1,4,12,3.9,12
				c-0.6-0.2-1.3,0.3-1.5,1c-0.2,0.7,0.2,1.3,0.8,1.5C2.6,14.7,1.9,14.6,1.6,14.2z M4.5,13.5c-0.1,0.5-0.6,0.9-1.1,0.8
				c-0.5-0.1-0.8-0.6-0.6-1.2c0.1-0.5,0.6-0.9,1.1-0.8C4.3,12.4,4.6,13,4.5,13.5z M5.9,16.1C5.5,16,5.2,16,5,15.8
				c0-0.1,0-0.2,0.1-0.3c0.1-0.1,0.2-0.2,0.3-0.3C5.6,15.6,5.9,16.1,5.9,16.1z M8.1,14.5C8,15.8,7.3,15.6,6.9,16
				c-0.1-0.4,0.6-0.7,0.5-1.7c-0.1-0.6-0.2-1.2,0-1.6c0-0.1,0.1-0.2,0.2-0.2c0.1-0.1,0.2-0.1,0.4-0.1c0.4,0,0.5,0.4,0.6,0.8
				C8.5,13.9,8.1,13.8,8.1,14.5z M8.6,16.9c-0.3-0.1-0.6-0.3-0.7-0.4c0.2,0,0.7-0.1,0.9-0.2C8.7,16.5,8.7,16.7,8.6,16.9z M9.3,17.1
				c-0.1,0.2-0.3,0.3-0.5,0.3c-0.1,0-0.1-0.2,0.1-0.4c0.4-0.7-0.1-1.4-0.1-2.1c0-0.6,0.3-2.6-0.8-2.8c-1.2-0.2-1.2,1.5-1.9,2.2
				c-0.6,0.6-1.3,0.7-1.4,1.5c0,0.2,0.1,0.5-0.1,0.5c-0.1,0-0.2,0-0.2-0.2c-0.2-0.4-0.1-0.9,0.2-1.1c0.2-0.2,1-0.6,1.3-1.5
				c0.4-0.9,1.1-2.3,2.2-2.1c1.4,0.3,1,2.6,1.1,3.2C9.3,15.7,9.6,16.4,9.3,17.1z M10.7,16.9c-0.3,0.6-1,0.3-1,0.3
				c0.4-1,0-1.6-0.1-2.8c-0.1-1,0.3-2.9-1.3-3.2c-2-0.4-2.3,2.2-3,2.9c-0.5,0.5-1.1,0.8-1.2,1.5c-0.1,0.6,0.1,0.7,0.2,0.9
				c0,0.2-0.5,0.3-0.6-0.1c0.2-0.5-0.1-0.9-0.5-1c-0.5-0.1-0.8,0.5-0.6,0.8c0-0.1,0.2-0.6,0.6-0.5c0.3,0.1,0.3,0.4,0.2,0.7
				c-0.4,0.8-1.4,0.6-2.1-0.1c-0.2-0.2-0.4-0.5-0.8-0.7c0.5-0.6,1.4,0.6,1.7-0.1c0.5-0.9,1.1-0.3,2-1c1.5-1.2,0.9-2.6,1.6-3.3
				c0.6-0.6,1-1,1-1.9c0,0,0.9,0.3,1,1.1c0,0,0.9-0.6,0.9-1.7c0,0,0.9,1.4,0.4,2.2c0,0,0.8-0.1,1.2-1.2c0.6,0.7,0.7,1.4,0.2,2.8
				C9.9,14.2,11.2,16,10.7,16.9z M14.6,10.5c0,0.7-1.1,2.9-3.9,3.1c0-0.2,0-0.5,0-0.7c1.4-0.5,2.4-1.8,2.4-3.3c0-1.6-1-2.9-2.6-3.5
				C11,6,11.3,5.5,11.3,5.2c0-0.6-0.3-1.2-1-1.1c-0.3,0-0.7,0.4-0.6,0.7c0-0.3,0.3-0.5,0.7-0.5c1,0,0.8,1.7-0.4,1.5
				C9.4,5.8,9.2,5.5,9.1,4.7C9,4,9.1,3.2,9.2,2.6c0.3-1,0.7-1.6,1-1.9c0.4,1.7,2,2,2,3.4c-1.2,1.5-0.5,2.4-0.1,2.6
				c0.6,0.3,1.1,0.1,1.3-0.4c0.1-0.3,0-0.6-0.2-0.8c-0.2-0.1-0.5-0.2-0.7,0c0.8-0.1,0.8,0.8,0.3,0.9c-0.2,0.1-0.6,0.1-0.8-0.4
				c-0.2-0.4-0.2-1.2,0.6-1.9c0.5-0.5,1.3-0.9,1.3-0.9c-0.3,1.2,0.2,2.2,0.3,3.3c0.1,0.8-0.3,1.5-0.7,2c0.8-0.3,1-1.4,1-1.4
				c0.3,0.3,1,3-1.1,3.7C13.7,11,14.2,10.9,14.6,10.5z M4.2,13.2c0,0,0-0.1,0-0.1L4.2,13.2c0.1,0,0.1,0.1,0.1,0.2
				c-0.1,0.4-0.5,0.7-0.8,0.6c-0.4-0.1-0.6-0.5-0.5-0.9c0.1-0.4,0.4-0.6,0.8-0.6l0,0c-0.1,0-0.3,0.1-0.3,0.3c-0.1,0.2,0,0.5,0.2,0.6
				C3.8,13.6,4.1,13.5,4.2,13.2z M37.1,22.6c-0.3,0.7-1.3,2.6,0.2,3.7c0.7-0.7,1.6-0.7,1.9,0.1c0.3,0.8,0,2.9-0.2,4.2
				c-0.6,2.8-1.9,3.6-3.1,3.1c-0.7-0.3-0.6-0.8-0.5-1.1c0.4-1.3,0.5-2.2,0.3-2.6c-0.3-1-1.3-0.8-2.8-1.3c-2.2-0.9-3.4-2-3.7-4.3
				c-0.1-1.2,0-2.1,0.1-3c0.6-0.2,0.9-0.8,0.8-1.6c0-0.5-0.3-1.2-0.9-1.9c1.1-0.3,2.3-0.6,3.5-0.4c0,0,0,0,0.1,0
				c-0.3,1,0.1,1.7,0.1,2.4c0.7-0.2,1.8,0.4,2.5-0.3c0.3,0.6,1.1,1,1.8,1.2C37.3,21.3,37.3,21.9,37.1,22.6z M35,33.5
				c-0.3-0.2-0.6,0.1-0.6,0.4c-0.2-0.2-0.5,0-0.6,0.2c-0.3-0.1-0.7-0.3-1-0.5c0.2-0.3,0.3-0.6,0.7-0.9l-0.9-0.1
				c0.2,0,0.9,0.1,1.2-0.5c0.2-0.3,0.4-0.7,0.7-1.2l-0.7,0c0.4-0.1,0.5-0.2,0.6-0.5c0.1-0.3,0.3-0.7,0.3-0.9c0.6,0.3,0.6,0.6,0.7,1
				C35.4,32.1,34.6,32.7,35,33.5z M34.8,34.7c1.4,1.4,3.6,0.5,3.6,0.5C38,35.7,37,36,36.3,35.9c-1.1-0.1-1.7-0.6-2.1-1.2
				c-0.1-0.2-0.2-0.4,0-0.5C34.4,34.1,34.6,34.4,34.8,34.7z M28.8,24.4c0.2,1.7,0.7,3.3,3.6,4.4c-0.8-0.2-3.8-1-4.1-4.4
				c0-0.5,0-2.4,0-3c0.1,0,0.3,0,0.4,0C28.8,22.1,28.7,23.5,28.8,24.4z M35.1,15.8c1.3-0.8,1.7-2,0.9-2.9c-1.6-1.8-6.6,1.8-9.4,1.8
				c-4.4,0-6-7.2,0.9-7.6c4-0.3,4.9-1.8,5.8-3.1c0.1,1.1-0.9,6.1-3.8,6.5c-1.1,0.2-1.8-0.4-1.9-1.2c0-0.5,0.3-1,0.8-1.1
				c0.4-0.1,1.1,0,1.1,0.9c0.6-0.7-0.3-1.5-1.2-1.3c-0.4,0.1-0.8,0.3-1,0.9c-0.5,0-1.8,0.2-2.5,1C24,10.7,24.4,13.1,27,13
				c2.4-0.1,7.8-3.8,10.3-1.5c1.4,1.3,1.4,3.8-0.1,5.4c-0.4,0.4-0.9,0.8-1.5,0.5c-0.5-0.2-0.7-0.6-0.8-1
				C34.8,15.9,34.9,15.9,35.1,15.8z M34.1,16c0-0.2,0.1-0.3,0.2-0.3c0.1,0,0.2,0.1,0.2,0.3c0,0.4,0,0.7,0.4,1.3
				c0.2,0.3,0.8,0.7,1.4,0.7c0.2,0,0.2,0.1,0.3,0.2c0,0.1,0,0.2-0.2,0.2C35.5,18.6,33.8,17.5,34.1,16z M33.8,15.8
				c0,0-0.3,1.2,0.5,2.1c0.8,0.8,1.8,1.1,2.4,0.8c1.1-0.1,0.9,1.4,1.1,2c0,0-2.1-0.4-2.3-1.6c-0.6,0.9-1.5,0.4-2.2,0.5
				c0-0.6-0.5-1.4,0.2-2.4c-1.9,0.3-1.4-1.8-1.6-2.2C32.9,15.2,33.5,15.2,33.8,15.8z M32,17.2C31,17.1,30,17.4,29,17.7
				c-0.1-0.1-0.2-0.3-0.4-0.4c1.1-0.4,2.1-0.6,3.1-0.6C31.8,16.9,31.9,17.1,32,17.2z M29.7,15.6c0,0-0.1,0.4,0.1,0.7
				c0.5-0.9,1.1-1,1.8-1c0,0.4,0.1,0.8,0.1,1.1c-1.1-0.1-2.2,0.2-3.3,0.6c-0.2-0.2-0.4-0.3-0.6-0.5C28.3,15.9,29,16,29.7,15.6z
				 M29.7,19.8c0.1,0.6-0.3,1.2-0.9,1.2c-0.5,0-1-0.3-1.1-0.8c-0.1-0.5,0.5-1.1,1.2-0.7c-0.1-0.6-1.3-0.6-1.5,0.4
				c-0.1,0.4,0.1,1,0.8,1.3c-0.1,0.9-0.1,2.4,0,3.1c0.2,2.5,1.4,3.8,4.3,4.7c0.7,0.2,1.6,0.3,1.6,0.3c-4.2,0.1-7.7-2.5-7.3-7.3
				c0.3-3.2,0.1-4.4-0.3-5.9C27.3,16.6,29.5,18.1,29.7,19.8z M23.2,27.1c0.2,0.3,0.4,0.5,0.6,0.7c-0.1,0.1-0.2,0.2-0.4,0.2
				c-0.2-0.2-0.4-0.5-0.6-0.8C23,27.2,23.1,27.1,23.2,27.1z M21.7,27.3c0-0.1,0.1-0.3,0.1-0.4c1.6-0.4,2.9-2.2,4.5-2.9
				c0,0.1,0,0.2,0.1,0.3c-0.9,0.4-1.7,1.1-2.6,1.9C23.3,26.7,22.6,27.2,21.7,27.3z M23.5,26.9c0.1-0.1,0.2-0.2,0.3-0.3
				c0.1-0.1,0.3-0.2,0.4-0.4c0.2,0.3,0.3,0.5,0.5,0.7c-0.2,0.2-0.5,0.4-0.7,0.6C23.9,27.4,23.7,27.1,23.5,26.9z M24.5,26
				c0.1-0.1,0.2-0.2,0.3-0.3c0.1,0.3,0.3,0.5,0.5,0.7c-0.1,0.1-0.2,0.2-0.3,0.3C24.8,26.6,24.7,26.3,24.5,26z M25.1,25.5
				c0.3-0.2,0.5-0.4,0.7-0.5c0.1,0.2,0.2,0.5,0.3,0.8c-0.2,0.1-0.4,0.3-0.6,0.4C25.4,26.1,25.3,25.8,25.1,25.5z M26.2,24.8
				c0.1-0.1,0.2-0.1,0.3-0.1c0.1,0.3,0.2,0.6,0.3,0.8c-0.1,0-0.2,0.1-0.2,0.1C26.3,25.4,26.2,25.1,26.2,24.8z M20.9,21.4
				c0.2,0.5,0.1,1,0.1,1c-1.1,0.3-2.1,0.1-2.7-0.4c0.1,0,0.4,0.8,0.1,1.4c-0.6-0.5-1.2-0.4-1.4-1.2c0.3-0.2,0.7-0.6,0.9-0.8
				c0.6,0.5,1.8,0.4,2.3,0.3c0-0.6-0.2-1.8-1-2.2c0.1-0.2,0.3-0.6,0.4-0.9c1.3,0.5,1.3,1.4,1.5,1.8c-0.3,0.1-0.6,0.1-0.9,0
				C20.5,20.6,20.8,20.9,20.9,21.4z M18.1,21.1c0.3-0.4,0.7-0.9,0.9-1.3c0.5,0.3,0.7,0.9,0.8,1.6C19.4,21.5,18.4,21.5,18.1,21.1z
				 M19.7,18.3c0.1-0.2,0.1-0.3,0.1-0.4c2.2,1.4,4.4,0.9,6.4,0.2c0,0.2,0,0.3,0,0.5C24.3,19.4,22.2,19.8,19.7,18.3z M21.2,16.9
				c-0.1,0.2-0.2,0.4-0.3,0.7c1-0.8,1.6-0.4,2.2-0.5c0,0-0.1,0.5,0,0.9c0.6-1.1,1.2-0.8,2.1-1.1c0,0-0.1,0.4,0,0.9
				c0.3-0.6,0.6-0.9,1-1c0.1,0.3,0.1,0.6,0.2,0.9c-2,0.7-4.1,1.2-6.3-0.2c0.1-0.4,0.3-1,0.3-1S20.9,16.8,21.2,16.9z M20.3,15.6
				c-0.9,3-1.8,6.5-7.8,8.5c0.1-0.1,0.5-0.7,0.9-0.9c-0.4,0-0.9-0.2-0.9-0.2c1.8-0.5,3.4-1.2,4.8-2.4c1.4-1.4,2.5-3.6,2.9-5
				L20.3,15.6z M19.8,15.2l0.2,0.1c-0.4,1-1.4,3.5-3,4.9c-1.5,1.4-2.7,1.8-5.1,2.5c-0.2-0.1-0.4,0-0.6,0c0.1-0.3,0.1-0.6-0.1-0.9
				c2.4-0.5,3.4-0.8,5.2-2.2C18.6,18.2,19.8,15.2,19.8,15.2z M12.2,15c0-0.2-0.1-0.3-0.1-0.4l0.4-0.1c0,0.1,0.1,0.2,0.1,0.4
				c0.1,0.3,0.1,0.7,0,1.1l-0.4,0C12.2,15.7,12.2,15.3,12.2,15z M15,10.5c0.2,0.3,0.5,0.8,0.8,1.5c0,0-3.3,4-0.7,8.3
				c-1,0.6-2.2,0.9-3.2,1.1c-0.7-2,1.5-5,1-6.6c-0.1-0.5-0.4-0.9-0.6-1.1C13.7,13.1,14.8,12,15,10.5z M15.2,9
				c0.4,0.6,0.9,1.5,1.1,2.3c0,0-0.2,0.2-0.4,0.4c-0.3-0.8-0.6-1.3-0.9-1.7C15.1,9.6,15.2,9.3,15.2,9z M16.9,14.6
				c0.1-0.2,0.3-0.4,0.3-0.4c0.3,1.2,1,2.1,1.5,2.6c0,0-0.2,0.3-0.3,0.4C18.1,17,17.2,16.2,16.9,14.6z M18.2,17.5
				c-0.3,0.5-0.9,1.1-1.3,1.4c-0.3-0.6-0.4-1-0.5-1.4c-0.1-0.5-0.1-1.7,0.3-2.5C17.1,16.6,18.2,17.5,18.2,17.5z M16.1,17.5
				c0.1,0.8,0.6,1.6,0.6,1.6l-0.3,0.2c0,0-0.4-0.6-0.6-1.6c-0.5-3.2,1.5-4.6,1.5-4.6c0.1,0.1,0.2,0.3,0.2,0.3
				C15.8,15,16.1,17,16.1,17.5z M19.6,14.6c-0.1,0-0.4,0-0.9,0.1c0.7,0,0.9,0.4,0.9,0.4c-0.3,0.5-0.4,0.9-0.8,1.5
				c-0.5-0.5-1.2-1.5-1.4-2.6c0.1-0.2,0.4-0.4,0.4-0.4c0.4,0.2,0.7,0.2,0.7,0.2C19.4,13.8,19.6,14.5,19.6,14.6z M19,7.9
				c0,0,0.8,1.2,0.8,3.1c0,1.3-0.5,2.1-1.1,2.2c-1,0.2-1.2-0.7-1.2-0.9c0-0.4,0.5-1.1,1.3-0.5c-0.1-0.7-1.5-0.7-1.7,0.3
				c0,0.2,0,0.4,0.1,0.6c-1.1,1-1.6,2-1.7,3.6c-0.1,0.8,0.1,2.1,0.7,3.2c0,0-0.6,0.4-0.8,0.5c-1.8-2.8-0.6-5.9,0.2-7.2
				C16.9,10.8,18.3,10.5,19,7.9z M14.5,6.3c0.3,0,0.8,0,1.2,0.5c0.4,0.4,0.5,0.8,0.9,1.2c0,0-0.4,0-0.7,0.2c0,0,0.8,0.1,1.2,1
				c0.2,0.5,0.3,0.8,0.3,1c0,0.1-0.1,0.1-0.2,0.2C17,10.6,16.6,11,16.6,11c-0.3-0.8-0.8-1.8-1.4-2.6C15.2,7.6,14.9,6.9,14.5,6.3z
				 M11.9,13.8c0.2,0.1,0.3,0.3,0.4,0.4l-0.4,0.1c-0.1-0.2-0.2-0.3-0.3-0.4 M11.6,13.9c0.1,0,0.2-0.1,0.4-0.1 M12,16.4l0.4,0
				c-0.2,0.6-0.4,1.3-0.7,2l-0.5-0.1C11.6,17.6,11.9,17,12,16.4z M11.1,18.6l0.5,0.1c-0.2,0.5-0.3,1-0.3,1.5L10.6,20
				C10.7,19.6,10.9,19.1,11.1,18.6z M11.3,20.6c0,0.3,0,0.6,0.1,0.8c-0.2,0-0.4,0.1-0.4,0.1c-0.2-0.2-0.4-0.5-0.5-0.9
				c0,0,0-0.1,0-0.1L11.3,20.6z M9.9,22.2c-0.2-0.7,0.2-1.3,0.3-1.5c0.2,0.8,0.9,1.1,0.9,1.7c0,0.3-0.2,0.7-0.2,0.7s0.4-0.2,0.8-0.1
				c0.4,0.1,0.7,0.2,1,0.3c-0.2,0.3-0.5,0.7-0.9,0.9c-0.3,0.1-0.6,0.2-0.6,0.2s0.6,0.1,0.7,0.7c0.1,0.6-0.1,1.2,0,1.5
				c-0.4-0.5-0.8-0.8-1-1.4c0.2-1.3,0.1-1.5-0.1-1.8C10.6,23,10.1,22.8,9.9,22.2z M12.4,25.2c0,0,0.4,0.6,0.9,1.1
				c0,0.6,0.2,1.1,0.4,1.5c-0.5-0.2-0.9-0.5-1.3-0.9C12.1,26.3,12.5,26,12.4,25.2z M10.1,24c-0.2-0.3-0.1-0.7,0-0.8
				c0.6,0.2,0.6,1.2,0.5,1.3C10.6,24.6,10.3,24.4,10.1,24z M9,25.6c0.3-0.1,0.4,0.1,0.7,0.3c0.9,0.4,1.1-0.2,1.1-0.2
				c0.7,1.2,1.5,1.9,3.1,2.7c0,0.1,0.1,0.3,0.1,0.4c-1.2,0.4-2.8-0.1-3.7-0.6c-0.6-0.3-1.3-1-1.4-1.8C8.8,26,8.8,25.6,9,25.6z
				 M8.2,24.3c-0.2,0.2-0.8,1-0.7,2.2c0,0,0.1-0.3,0.3-0.4c0,0-0.6,0.8,0.5,2.1c-2-1.2-1.1-4-0.5-4.3C8.2,23.7,8.5,24.1,8.2,24.3z
				 M7.2,29.5c-0.6,0-1.2-0.3-1.4-0.5c0.7-0.2,0.8-0.9,0.3-1.5c-0.3-0.3-0.9-1.1-0.9-1.9c-0.1-0.8,0.2-1.1,0.2-1.7
				c-0.1-0.7-0.9-0.9-1.4-0.5c0.2-0.7,0.7-1.5,1.5-1.4c0.8,0.1,0.5,1,0.9,1.5c0-0.7,0.3-1.5-0.6-1.9c0.5-0.4,1.1-0.2,1.3,0
				c0.4,0.5,0.1,1.2,0.3,1.6c0.1-0.4,0.3-0.8,0.2-1.4c0.4,0,0.6,0.2,0.7,0.5C8.2,22.6,8,23,7.9,23.5c-0.8,0.2-1.2,1.6-1.2,2.5
				c0,1.3,0.7,2.2,1.8,2.7C8.3,29.2,7.7,29.5,7.2,29.5z M13.1,30.6c-0.6-0.2-0.8-0.7-0.8-1c-0.1,0.4-0.2,0.9-0.2,0.9
				c-0.2,0-1.1-0.3-1.5-0.5c-0.4-0.2-0.4-0.6-0.4-1.1c-0.2,0.3-0.3,0.6-0.3,0.6s-1.7-1-1.3-2c-0.2,0.1-0.3,0.4-0.3,0.4
				S7.5,26.7,8.1,26c-0.1-0.1-0.4,0-0.4,0s0.1-0.6,0.4-1c0.2-0.2,0.4-0.5,0.6-0.4c0.1,0.1,0.2,0.2-0.1,0.6c-0.4,0.5-0.3,1.2-0.2,1.5
				c0.3,1,1.6,1.9,2.6,2.1c0.8,0.2,1.9,0.5,2.9,0.2c0.2,0.5,0.4,1.3,0.4,1.7C14.2,30.8,13.6,30.8,13.1,30.6z M12.8,33.6
				c0,0,0.1-0.1,0.2,0c0.1,0,0.1,0.2,0.1,0.2c0.1,2.3,2.9,2.3,4,1.8c-0.1,0.2-1.1,0.9-2.6,0.7c-0.7-0.1-1.3-0.5-1.6-1.1
				C12.7,34.7,12.5,34,12.8,33.6z M18,36.8c0,0.5-0.3,1-0.9,1.2c0-0.2-0.2-0.8-0.9-0.7c-0.3,0-2.3,0.8-3.4,0.2
				c-0.5-0.3-0.9-0.5-1.2-0.7c-0.6-0.3-1.3,0-1.2,0.8c-0.5-0.4-0.7-1-0.8-1.2c-0.1-0.4,0-0.8,0.2-1c0.6-0.6,1.5,0,2-0.1
				c-0.4-0.1-1.3-0.8-2.2-0.2c-0.2-0.3-0.1-1.2,0.6-1.1c0.4,0,1.3,0.4,1.6,0.4c-0.3-0.2-0.9-0.7-1.6-0.8c0.1-0.4,0.4-0.6,0.8-0.6
				c0.5,0,0.8,0.4,1.6,0.8c-0.3,0.7,0,2.1,1.1,2.6c0.7,0.3,2.5,0.7,3.8-0.5C17.6,35.8,18,36.2,18,36.8z M20.8,30.3
				c-0.3,0.5-0.8,0.6-1.2,0.6c0.3,0.1,1,0.2,1,0.2s-0.2,0.6-0.4,1c-0.3,0.7-1.3,0.7-1.3,0.7s0.4,0.2,0.9,0.2c-0.1,0.3-0.5,0.8-0.6,1
				c-0.1,0.1-0.4,0.5-1.3,0.3c0.4,0.3,0.6,0.4,0.6,0.4c-0.4,0.2-0.7,0.4-1.3,0.6c-0.9,0.2-1.1-0.3-1.1-0.3s-0.1,0.3,0.2,0.4
				c0,0-1.9,0.2-2.5-0.7c-0.4-0.6-0.4-1-0.3-1.3c0.1-0.4,0.5-0.3,0.4-0.2c0,0.4,0,0.8,0.5,1.3c0.4,0.4,1.3,0.8,2.7-0.1
				c1.6-1.2,2.2-3.6,1.4-5.5c0.4-0.4,0.6-0.7,0.6-1.3c0-0.7-0.4-1.2-0.6-1.2c0,0,0.3,0.5,0.3,1.1c0,0.5,0,1-0.7,1.4
				c0.9,1.7,0.5,4.1-1,5.3c-0.5,0.4-1.4,0.7-2,0.4c-0.7-0.3-0.8-1.1-0.5-1.6c1-2.1,0-4.2-0.3-4.9c-0.7-1.9-0.4-2.8-0.4-2.8
				c-0.2,0.1-0.3,0.4-0.4,0.6c-0.3-0.2-1-1.3-1-1.3c2.4-0.9,3.6-1.5,4.4-2.1c0.3,0.8,1,0.6,1.8,1.4c0.2-0.3,0.3-0.6,0.3-1.2
				c1,0.4,1.8,0.1,2.6,0.1c0-0.6,0-1.4-0.4-1.9c0.2,0,0.4-0.1,0.6-0.1c-0.4-0.7-0.4-1.1-0.8-1.5c2.1,0.7,3.8,0.3,5.5-0.3
				c0,1.1-0.1,2-0.1,3.1c0,0.6,0,1.2,0,1.7c-1.7,0.7-3.2,2.6-4.4,2.8c0.1-0.2,0.2-0.6,0.3-0.8c-0.2,0.1-0.3,0.1-0.8,0.3
				c1.4-0.8,0.9-3.2,0.9-3.2c-1.3,1.1-2.5,1.2-3.1,1.5c-0.3,0.1-0.6,0.3-0.7,0.6c-0.2,0.5,0,1.2,0.4,1.4c-0.3-0.4-0.4-1.5,0.6-1.7
				c0.9-0.2,1.6-0.4,2.5-1c0.3,1.7-1.1,2.6-1.5,2.8c0.4,0,0.8,0,1.2-0.2c0,0-0.3,1.2-0.4,1.6c-0.4,1.1-1.3,1.2-1.3,1.2
				s0.8,0.1,1.2,0C21,29.6,20.9,30,20.8,30.3z M21.1,28.8c0.3-0.2,0.4-0.5,0.5-0.8c0,0,0-0.1,0.1-0.2c0,0.3,0.2,0.6,0.2,0.9
				C21.6,28.7,21.3,28.8,21.1,28.8z M23,28.3c-0.3,0.1-0.5,0.2-0.8,0.3c-0.2-0.3-0.3-0.7-0.3-1c0.2,0,0.4-0.1,0.7-0.2
				c0.1,0.2,0.4,0.6,0.6,0.8C23.1,28.2,23,28.2,23,28.3z M26.8,32.6c1.2-0.8,1.4-1.4,1.1-1.8c-0.6-0.9-3.5,0.8-4.4-1.4
				c-0.1-0.4-0.2-0.6-0.2-1c1.3-0.7,2.4-2.1,3.6-2.8c1.1,2.4,3.4,3.5,5.4,3.8c-0.2,1-0.8,2.9-2.2,4.1c-1,0.8-2.5,0.8-3.2,0.2
				C26.3,33.7,25.8,33.2,26.8,32.6z M24.8,33.9c0-0.3,0.3-0.3,0.3-0.1c0.8,2.1,2.9,1.9,3.3,1.8c-0.3,0.4-2.7,0.7-3.5-0.9
				C24.8,34.4,24.8,34.1,24.8,33.9z M29.4,37.2c-0.1,0.4-0.3,0.8-0.8,1c0-0.7-0.7-1-1.4-0.9c-0.7,0.2-1.7,0.5-2.3,0.3
				c-1-0.2-1.2-0.6-1.7-0.9c-0.5-0.3-1.2-0.1-1.2,0.8c-0.4-0.4-0.6-1-0.6-1.5c0-0.3,0.2-0.7,0.6-0.8c0.8-0.2,1.4,0.3,1.8,0.2
				c-0.4-0.3-1.3-0.9-2.2-0.5c-0.1-0.4,0-1,0.6-1c0.7,0,1.2,0.6,1.7,0.5c-0.5-0.4-1.1-0.8-1.4-0.8c0-0.2,0.2-0.4,0.5-0.4
				c0.7-0.1,0.9,0.5,1.6,0.9c0.1,0.9,0.6,1.4,1.3,1.8c0.7,0.4,2.3,0.6,2.9,0v0C29.2,36.1,29.5,36.6,29.4,37.2z M31,34.8
				c-0.2,0.1-0.5,0.3-0.7,0.3c-0.3,0.1-0.8,0.1-1.3-0.3c0.1,0.4,0.2,0.5,0.2,0.5c-0.3,0-1.1,0-1.5,0c-0.6-0.1-0.6-0.5-0.6-0.5
				s-0.1,0.2,0.1,0.5c-0.9-0.2-1.5-0.9-1.7-1.6c-0.1-0.2-0.1-0.4,0.1-0.4c0.1,0,0.2,0.1,0.3,0.2c0.6,1.2,2.8,1.9,4.6,0.3
				c1.5-1.3,2-3.3,2.2-4.1c0.4,0.1,0.8,0.1,1.2,0.1l0.6-0.1c-0.1,0.2-0.2,0.5-0.3,0.8c-0.2,0.5-0.9,0.6-1.3,0.6c0,0,0.2,0.1,1.1,0.1
				c0,0-0.2,0.5-0.5,0.9c-0.3,0.5-1.1,0.5-1.4,0.5c0,0,0.3,0.3,0.8,0.4c-0.1,0.2-0.3,0.4-0.4,0.6c0,0-0.1,0-0.1,0
				c-0.5,0-0.9,0.3-1,0.6c-0.2,0-0.4,0-0.5-0.1c0.1,0.2,0.3,0.3,0.5,0.4c0,0.1,0,0.1,0,0.2C31.2,34.6,31.1,34.6,31,34.8z M40,36
				c0.2,0.8-0.5,1.6-1,1.7c0-0.5-0.2-0.8-0.5-0.8c-0.7-0.1-1.3,0.9-3.1,0.8c-0.6,0-1.1-0.3-1.5-0.4c-0.7-0.2-1.2,0.2-1.2,1.1
				c-1-0.5-1.4-1.4-1.1-1.9c0.5-0.8,1.2-0.3,2-0.5c-0.4-0.1-1.6-0.7-2.4,0.3c-0.4-0.4-0.2-1,0.1-1.2c0.6-0.3,1.5,0.1,2,0
				c-0.4-0.1-1.1-0.5-1.8-0.4c0-0.3,0.2-0.6,0.6-0.7c0.5-0.1,1.2,0.4,1.7,0.6c0.1,0.8,1,1.5,1.9,1.7c2,0.5,3.1-0.7,3.3-1
				c0.1,0,0.2-0.1,0.3-0.2C39.7,35.2,39.9,35.7,40,36z M41.1,30.1c0,0-0.2,0.8-0.4,1.2c-0.2,0.5-0.8,0.8-1.3,0.7c0,0,0.3,0.2,1,0.2
				c0,0-0.3,0.9-0.6,1.2c-0.4,0.4-0.6,0.5-1.3,0.4c0.4,0.2,0.8,0.3,0.9,0.4c-0.4,0.4-0.9,0.6-1.6,0.7c-0.7,0.1-1-0.4-1-0.4
				s0,0.4,0.3,0.5c-0.8,0.1-1.7-0.1-2.3-1c-0.1-0.1-0.1-0.3,0-0.4c0.1,0,0.2,0,0.4,0.1c2.4,1.4,3.9-0.8,4.2-3.3
				c0.2-1.5,0.5-3.3,0.2-4.2c-0.3-0.9-1.2-0.9-1.6-0.8c-0.1-0.1-0.2-0.5,0-0.9c0.4-0.6,1.6-0.2,2.9-1.6c0.3,0.4,0.2,2.4-1,2.9
				c0,0,0.8-0.1,1.4-0.4c0,0.3-0.1,0.9-0.1,1.3c0,0.8-0.5,1.1-1.1,1.3c0.6,0.1,1.2-0.1,1.2-0.1c-0.2,1.3-0.1,2-1.5,2.2
				C40,30.1,40.4,30.3,41.1,30.1z"/>
		</g>
	</g>
</g>
</svg>
