<?xml version="1.0" encoding="utf-8"?>
<!-- Generator: Adobe Illustrator 22.0.1, SVG Export Plug-In . SVG Version: 6.00 Build 0)  -->
<svg version="1.1" id="Layer_1" xmlns="http://www.w3.org/2000/svg" xmlns:xlink="http://www.w3.org/1999/xlink" x="0px" y="0px"
	 viewBox="0 0 81.8 30.4" style="enable-background:new 0 0 81.8 30.4;" xml:space="preserve">
<style type="text/css">
	.st0{fill:#FFFFFF;}
	.st1{fill:#FFA400;}
</style>
<g>
	<path d="M54.5,22.2v-5.7h5.2c0.9,0,1.6-0.5,1.6-1.3v-1.7h-6.8V8.2h9V5H49.9v20.5h13.7v-3.3H54.5z M37.2,10.7c0-2.3,2.1-2.9,3.9-2.9
		c2.3,0,4.4,0.7,5.7,1.5V6.1c-1.3-1-3.6-1.5-5.7-1.5c-4.4,0-8.3,1.5-8.3,6.4c0,7.3,10.9,4.6,10.9,8.8c0,2.3-2.2,2.8-4.3,2.8
		c-2.3,0-4.5-0.6-6.4-1.7v3.3c1.3,0.9,3.5,1.7,6.3,1.7c3.1,0,9.1-1.1,9.1-6.4C48.1,11.9,37.2,14.7,37.2,10.7 M65.1,5v3.3h6.1v17.2
		h4.6V8.3h6V5H65.1z"/>
	<path class="st0" d="M0,15.2C0,6.8,6.8,0,15.2,0c8.4,0,15.2,6.8,15.2,15.2c0,8.4-6.8,15.2-15.2,15.2C6.8,30.4,0,23.6,0,15.2"/>
	<path d="M15.2,29.7c7.8,0,14.1-6.1,14.5-13.9c0,0-1.3,0-1.3,0c-0.6,0-1,0.4-1.1,0.8c-0.6,2.6-3,4.5-5.7,4.5c-2.4,0-4.4-1.4-5.4-3.5
		c-0.7-1.3-2-1.8-3.2-1.8H0.7C1.1,23.5,7.4,29.7,15.2,29.7"/>
	<path class="st1" d="M15.2,0.7C7.4,0.7,1.1,6.9,0.7,14.6c0,0,1.3,0,1.3,0c0.6,0,1-0.4,1.1-0.8c0.6-2.6,3-4.5,5.7-4.5
		c2.4,0,4.4,1.4,5.4,3.5c0.7,1.3,2,1.8,3.2,1.8h12.2C29.4,6.9,23,0.7,15.2,0.7"/>
</g>
</svg>
