<?xml version="1.0" encoding="utf-8"?>
<!-- Generator: Adobe Illustrator 22.0.1, SVG Export Plug-In . SVG Version: 6.00 Build 0)  -->
<svg version="1.1" id="Layer_1" xmlns="http://www.w3.org/2000/svg" xmlns:xlink="http://www.w3.org/1999/xlink" x="0px" y="0px"
	 viewBox="0 0 60.6 37.6" style="enable-background:new 0 0 60.6 37.6;" xml:space="preserve">
<style type="text/css">
	.st0{fill:#4D4D4D;}
	.st1{fill-rule:evenodd;clip-rule:evenodd;fill:#ED3538;}
</style>
<g>
	<g>
		<path class="st0" d="M13.6,35.4c-0.2,0-0.3,0-0.5,0c-0.3,0-0.5,0-0.7-0.1c-0.2-0.1-0.3-0.2-0.4-0.4c-0.1-0.2-0.1-0.4-0.1-0.6
			c0-0.2,0-0.5,0-0.7v-3.2h-1.1v-0.6h1.1v-1.3l0.7-0.2v1.6h1.2v0.6h-1.2V34c0,0.1,0,0.2,0,0.4c0,0.1,0.1,0.2,0.1,0.3
			c0.1,0.1,0.1,0.1,0.2,0.2c0.1,0.1,0.2,0.1,0.3,0.1c0.1,0,0.3,0,0.3,0c0.1,0,0.2-0.1,0.3-0.1l0,0.6C13.8,35.3,13.7,35.4,13.6,35.4z
			"/>
		<path class="st0" d="M19.7,32.6c0,0.4-0.1,0.7-0.2,1.1c-0.1,0.3-0.3,0.7-0.5,0.9c-0.2,0.3-0.5,0.5-0.8,0.6
			c-0.3,0.2-0.7,0.2-1.1,0.2c-0.4,0-0.8-0.1-1.2-0.2c-0.3-0.2-0.6-0.4-0.8-0.6c-0.2-0.3-0.4-0.6-0.5-0.9c-0.1-0.3-0.2-0.7-0.2-1.1
			c0-0.4,0-0.7,0.2-1.1c0.1-0.3,0.3-0.7,0.5-0.9c0.2-0.3,0.5-0.5,0.8-0.6c0.3-0.2,0.7-0.2,1.2-0.2c0.4,0,0.8,0.1,1.1,0.2
			c0.3,0.2,0.6,0.4,0.8,0.6c0.2,0.3,0.4,0.6,0.5,0.9C19.6,31.8,19.7,32.2,19.7,32.6z M19,32.6c0-0.3,0-0.6-0.1-0.9
			c-0.1-0.3-0.2-0.5-0.3-0.7c-0.2-0.2-0.3-0.4-0.6-0.5c-0.2-0.1-0.5-0.2-0.8-0.2c-0.3,0-0.6,0.1-0.8,0.2c-0.2,0.1-0.4,0.3-0.6,0.5
			c-0.2,0.2-0.3,0.5-0.3,0.7c-0.1,0.3-0.1,0.6-0.1,0.9c0,0.3,0,0.6,0.1,0.9c0.1,0.3,0.2,0.5,0.3,0.7c0.2,0.2,0.3,0.4,0.6,0.5
			c0.2,0.1,0.5,0.2,0.8,0.2c0.3,0,0.6-0.1,0.8-0.2c0.2-0.1,0.4-0.3,0.6-0.5c0.2-0.2,0.3-0.5,0.3-0.7C18.9,33.2,19,32.9,19,32.6z"/>
		<path class="st0" d="M25.3,34.9c0,0.4,0,0.7-0.1,1.1c-0.1,0.3-0.2,0.6-0.4,0.9c-0.2,0.3-0.5,0.5-0.8,0.6c-0.3,0.1-0.7,0.2-1.2,0.2
			c-0.2,0-0.4,0-0.5,0c-0.2,0-0.3,0-0.5-0.1c-0.1,0-0.3-0.1-0.4-0.1c-0.1,0-0.2-0.1-0.3-0.1l0-0.7c0.2,0.1,0.5,0.2,0.7,0.3
			c0.3,0.1,0.6,0.1,0.9,0.1c0.4,0,0.8-0.1,1-0.2c0.3-0.1,0.4-0.4,0.6-0.6c0.1-0.3,0.2-0.6,0.2-0.9c0-0.3,0.1-0.7,0.1-1.1h0
			c-0.2,0.4-0.4,0.7-0.7,0.8c-0.3,0.2-0.6,0.2-1,0.2c-0.4,0-0.8-0.1-1.1-0.3c-0.3-0.2-0.5-0.4-0.7-0.7c-0.2-0.3-0.3-0.6-0.4-0.9
			c-0.1-0.3-0.1-0.6-0.1-0.9c0-0.4,0-0.8,0.1-1.2c0.1-0.4,0.2-0.7,0.4-0.9c0.2-0.3,0.4-0.5,0.7-0.6c0.3-0.1,0.6-0.2,1-0.2
			c0.2,0,0.4,0,0.5,0c0.2,0,0.3,0.1,0.4,0.1c0.1,0.1,0.3,0.1,0.4,0.2c0.1,0.1,0.3,0.2,0.4,0.4h0v-0.6h0.7V34.9z M24.7,32.6
			c0-0.3,0-0.6-0.1-0.9c-0.1-0.3-0.1-0.5-0.3-0.7c-0.1-0.2-0.3-0.4-0.5-0.5c-0.2-0.1-0.5-0.2-0.8-0.2c-0.3,0-0.6,0.1-0.8,0.2
			c-0.2,0.1-0.4,0.3-0.5,0.5c-0.1,0.2-0.2,0.5-0.3,0.7c0,0.3-0.1,0.5-0.1,0.8s0,0.5,0.1,0.8c0.1,0.3,0.1,0.5,0.3,0.7
			c0.1,0.2,0.3,0.4,0.5,0.5c0.2,0.1,0.4,0.2,0.7,0.2c0.3,0,0.6-0.1,0.8-0.2c0.2-0.1,0.4-0.3,0.5-0.5c0.1-0.2,0.2-0.4,0.3-0.7
			C24.6,33.1,24.7,32.8,24.7,32.6z"/>
		<path class="st0" d="M27.3,32.8c0,0.3,0,0.6,0.1,0.8c0.1,0.3,0.2,0.5,0.3,0.7c0.2,0.2,0.3,0.3,0.6,0.5c0.2,0.1,0.5,0.2,0.8,0.2
			c0.1,0,0.3,0,0.4,0c0.1,0,0.3-0.1,0.4-0.1c0.1,0,0.3-0.1,0.4-0.1c0.1-0.1,0.2-0.1,0.3-0.2v0.7c-0.2,0.1-0.5,0.2-0.8,0.2
			c-0.3,0.1-0.6,0.1-0.8,0.1c-0.5,0-0.8-0.1-1.2-0.2c-0.3-0.1-0.6-0.3-0.8-0.6c-0.2-0.3-0.3-0.6-0.4-0.9c-0.1-0.4-0.1-0.7-0.1-1.1
			c0-0.4,0.1-0.8,0.2-1.2c0.1-0.4,0.3-0.7,0.5-0.9c0.2-0.3,0.4-0.5,0.7-0.6c0.3-0.1,0.6-0.2,0.9-0.2c0.4,0,0.7,0.1,1,0.2
			c0.3,0.1,0.5,0.3,0.7,0.6c0.2,0.2,0.3,0.5,0.4,0.9c0.1,0.3,0.1,0.7,0.1,1v0.4H27.3z M30.3,32.2c0-0.2,0-0.5-0.1-0.7
			c-0.1-0.2-0.1-0.4-0.2-0.6c-0.1-0.2-0.3-0.3-0.4-0.4c-0.2-0.1-0.4-0.2-0.7-0.2c-0.3,0-0.5,0.1-0.7,0.2c-0.2,0.1-0.4,0.3-0.5,0.4
			c-0.1,0.2-0.2,0.4-0.3,0.6c-0.1,0.2-0.1,0.5-0.1,0.7H30.3z"/>
		<path class="st0" d="M34.5,35.4c-0.2,0-0.3,0-0.5,0c-0.3,0-0.5,0-0.7-0.1c-0.2-0.1-0.3-0.2-0.4-0.4c-0.1-0.2-0.1-0.4-0.1-0.6
			c0-0.2,0-0.5,0-0.7v-3.2h-1.1v-0.6h1.1v-1.3l0.7-0.2v1.6h1.2v0.6h-1.2V34c0,0.1,0,0.2,0,0.4c0,0.1,0.1,0.2,0.1,0.3
			c0.1,0.1,0.1,0.1,0.2,0.2c0.1,0.1,0.2,0.1,0.3,0.1c0.1,0,0.2,0,0.3,0c0.1,0,0.2-0.1,0.3-0.1l0,0.6C34.8,35.3,34.7,35.4,34.5,35.4z
			"/>
		<path class="st0" d="M39.6,35.3V32c0-0.2,0-0.5,0-0.7c0-0.2-0.1-0.4-0.2-0.6c-0.1-0.2-0.2-0.3-0.4-0.4c-0.2-0.1-0.4-0.1-0.7-0.1
			c-0.3,0-0.6,0.1-0.8,0.2c-0.2,0.1-0.4,0.3-0.5,0.5c-0.1,0.2-0.2,0.4-0.3,0.7c-0.1,0.3-0.1,0.5-0.1,0.7v2.9H36v-8.1h0.7v3.5h0
			c0.1-0.3,0.4-0.6,0.7-0.8c0.3-0.2,0.7-0.3,1.1-0.3c0.4,0,0.7,0.1,0.9,0.2c0.2,0.1,0.4,0.3,0.6,0.5c0.1,0.2,0.2,0.5,0.3,0.7
			c0.1,0.3,0.1,0.6,0.1,0.9v3.3H39.6z"/>
		<path class="st0" d="M42.3,32.8c0,0.3,0,0.6,0.1,0.8c0.1,0.3,0.2,0.5,0.3,0.7c0.2,0.2,0.3,0.3,0.6,0.5c0.2,0.1,0.5,0.2,0.8,0.2
			c0.1,0,0.3,0,0.4,0c0.1,0,0.3-0.1,0.4-0.1c0.1,0,0.3-0.1,0.4-0.1c0.1-0.1,0.2-0.1,0.3-0.2v0.7c-0.2,0.1-0.5,0.2-0.8,0.2
			c-0.3,0.1-0.6,0.1-0.8,0.1c-0.5,0-0.8-0.1-1.2-0.2c-0.3-0.1-0.6-0.3-0.8-0.6c-0.2-0.3-0.3-0.6-0.4-0.9c-0.1-0.4-0.1-0.7-0.1-1.1
			c0-0.4,0.1-0.8,0.2-1.2c0.1-0.4,0.3-0.7,0.5-0.9c0.2-0.3,0.4-0.5,0.7-0.6c0.3-0.1,0.6-0.2,0.9-0.2c0.4,0,0.7,0.1,1,0.2
			c0.3,0.1,0.5,0.3,0.7,0.6c0.2,0.2,0.3,0.5,0.4,0.9c0.1,0.3,0.1,0.7,0.1,1v0.4H42.3z M45.3,32.2c0-0.2,0-0.5-0.1-0.7
			c-0.1-0.2-0.1-0.4-0.2-0.6c-0.1-0.2-0.3-0.3-0.4-0.4c-0.2-0.1-0.4-0.2-0.7-0.2c-0.3,0-0.5,0.1-0.7,0.2c-0.2,0.1-0.4,0.3-0.5,0.4
			c-0.1,0.2-0.2,0.4-0.3,0.6c-0.1,0.2-0.1,0.5-0.1,0.7H45.3z"/>
		<path class="st0" d="M49.7,30.4c-0.1,0-0.2,0-0.3,0c-0.3,0-0.5,0.1-0.7,0.2c-0.2,0.1-0.3,0.3-0.4,0.5c-0.1,0.2-0.2,0.4-0.2,0.7
			c0,0.3-0.1,0.5-0.1,0.8v2.7h-0.7V31c0-0.2,0-0.3,0-0.4c0-0.1,0-0.2,0-0.3c0-0.1,0-0.2,0-0.3c0-0.1,0-0.2,0-0.3H48v1.1h0
			c0.1-0.2,0.1-0.3,0.2-0.4c0.1-0.1,0.2-0.3,0.3-0.4c0.1-0.1,0.2-0.2,0.4-0.3c0.1-0.1,0.3-0.1,0.5-0.1c0.1,0,0.2,0,0.2,0
			c0.1,0,0.2,0,0.2,0v0.7C49.8,30.4,49.8,30.4,49.7,30.4z"/>
	</g>
	<g>
		<path class="st1" d="M7.7,0H2.5v4.3H0v4.8h2.5v5.6c0,4.4,3.5,7.2,7.9,7.2h3.1v-4.6h-3.1c-1.5,0-2.7-1.2-2.7-2.7V9.1l3.4,0
			c1.3-0.1,2.4-1.1,2.4-2.5V4.3H7.7V0z M37.5,14.7c0,1.5-1.2,2.7-2.7,2.7c-1.5,0-2.7-1.2-2.7-2.7V6.8c0-1.4-1.1-2.5-2.5-2.5h-2.7
			v9.8c0,4.4,2.4,8,7.9,8c5.6,0,7.9-3.6,7.9-8V4.3h-5.2V14.7 M60.6,13.6c0-5.4-3-9.7-8.5-9.7c-4.7,0-8.5,3.8-8.5,9
			c0,5.6,3.5,9,8.5,9.1c3.3,0,6.2-1.9,7.7-4.6l-4.8-1.2c-0.6,0.9-1.7,1.5-2.9,1.5c-1.9,0-3.4-1.3-3.4-2.9h11.9
			C60.6,14.5,60.6,13.8,60.6,13.6 M48.8,11.1c0.1-1.6,1.5-2.9,3.4-2.9c1.9,0,3.4,1.3,3.4,2.9H48.8z M22.6,4.3L22.6,4.3h-0.7
			c-4,0-7.2,3.2-7.2,7.2v10.3h5.2v-10c0-1.5,1.2-2.7,2.7-2.7h3V4.3h-2H22.6z"/>
	</g>
</g>
</svg>
