<?xml version="1.0" encoding="utf-8"?>
<!-- Generator: Adobe Illustrator 22.0.1, SVG Export Plug-In . SVG Version: 6.00 Build 0)  -->
<svg version="1.1" id="Layer_1" xmlns="http://www.w3.org/2000/svg" xmlns:xlink="http://www.w3.org/1999/xlink" x="0px" y="0px"
	 viewBox="0 0 173.8 40" style="enable-background:new 0 0 173.8 40;" xml:space="preserve">
<style type="text/css">
	.st0{fill:#17479D;}
</style>
<g>
	<path class="st0" d="M36.7,34v-1.6c0.6-0.2,0.9-0.7,0.9-1.1v-8.9c0-0.5-0.3-0.9-0.9-1.1v-1.6h7.2c1.3,0,2.7,0,3.8,0.6
		c1.2,0.7,1.6,1.9,1.6,3c0,1.6-0.7,2.8-2.6,3.2v0c2.1,0.2,2.8,1.7,2.8,3.4c0,1.2-0.3,2.5-1.4,3.2C47,33.9,45.5,34,44,34H36.7
		 M41.7,25.4h1.5c1,0,1.6-0.4,1.6-1.4c0-0.9-0.7-1.4-1.6-1.4h-1.5V25.4 M41.7,31h1.6c1,0,1.7-0.6,1.7-1.6c0-1-0.5-1.7-1.7-1.7h-1.6
		V31z"/>
	<path class="st0" d="M56.7,33.1c-1,0.7-2.2,1-3.4,1c-2.1,0-3.2-1.3-3.2-3c0-2.1,1.2-2.7,3.2-3.3l3-0.8v-1c0-0.5-0.5-0.9-1.1-0.9
		c-0.7,0-1.2,0.4-1.2,0.9v1h-3.4v-2.3c1.6-1,3.2-1.6,5.1-1.6c1.2,0,2.2,0.2,3.2,0.8c1.3,0.9,1.3,2,1.3,3.2v3.9c0,0.6-0.1,1,0.6,1.4
		L61,34h-4.1L56.7,33.1 M56.4,29.2c-0.8,0.3-2.5,0.6-2.5,1.6c0,0.5,0.3,1.1,1.1,1.1c0.7,0,0.9-0.1,1.4-0.4V29.2z"/>
	<path class="st0" d="M125.3,34v-1.6c0.6-0.2,0.9-0.7,0.9-1.1v-8.9c0-0.5-0.3-0.9-0.9-1.1v-1.6h7.2c1.3,0,2.7,0,3.8,0.6
		c1.2,0.7,1.6,1.9,1.6,3c0,1.6-0.7,2.8-2.6,3.2v0c2.1,0.2,2.8,1.7,2.8,3.4c0,1.2-0.3,2.5-1.4,3.2c-1.2,0.8-2.7,0.9-4.1,0.9H125.3
		 M130.4,25.4h1.5c1,0,1.6-0.4,1.6-1.4c0-0.9-0.7-1.4-1.6-1.4h-1.5V25.4 M130.4,31h1.6c1,0,1.7-0.6,1.7-1.6c0-1-0.5-1.7-1.7-1.7
		h-1.6V31z"/>
	<path class="st0" d="M145.3,33.1c-1,0.7-2.2,1-3.4,1c-2.1,0-3.2-1.3-3.2-3c0-2.1,1.2-2.7,3.2-3.3l3-0.8v-1c0-0.5-0.5-0.9-1.1-0.9
		c-0.7,0-1.2,0.4-1.2,0.9v1h-3.4v-2.3c1.6-1,3.2-1.6,5.1-1.6c1.2,0,2.2,0.2,3.2,0.8c1.3,0.9,1.3,2,1.3,3.2v3.9c0,0.6-0.1,1,0.6,1.4
		l0.3,1.4h-4.1L145.3,33.1 M145,29.2c-0.8,0.3-2.5,0.6-2.5,1.6c0,0.5,0.3,1.1,1.1,1.1c0.7,0,0.9-0.1,1.4-0.4V29.2z"/>
	<path class="st0" d="M66.2,24.1c1.2-0.7,2.5-0.9,3.1-0.9c0.9,0,1.6,0.3,2.1,0.7c0.8,0.7,0.9,1.5,0.9,2.4V31c0,0.5,0.2,1.1,0.8,1.4
		V34h-4.5c-0.3-1.1-0.2-2.2-0.2-3.3V27c0-0.1,0.1-0.6-0.1-0.9c-0.3-0.4-1.1-0.7-1.8-0.4v5.5c0,0.5-0.1,1.1,0.6,1.4V34h-5.4v-1.4
		c0.6-0.3,0.8-0.8,0.8-1.3v-4.7c0-0.6-0.3-0.9-0.8-1.3v-1.8h4.6V24.1z"/>
	<path class="st0" d="M155,24.1c1.2-0.7,2.5-0.9,3.1-0.9c0.9,0,1.6,0.3,2.1,0.7c0.8,0.7,0.9,1.5,0.9,2.4V31c0,0.5,0.2,1.1,0.8,1.4
		V34h-4.5c-0.3-1.1-0.2-2.2-0.2-3.3V27c0-0.1,0.1-0.6-0.1-0.9c-0.3-0.4-1.1-0.7-1.8-0.4v5.5c0,0.5-0.1,1.1,0.6,1.4V34h-5.4v-1.4
		c0.6-0.3,0.8-0.8,0.8-1.3v-4.7c0-0.6-0.3-0.9-0.8-1.3v-1.8h4.6V24.1z"/>
	<path class="st0" d="M85.1,24.8c-0.6,0.3-0.8,0.8-0.8,1.3v7.3c0,1.2,0.1,2.8-1,3.7c-1,0.9-2.4,1-3.7,1c-2,0-3.4-0.7-5.1-1.5v-2H78
		c0,0.1,0,0.8,0.1,1c0.1,0.2,0.6,0.4,1,0.4c1,0,1.2-1.4,1.2-2v-0.7c-0.8,0.5-1.9,0.8-2.8,0.8c-3,0-3.7-1.9-3.7-4.2v-2.1
		c0-2.3,0.3-4.7,3.5-4.7c1.1,0,2.3,0.3,3.1,0.8v-0.6h4.7V24.8 M80.3,25.8c-0.2-0.1-0.9-0.2-1.2-0.2c-1.3,0-1.5,1.1-1.5,1.7v2.4
		c0,0.5,0.2,1.9,1.5,1.9c0.2,0,0.9-0.1,1.2-0.2V25.8z"/>
	<path class="st0" d="M90,26.9l1.5-1.1c0.5-0.5,0.6-1.1,0.6-2v-0.4h4.3v1.4c-0.2,0.1-0.6,0.2-0.9,0.6L93,27.6l2.5,3.5
		c0.3,0.6,0.5,1.1,1.3,1.4V34h-3.8L90,29.4h0v1.8c0,0.6,0.2,1,0.8,1.4V34h-5.4v-1.4c0.6-0.4,0.8-0.8,0.8-1.3v-8.8
		c0-0.6-0.2-1-0.8-1.4v-1.4H90V26.9z"/>
	<path class="st0" d="M167,26.9l1.5-1.1c0.5-0.5,0.6-1.1,0.6-2v-0.4h4.3v1.4c-0.2,0.1-0.6,0.2-0.9,0.6l-2.5,2.2l2.5,3.5
		c0.3,0.6,0.5,1.1,1.3,1.4V34h-3.8l-2.9-4.6h0v1.8c0,0.6,0.2,1,0.8,1.4V34h-5.4v-1.4c0.6-0.4,0.8-0.8,0.8-1.3v-8.8
		c0-0.6-0.2-1-0.8-1.4v-1.4h4.5V26.9z"/>
	<path class="st0" d="M112.4,26.9l1.5-1.1c0.5-0.5,0.6-1.1,0.6-2v-0.4h4.3v1.4c-0.2,0.1-0.6,0.2-0.9,0.6l-2.5,2.2l2.5,3.5
		c0.3,0.6,0.5,1.1,1.3,1.4V34h-3.8l-2.9-4.6h0v1.8c0,0.6,0.2,1,0.8,1.4V34h-5.4v-1.4c0.6-0.4,0.8-0.8,0.8-1.3v-8.8
		c0-0.6-0.2-1-0.8-1.4v-1.4h4.5V26.9z"/>
	<path class="st0" d="M107.5,29.9c0,1.2,0,2.5-1.1,3.3c-1.1,0.8-2.7,0.9-4.1,0.9c-1.2,0-3-0.1-4.1-0.7c-1.5-0.9-1.5-2.1-1.5-3.5
		v-2.7c0-1.1,0-2.4,1.1-3.1c1.1-0.8,2.6-0.9,3.9-0.9c1.2,0,3.1,0.1,4.1,0.6c1.5,0.8,1.5,2,1.5,3.4V29.9 M100.8,30.8
		c0,0.6,0.4,1.4,1.3,1.4c0.9,0,1.3-0.9,1.3-1.4v-4.1c0-0.6-0.3-1.6-1.3-1.6c-1,0-1.3,1-1.3,1.6V30.8z"/>
	<path class="st0" d="M29,20.9c-0.4-1.4-0.9-2.4-1.7-3.9c-0.3-0.4-0.6-0.9-1-1.4C22.7,10.1,15.4,0.6,14.8,0c0,0,0,0-0.1,0
		c0,0-0.1,0-0.1,0C13.9,0.6,6.7,10.1,3,15.6c-0.3,0.5-0.7,1-0.9,1.4c-0.8,1.5-1.4,2.6-1.7,3.9c-0.4,2-0.5,4.4-0.1,6.4
		C0.7,29.2,2.3,31,4,32.3l2.6,2.1c0,0,7.2,5.2,7.9,5.6c0,0,0.1,0,0.1,0s0.1,0,0.1,0c0.7-0.3,7.9-5.6,7.9-5.6l2.6-2.1
		c1.7-1.4,3.4-3.2,3.7-4.9C29.5,25.4,29.5,22.9,29,20.9 M12.4,34.6c0,0.1-0.2,0.1-0.3,0c-0.4-0.3-1.5-1.1-1.5-1.1
		c-1.8-1.3-3.6-2.6-5.4-3.9c-2.7-2.9-2.4-5.8-1.6-8.8c0-0.2,0.1-0.5,0.4-0.5c0.8,1.1,2.3,3.4,2.3,3.4c1.5,2.2,3.4,4.2,5.2,6.3
		C12.9,31.1,12.4,33,12.4,34.6 M14.7,28.8c0,0-0.1,0-0.1-0.1c-2.3-2.7-4.9-5.8-7.2-8.5c-0.4-0.7-0.8-1.4-0.9-2.2
		c0-0.7-0.1-1.3,0.5-2.2c0,0,0.4-0.6,0.5-0.7c0,0,4.7-6.6,7.1-9.7c0,0,0,0,0.1,0c0,0,0.1,0,0.1,0c2.5,3.1,7.1,9.7,7.1,9.7
		c0.1,0.2,0.5,0.7,0.5,0.7c0.6,0.9,0.5,1.5,0.5,2.2c0,0.9-0.5,1.6-0.9,2.2c-2.3,2.7-4.9,5.8-7.2,8.5C14.8,28.8,14.7,28.8,14.7,28.8
		 M24,29.6c-1.7,1.4-3.5,2.6-5.4,3.9c0,0-1,0.8-1.5,1.1c-0.1,0-0.2,0-0.3,0c0-1.6-0.5-3.4,0.8-4.6c1.8-2.1,3.6-4.1,5.2-6.3
		c0,0,1.6-2.3,2.3-3.4c0.2,0.1,0.3,0.3,0.4,0.5C26.4,23.8,26.7,26.7,24,29.6z"/>
</g>
</svg>
