<?xml version="1.0" encoding="utf-8"?>
<!-- Generator: Adobe Illustrator 22.0.1, SVG Export Plug-In . SVG Version: 6.00 Build 0)  -->
<svg version="1.1" id="Layer_1" xmlns="http://www.w3.org/2000/svg" xmlns:xlink="http://www.w3.org/1999/xlink" x="0px" y="0px"
	 viewBox="0 0 146.9 38.5" style="enable-background:new 0 0 146.9 38.5;" xml:space="preserve">
<style type="text/css">
	.st0{fill:#FFFFFF;}
	.st1{fill:#867366;}
	.st2{fill:#F4150E;}
	.st3{fill:#1A8835;}
</style>
<g>
	<g>
		<g>
			<path class="st0" d="M145.5,19.4c0,9.8-8,17.8-17.8,17.8c-9.8,0-17.8-8-17.8-17.8c0-9.8,8-17.8,17.8-17.8
				C137.5,1.6,145.5,9.6,145.5,19.4"/>
			<g>
				<path class="st1" d="M136.7,28.6c-0.8-0.4-1.7-0.9-3-0.9c-1.2,0-2.1,0.4-3,0.8c-0.9,0.4-1.9,0.9-3.2,0.9c-1.1,0-2-0.4-2.9-0.8
					c-0.9-0.4-1.9-0.9-3.2-0.9c-1.2,0-2.1,0.4-3,0.8c-0.9,0.4-1.9,0.9-3.2,0.9c-0.1,0-0.1,0-0.2,0c0.1,0.2,0.3,0.3,0.4,0.5
					c1.3,0,2.3-0.5,3.2-0.9c0.9-0.4,1.7-0.8,2.8-0.8c1.2,0,2.1,0.4,3,0.8c0.9,0.4,1.9,0.9,3.1,0.9c1.4,0,2.4-0.5,3.4-0.9
					c0.9-0.4,1.7-0.8,2.8-0.8c1.2,0,2,0.4,2.8,0.8c0.9,0.4,1.8,0.9,3.3,0.9c0.1-0.2,0.3-0.3,0.4-0.5c-0.1,0-0.3,0-0.4,0
					C138.4,29.5,137.5,29,136.7,28.6"/>
				<path class="st1" d="M133.7,28.7c-1.2,0-2.1,0.4-3,0.8c-0.9,0.4-1.9,0.9-3.2,0.9c-1.1,0-2-0.4-2.9-0.8c-0.9-0.4-1.9-0.9-3.2-0.9
					c-1.2,0-2.1,0.4-3,0.8c-0.8,0.4-1.6,0.7-2.6,0.8c0.1,0.1,0.3,0.3,0.4,0.4c0.9-0.2,1.7-0.5,2.4-0.8c0.9-0.4,1.7-0.8,2.8-0.8
					c1.2,0,2.1,0.4,3,0.8c0.9,0.4,1.9,0.9,3.1,0.9c1.4,0,2.4-0.5,3.4-0.9c0.9-0.4,1.7-0.8,2.8-0.8c1.2,0,2,0.4,2.8,0.8
					c0.7,0.4,1.4,0.7,2.5,0.9c0.2-0.1,0.3-0.3,0.4-0.4c-1.2-0.1-2-0.5-2.7-0.8C135.9,29.1,135,28.7,133.7,28.7"/>
				<path class="st1" d="M133.7,29.6c-1.2,0-2.1,0.4-3,0.8c-0.9,0.4-1.9,0.9-3.2,0.9c-1.1,0-2-0.4-2.9-0.8c-0.9-0.4-1.9-0.9-3.2-0.9
					c-1.2,0-2.1,0.4-3,0.8c-0.6,0.3-1.2,0.5-1.9,0.7c0.1,0.1,0.3,0.3,0.4,0.4c0.6-0.2,1.1-0.4,1.6-0.6c0.9-0.4,1.7-0.8,2.8-0.8
					c1.2,0,2.1,0.4,3,0.8c0.9,0.4,1.9,0.9,3.1,0.9c1.4,0,2.4-0.5,3.4-0.9c0.9-0.4,1.7-0.8,2.8-0.8c1.2,0,2,0.4,2.8,0.8
					c0.5,0.3,1,0.5,1.7,0.7c0.1-0.1,0.3-0.3,0.4-0.4c-0.7-0.2-1.3-0.5-1.9-0.7C135.9,30,135,29.6,133.7,29.6"/>
				<path class="st1" d="M133.7,30.5c-1.2,0-2.1,0.4-3,0.8c-0.9,0.4-1.9,0.9-3.2,0.9c-1.1,0-2-0.4-2.9-0.8c-0.9-0.4-1.9-0.9-3.2-0.9
					c-1.2,0-2.1,0.4-3,0.8c-0.4,0.2-0.7,0.3-1.1,0.5c0.1,0.1,0.3,0.2,0.4,0.4c0.3-0.1,0.6-0.2,0.8-0.4c0.9-0.4,1.7-0.8,2.8-0.8
					c1.2,0,2.1,0.4,3,0.8c0.9,0.4,1.9,0.9,3.1,0.9c1.4,0,2.4-0.5,3.4-0.9c0.9-0.4,1.7-0.8,2.8-0.8c1.2,0,2,0.4,2.8,0.8
					c0.3,0.1,0.6,0.3,0.9,0.4c0.2-0.1,0.3-0.2,0.4-0.3c-0.4-0.1-0.8-0.3-1.1-0.5C135.9,30.9,135,30.5,133.7,30.5"/>
				<path class="st1" d="M133.7,31.4c-1.2,0-2.1,0.4-3,0.8c-0.9,0.4-1.9,0.9-3.2,0.9c-1.1,0-2-0.4-2.9-0.8c-0.9-0.4-1.9-0.9-3.2-0.9
					c-1.2,0-2.1,0.4-3,0.8c-0.1,0-0.2,0.1-0.3,0.1c0.2,0.1,0.3,0.2,0.5,0.3c0,0,0,0,0,0c0.9-0.4,1.7-0.8,2.8-0.8
					c1.2,0,2.1,0.4,3,0.8c0.9,0.4,1.9,0.9,3.1,0.9c1.4,0,2.4-0.5,3.4-0.9c0.9-0.4,1.7-0.8,2.8-0.8c1.2,0,2,0.4,2.8,0.8
					c0,0,0.1,0,0.1,0c0.2-0.1,0.3-0.2,0.5-0.3c-0.1-0.1-0.2-0.1-0.3-0.2C135.9,31.8,135,31.4,133.7,31.4"/>
				<path class="st1" d="M130.7,33.2c-0.9,0.4-1.9,0.9-3.2,0.9c-1.1,0-2-0.4-2.9-0.8c-0.9-0.4-1.9-0.9-3.2-0.9
					c-0.9,0-1.7,0.3-2.5,0.6c0.2,0.1,0.3,0.2,0.5,0.3c0.6-0.2,1.2-0.4,2-0.4c1.2,0,2.1,0.4,3,0.8c0.9,0.4,1.9,0.9,3.1,0.9
					c1.4,0,2.4-0.5,3.4-0.9c0.9-0.4,1.7-0.8,2.8-0.8c0.8,0,1.5,0.2,2,0.5c0.2-0.1,0.3-0.2,0.5-0.3c-0.7-0.3-1.5-0.6-2.6-0.6
					C132.5,32.3,131.6,32.8,130.7,33.2"/>
			</g>
			<path class="st2" d="M127.6,0c-10.6,0-19.3,8.6-19.3,19.3c0,10.6,8.6,19.3,19.3,19.3c10.6,0,19.3-8.6,19.3-19.3
				C146.9,8.6,138.2,0,127.6,0L127.6,0z M127.6,35.5c-8.9,0-16.2-7.3-16.2-16.2c0-8.9,7.3-16.2,16.2-16.2c8.9,0,16.2,7.3,16.2,16.2
				C143.8,28.2,136.5,35.5,127.6,35.5"/>
		</g>
		<g>
			<path class="st3" d="M136.6,14.5c-0.1,0.6-0.7,1.2-1.1,1.5c-0.8,0.6-5.7,3.7-6.3,4.4c-0.6,0.7-0.7,1.7-0.7,2.5l0,5.9h0.8
				c0-0.5,0-1.4,0-1.5c0-0.5,0.3-1.3,0.9-2c1-1.1,3.4-2.4,5-3.6c1.3-1,1.4-2.2,1.4-3.4c0-0.9,0-3.5,0-4L136.6,14.5z"/>
			<path class="st3" d="M128.6,20c0.6-0.7,5.7-3.8,6.4-4.4c0.7-0.6,1.6-1.5,1.6-2.7c0-1,0-5.9,0-6.6c0,0.9-0.5,1.6-1.2,2.5
				c-0.8,1-4.2,2.9-5.9,4.1c-1.7,1.2-2.3,2.4-2.3,3.9c0,1.2,0,9.4,0,12h0.8c0-1.7,0-5.7,0-6.3C128,21.7,128,20.7,128.6,20z"/>
			<path class="st3" d="M124.7,13.2c-1.6-1.2-4.8-3.8-5.1-4.3c-0.4-0.5-1.2-1.5-1.2-2.6c0,0.8,0,5.4,0,6.2c0,0.9,0.4,2.4,1.9,3.5
				c1.5,1.1,3.7,2.7,4.3,3.4c0.6,0.7,1.2,1.8,1.2,3.5c0,1.2,0,4.4,0,5.9h0.8c0-2.5,0-10.2,0-11.7C126.6,15.1,126.3,14.4,124.7,13.2z
				"/>
		</g>
	</g>
	<g>
		<path class="st1" d="M0,5.3h9.3L9.1,17.1h0.2c0.2-1.1,0.8-2.1,1.3-3.1l4.6-8.7h10.4l-8.2,13.3l9.1,14h-11l-4.5-8.2
			c-0.6-1.1-1.4-2.1-1.6-3.2H9.1l0.2,11.4H0V5.3z"/>
		<path class="st1" d="M28.1,5.3h6.3c4.9,0,7.8,2,7.8,7.4c0,2-0.7,4.2-2.3,5.3c3.1,0.6,4.5,3.8,4.5,6.8c0,5.3-3.6,7.7-8.4,7.7h-8
			V5.3z M33.3,16.7h0.6c2.5,0,3.7-0.8,3.7-3.6c0-2.8-1.5-3.5-3.7-3.5h-0.7V16.7z M33.3,28.3h1.1c2.7,0,5.1-0.4,5.1-3.9
			c0-3.5-2.8-3.7-5.3-3.7h-0.8V28.3z"/>
		<path class="st1" d="M63.3,32.6h-4.8v-1.6h-0.1c-1,1.4-2.8,2.2-4.6,2.2c-5,0-7.8-4.7-7.8-9.5c0-4.7,2.9-9.4,7.8-9.4
			c1.8,0,3.6,0.8,4.8,2.2v-1.7h4.8V32.6z M59,23.7c0-2.4-1.6-5-4.1-5s-4,2.6-4,5c0,2.4,1.5,5,4,5S59,26.1,59,23.7z"/>
		<path class="st1" d="M71.7,16.4L71.7,16.4c1.1-1.6,2.8-2.2,4.5-2.2c4.6,0,5.9,3.4,5.9,7.5v10.8h-4.9v-9.4c0-2.1,0.1-4.9-2.6-4.9
			c-2.9,0-2.9,3.4-2.9,5.5v8.8h-4.9V14.8h4.9V16.4z"/>
		<path class="st1" d="M90.4,21.3L90.4,21.3l5.2-6.5h6.3l-7.2,7.8l7.7,9.9h-6.4L90.5,25h-0.1v7.6h-4.9V5.2h4.9V21.3z"/>
	</g>
</g>
</svg>
