<?xml version="1.0" encoding="utf-8"?>
<!-- Generator: Adobe Illustrator 22.0.1, SVG Export Plug-In . SVG Version: 6.00 Build 0)  -->
<svg version="1.1" id="Layer_1" xmlns="http://www.w3.org/2000/svg" xmlns:xlink="http://www.w3.org/1999/xlink" x="0px" y="0px"
	 viewBox="0 0 93.2 42.5" style="enable-background:new 0 0 93.2 42.5;" xml:space="preserve">
<style type="text/css">
	.st0{fill:#1B1464;}
	.st1{fill:#00AEEF;}
	.st2{fill:#EC1C24;}
</style>
<g>
	<path class="st0" d="M59.2,38.1l0.3-0.8l3.6,0l-0.8,2.4c-1.3,0.7-2.6,1-3.8,1c-0.8,0-1.5-0.1-2.1-0.4c-0.6-0.3-1-0.7-1.2-1.2
		C55,38.6,55,38,55.2,37.4c0.2-0.6,0.6-1.2,1.1-1.7c0.6-0.6,1.2-1,1.9-1.3c0.7-0.3,1.5-0.4,2.4-0.4c1.3,0,2.1,0.3,2.5,0.9
		c0.2,0.3,0.3,0.6,0.3,1.1l-1.1,0.2c0-0.6-0.3-1-0.9-1.2c-0.3-0.1-0.7-0.2-1.1-0.2c-1,0-1.8,0.2-2.5,0.7c-0.7,0.5-1.2,1.1-1.5,2
		c-0.4,1.2-0.2,2,0.7,2.3c0.4,0.2,0.9,0.3,1.5,0.3c0.4,0,0.9-0.1,1.4-0.2c0.5-0.1,1-0.3,1.3-0.5l0.4-1.2L59.2,38.1z"/>
	<path class="st0" d="M63.4,40.6l1.6-4.8l0.9,0l-0.2,0.7c0.6-0.6,1.1-0.8,1.6-0.8c0.3,0,0.7,0.1,1,0.3l-0.6,0.7
		c-0.2-0.1-0.4-0.2-0.7-0.2c-0.5,0-0.9,0.2-1.2,0.6c-0.2,0.3-0.4,0.6-0.5,1l-0.8,2.5L63.4,40.6z"/>
	<path class="st0" d="M67.8,38.3c0.3-0.9,0.8-1.5,1.6-2c0.6-0.4,1.3-0.5,2.1-0.5c0.9,0,1.5,0.2,1.9,0.7c0.3,0.4,0.4,1,0.1,1.7
		c-0.4,1.1-1.1,1.9-2.1,2.3c-0.5,0.2-1,0.3-1.6,0.3c-0.9,0-1.6-0.2-1.9-0.7C67.6,39.6,67.5,39,67.8,38.3z M68.9,38.3
		c-0.2,0.5-0.2,0.9,0,1.3c0.2,0.4,0.6,0.6,1.2,0.6c0.6,0,1.2-0.2,1.6-0.6c0.4-0.3,0.6-0.8,0.8-1.3c0.2-0.5,0.2-0.9,0-1.2
		c-0.2-0.4-0.6-0.6-1.2-0.6c-0.6,0-1.2,0.2-1.6,0.6C69.3,37.3,69,37.7,68.9,38.3z"/>
	<path class="st0" d="M77.9,40.7l0.2-0.7c-0.7,0.5-1.4,0.8-2.2,0.8c-0.8,0-1.3-0.2-1.5-0.6c-0.1-0.2-0.1-0.4-0.1-0.6
		c0-0.2,0.1-0.4,0.2-0.8l1-3l1,0l-0.9,2.7c-0.1,0.4-0.2,0.7-0.2,0.9c0,0.5,0.3,0.7,1,0.7c0.3,0,0.6-0.1,0.9-0.2
		c0.3-0.1,0.6-0.3,0.8-0.5c0.2-0.2,0.3-0.5,0.5-0.9l0.9-2.6l1,0l-1.6,4.8L77.9,40.7z"/>
	<path class="st0" d="M79.9,42.5l2.2-6.6l1,0l-0.2,0.6c0.6-0.5,1.3-0.7,2-0.7c1.1,0,1.7,0.4,1.9,1.2c0.1,0.4,0,0.8-0.1,1.3
		c-0.4,1.1-1,1.8-2.1,2.2c-0.5,0.2-1,0.3-1.4,0.3c-0.7,0-1.1-0.2-1.4-0.6l-0.8,2.3L79.9,42.5z M82.2,38.3c-0.2,0.5-0.2,0.9-0.1,1.2
		c0.1,0.4,0.5,0.6,1.1,0.6c0.6,0,1.1-0.2,1.5-0.6c0.3-0.3,0.6-0.7,0.8-1.2c0.2-0.5,0.2-0.9,0.1-1.2c-0.2-0.4-0.5-0.6-1.1-0.6
		c-0.6,0-1.1,0.2-1.5,0.6C82.7,37.4,82.4,37.8,82.2,38.3z"/>
	<path class="st0" d="M61,27.8c-2.7,6-11.6,6.9-15.7,6.9l1-3.2c2.3-0.4,5.9-1.9,7.6-7.6c1.2-4.1-0.9-3.6-3-3.6H48l-3.8,11.3
		l-1.1,3.4l-1.3,3.7c-0.2,0.6-0.5,1-1.1,1.4c-0.7,0.5-1.2,0.7-2.1,0.6H33l7.4-22.5c0.2-0.6,0.8-1.2,1.4-1.6c0.6-0.4,1.2-0.6,1.8-0.6
		c0,0,5.2,0,5.2,0c-1.6,1.2-2.7,2.5-3.1,4.2h1c1.1-2.1,3.9-4.2,7.9-4.2c2.9,0,5.9,0.8,7.2,3.2l1-3.2h5c0.4-1.2,0.5-1.5,0.6-1.9
		c0,0,9.6-4.2,9.6-4.2l-2,6.1l4.6,0c0.4-1.2,0.5-1.5,0.6-1.9c0,0,9.6-4.2,9.6-4.2l-2,6.1h4.3l-1.3,4.1h-4.3c0,0-2.3,7-2.8,8.5
		c-0.8,2.4,0,2.9,2.7,2.9c0-0.1-1,2.9-1,2.9c0,0-5,0-6.5,0c-2.7,0-4.8-1.8-3.8-4.9c0.6-1.9,3.2-9.5,3.2-9.5h-4.6c0,0-2.3,7-2.8,8.5
		c-0.8,2.4,0,2.9,2.7,2.9c0-0.1-1,2.9-1,2.9h-6.5c-2.8,0-4.9-1.7-3.8-4.9c0.7-1.9,3.1-9.5,3.1-9.5h-4.3C62.7,22.1,62.5,24.5,61,27.8
		L61,27.8z"/>
	<path class="st1" d="M18.8,0C17,4.4,16,7,16.3,10.7c0.4,4,3.1,7.2,5.5,9.8c2,2.1,3.2,3.5,3.8,6c0.4,1.7,0.8,5.3-1.7,8.8
		c-3.1,4.2-8,4.3-8,4.3v1.3c0,0,5.9-0.2,9.9-3.9c2.8-2.5,3.8-4.7,4.5-8.1c0.6-2.9-0.1-7-1.9-10.2c-1-1.8-2.1-3.3-3.2-4.5
		c-2.1-2.4-3.6-4.1-4.9-6c-1.2-1.8-2-3.3-2-4.9c0-1.5,0.6-3.2,0.6-3.2L18.8,0L18.8,0z"/>
	<path class="st1" d="M11.7,0c1.8,4.4,2.9,7,2.5,10.7c-0.4,4-3.1,7.2-5.5,9.8c-2,2.1-3.2,3.5-3.8,6c-0.4,1.7-0.8,5.3,1.7,8.8
		c3.1,4.2,8,4.3,8,4.3v1.3c0,0-5.9-0.2-9.9-3.9c-2.8-2.5-3.8-4.7-4.5-8.1c-0.6-2.9,0.1-7,1.9-10.2c1-1.8,2.1-3.3,3.2-4.5
		c2.1-2.4,3.6-4.1,4.9-6c1.2-1.8,2-3.3,2-4.9c0-1.5-0.6-3.2-0.6-3.2L11.7,0L11.7,0z"/>
	<path class="st0" d="M17.2,16.4c0.9,1.4,3,4.1,4.8,5.8c1.8,1.7,2.9,4.2,2.9,6.9c0,5.3-4.3,9.7-9.7,9.7c-5.3,0-9.7-4.3-9.7-9.7
		c0-2.7,1.1-5.1,2.8-6.8c0.8-0.8,3.4-3.5,4.9-5.9c1.5-2.5,2-4.7,2-4.7S15.6,13.8,17.2,16.4L17.2,16.4z"/>
	<path class="st2" d="M23.2,29.1c0,4.4-3.5,7.9-7.9,7.9s-7.9-3.5-7.9-7.9c0-4.4,3.5-7.9,7.9-7.9S23.2,24.7,23.2,29.1L23.2,29.1z"/>
</g>
</svg>
