<?xml version="1.0" encoding="utf-8"?>
<!-- Generator: Adobe Illustrator 22.0.1, SVG Export Plug-In . SVG Version: 6.00 Build 0)  -->
<svg version="1.1" id="Layer_1" xmlns="http://www.w3.org/2000/svg" xmlns:xlink="http://www.w3.org/1999/xlink" x="0px" y="0px"
	 viewBox="0 0 121.7 42.6" style="enable-background:new 0 0 121.7 42.6;" xml:space="preserve">
<style type="text/css">
	.st0{fill:#FFFFFF;}
	.st1{fill:#EC1C24;}
	.st2{fill:#ED2524;}
	.st3{fill:none;}
</style>
<g>
	<g>
		<path class="st0" d="M37.3,10.7V32L18.7,42.6L0,32V10.7L18.4,0.2L18.7,0L37.3,10.7z M36.1,30.5V12.2l-3.7,9.2L36.1,30.5z
			 M35.4,31.7l-3.8-9.2L19.7,40.7L35.4,31.7z M31.6,20.1l3.8-9.2L19.7,2L31.6,20.1z M31.1,21.3L18.6,2.4L6.2,21.3l12.4,18.9
			L31.1,21.3z M5.7,20.1L17.5,2l-15.6,9L5.7,20.1z M17.5,40.7L5.7,22.6l-3.8,9.2L17.5,40.7z M4.9,21.3l-3.7-9.1v18.3L4.9,21.3z"/>
		<g>
			<polygon class="st1" points="35.4,10.9 31.6,20.1 19.7,2 			"/>
			<polygon class="st1" points="36.1,12.2 36.1,30.5 32.4,21.3 			"/>
			<polygon class="st1" points="31.6,22.6 35.4,31.7 19.7,40.7 			"/>
			<polygon class="st1" points="5.7,22.6 17.5,40.7 1.9,31.7 			"/>
			<polygon class="st1" points="1.2,12.2 4.9,21.3 1.2,30.5 			"/>
			<polygon class="st1" points="18.6,2.4 31.1,21.3 18.6,40.3 6.2,21.3 			"/>
			<polygon class="st1" points="17.5,2 5.7,20.1 1.9,10.9 			"/>
		</g>
		<g>
			<path class="st0" d="M12.4,20.4c-0.3,0.3-1.1,1.4-2,2c0.4,0,1.4-0.2,2.4-1.3c0-0.1,0-0.2,0-0.3C12.7,20.7,12.5,20.5,12.4,20.4"/>
			<path class="st0" d="M13.7,24.3c-0.2,0-0.7,0.3-0.6,0.5c0.1,0.2,0.3,0.3,0.2,0.7c0,0.2-0.1,0.5-0.5,0.4c-0.4-0.1-0.3-1.2-0.3-1.7
				c0.1-0.7,0.2-1.8,0.1-2.7l0,0c-0.6,0.6-1.1,0.9-1.5,1h0c0.1,0.6,0.1,1.3,0.1,1.6c0.1,0.5,0,2.6,1.5,2.7c0.6,0.1,1.1-0.2,1.3-1
				C14.2,25.3,14.2,24.3,13.7,24.3"/>
			<path class="st0" d="M17.9,23.8c-0.1,0.2-0.3,0.6-0.3,0.6s0.2,0.2,0.6,0.4c0,0-0.1-1.5,0-1.6C18.2,23.1,18,23.7,17.9,23.8"/>
			<path class="st0" d="M25.9,25.3c-0.1,0.3-0.2,0.7-0.2,0.9c0,0.5,0,0.9,0.1,1.2c0.1,0.4,0.1,0.6,0.1,0.6c0.2-0.1,0.1-0.5,0.1-0.9
				c0-0.4,0.1-1.3,0.2-1.7c0.2-0.4,0.1-0.7,0.1-0.7C26.2,25,26,25,25.9,25.3"/>
			<path class="st0" d="M17.9,27.9c-0.1,0-0.2,0.2-0.2,0.4c0.2,0,0.4-0.1,0.5-0.1C18.2,28.1,18,27.9,17.9,27.9"/>
			<path class="st0" d="M17.7,27.2c-0.2-0.2-0.9-0.9-1.6-1.1c0,0,0.1,0.9,0,1.2c-0.1,0.4-0.1,0.7-0.1,0.9c0.1-0.1,0.2-0.3,0.4-0.3
				c0.1,0,0.2,0,0.2,0.1c0.1,0.1,0.1,0.1,0.1,0.2c0.1-0.1,0.2-0.3,0.4-0.3c0.2,0,0.3,0.1,0.4,0.3c0.1-0.2,0.2-0.3,0.3-0.3
				c0.2,0,0.4,0.2,0.5,0.4h0c0.1-0.2-0.1-0.5-0.1-0.9C18.3,27.2,17.9,27.3,17.7,27.2"/>
			<path class="st0" d="M16.5,27.9c-0.1,0-0.2,0.2-0.3,0.3c0.1,0,0.1,0.1,0.3,0.1c0.1,0,0.2,0,0.3,0c0-0.1-0.1-0.3-0.1-0.3
				L16.5,27.9z"/>
			<path class="st0" d="M17.2,27.9c-0.1,0-0.2,0.2-0.3,0.4c0.2,0,0.4,0,0.5,0C17.5,28.2,17.4,27.9,17.2,27.9"/>
			<path class="st0" d="M18.6,25.5c0,0.1,0.1,0.3,0.3,0.4c0.1-0.2,0.1-0.4,0-0.5C18.8,25.4,18.7,25.4,18.6,25.5"/>
			<path class="st0" d="M18.4,26c-0.1,0.1,0.1,0.3,0.2,0.4c0.1-0.1,0.1-0.2,0.2-0.3c0-0.1,0.1-0.1,0.1-0.1
				C18.7,26,18.4,25.9,18.4,26"/>
			<path class="st0" d="M18.1,26.5L18.1,26.5c-0.1,0.1,0,0.2,0,0.4c0.1,0,0.2-0.1,0.3-0.3C18.3,26.6,18.2,26.5,18.1,26.5"/>
			<path class="st0" d="M25.3,27.9c-0.1,0-0.2,0.2-0.2,0.4c0.2,0,0.4,0,0.5-0.1C25.5,28,25.4,27.9,25.3,27.9"/>
			<path class="st0" d="M27.2,22.7c0,0,0.1-0.8-0.2-3.1c-0.2-2.3-1.9-3.6-3-4.5c-1.1-0.9-4.1-1.5-5-1.6c-0.9-0.1-2.5,0.3-3.1,0.4
				c-0.6,0.1-1.4-0.2-2.5-0.1c-0.7,0.1-1.3,0.9-1.3,0.9s-0.6,0-0.9,0.8c-0.3,0.8-0.4,1.1-0.5,1.5c-0.1,0.4,0,1.4,0,1.7
				c0,0-0.1,1,0,1.9c0,0,0,0.3-0.9,1c0.8,0,1-0.3,1-0.3c0,0.1,0,0.2,0,0.3l0,0c0.7-0.7,1.3-1.4,1.3-1.5l0.1-0.1l0.6,0.5
				c0,0-0.1,0.3,0,0.6c0.1,0.2,0.1,0.3,0.1,0.3s0.3-0.1,0.3-0.4c0.1-0.4,0.2-0.5,0.3-0.6c0.2-0.2,0.5-0.2,0.8-0.4
				c0.3-0.1,0.6-0.6,0.6-0.8l0.1-0.2c0,0,0.3,0.5,0.4,0.7c0.1-0.1,0.2-0.3,0.3-0.5c0.1-0.3,0.2-0.7,0.3-1c0-0.2,0.1-0.4,0.1-0.5
				l0.1-0.3c0.1-0.3,0.4-0.8,0.4-1.3c0-0.3-0.1-0.6-0.3-0.8c-0.4-0.5-1.5-0.5-1.5-0.5s1-0.4,1.7,0.4c0.7,0.8,0.2,1.8,0,2.4l-0.1,0.3
				c0,0.1-0.1,0.3-0.1,0.5c-0.1,0.3-0.1,0.7-0.3,1.1c-0.1,0.3-0.4,0.7-0.4,0.7l-0.1,0.1c0,0-0.3-0.4-0.4-0.6
				c-0.1,0.2-0.3,0.5-0.6,0.7l0.6,0.9c0.1-0.4,0.3-0.5,0.3-0.5c-0.1,0.6-0.4,2.9-0.5,3.7c-0.1,0.9,0.3,1.1,0.5,1.2
				c0.2,0.1,1.2,0.7,1.7,1.2c0.2,0.1,0.3,0.3,0.5,0.3c-0.1-0.1-0.2-0.3-0.1-0.4c0-0.1,0.1-0.1,0.2-0.1c0.1,0,0.2,0,0.2,0
				c-0.1-0.1-0.1-0.2-0.1-0.3c0,0,0-0.1,0-0.1c0.1-0.1,0.3-0.1,0.4-0.1c-0.1-0.1-0.1-0.2-0.1-0.3l0-0.1c0.1-0.1,0.2-0.2,0.3-0.2
				c-0.2-0.1-0.4-0.2-0.6-0.2c-0.2-0.1-0.9-0.5-0.8-0.7c0.1-0.3,0.6-1.2,0.6-1.5c0.3-0.9,0.7-1.3,0.7-1.3c-0.2,0.5-0.2,0.7-0.2,0.7
				c1.9,0.6,3.4,0.4,3.4,0.4c-0.2-0.7,0-0.8,0-0.8c0.1,1.4,1.4,2.5,1.7,3.2c0.3,0.7,0,2-0.2,2.8c0,0.2,0,0.3,0,0.4
				c0.1-0.1,0.2-0.4,0.4-0.4c0.1,0,0.2,0.1,0.2,0.1c0,0.1,0.1,0.1,0.1,0.2c0.1-0.1,0.2-0.3,0.4-0.3c0.2,0,0.3,0.1,0.3,0.3
				c0.1-0.1,0.2-0.3,0.3-0.3c0.2,0,0.4,0.2,0.4,0.3c0.1-0.1,0-0.2,0-0.4c-0.2-0.5-0.2-0.9-0.2-1.2c0-0.3,0-0.7,0.2-1.2
				c0.2-0.5,0.5-0.7,0.4-1.1c-0.1-0.3-0.2-1.2-0.1-1.7c0.1-0.5,0.5-2.3,0.5-2.3c0.4,0.8,0.3,2.8,0.3,2.8c-0.1,1.3,0.4,1.8,0.4,1.8
				s0.1-0.5,0.1-1C27.4,23.1,27.2,22.7,27.2,22.7 M13.7,17.2c-0.1,0.2-0.3,0.4-0.3,0.4s-0.2-0.5,0.1-0.8c0.3-0.3,0.6-0.1,0.6-0.1
				S13.8,17,13.7,17.2 M16.5,15.6c0.3,0.6-0.2,1.2-0.2,1.2s0.1-0.7,0-1c-0.1-0.3-0.4-0.5-0.9-0.6C15.4,15.2,16.2,15,16.5,15.6"/>
			<path class="st0" d="M24.6,27.9c-0.1,0-0.3,0.2-0.3,0.4h0.3h0.2C24.8,28.1,24.7,27.9,24.6,27.9"/>
			<path class="st0" d="M23.9,27.9c-0.1,0-0.2,0.2-0.3,0.3c0.1,0.1,0.3,0.1,0.5,0.1C24.1,28.1,24,28,23.9,27.9L23.9,27.9z"/>
		</g>
	</g>
	<g>
		<path class="st2" d="M115.5,21.5v8.2c-1.2,0.4-2.8,0.7-4.6,0.7c-6,0-9.8-3.3-9.8-8.7c0-5.5,4-8.8,10.6-8.8c2.8,0,5.4,0.5,8,1.7
			l0.5,0.2V9.6L120,9.5c-2.8-0.9-5.7-1.3-8.7-1.3c-9.8,0-16.7,5.7-16.7,13.8c0,7.8,6.4,13.1,15.9,13.1c3.8,0,7.9-0.8,11-2.1l0.2-0.1
			V21.5H115.5z"/>
		<path class="st2" d="M92.2,28.6c-2.4,1.2-4.6,1.7-7.1,1.7c-5.8,0-9.5-3.4-9.5-8.7c0-5.3,3.8-8.8,9.7-8.8c2.9,0,4.4,0.7,6.6,1.7
			l0.5,0.2V9.6l-0.2-0.1c-2-0.7-3.9-1.3-7.1-1.3c-9.3,0-16.1,5.7-16.1,13.6C69.1,29.9,75,35,84.5,35c3,0,4.8-0.5,8.2-2l0.2-0.1
			l-0.1-4.5L92.2,28.6z"/>
		<path class="st2" d="M57.4,19c-2.6-1.1-4.9-2.1-4.9-3.9c0-2.1,2.6-2.4,3.7-2.4c2.2,0,4.5,0.5,6.9,1.6l0.5,0.2V9.5l-0.2-0.1
			c-1.9-0.8-4.6-1.3-7.4-1.3c-6.9,0-10,3.8-10,7.4c0,4.6,4.1,6.3,7.7,7.9c2.8,1.2,5.1,2.2,5.1,4.2c0,1.9-2.4,2.6-4.6,2.6
			c-2.7,0-5.7-1.6-7.3-2.5l-0.6-0.3v5l0.2,0.1c2.2,1.3,4.2,2.3,7.8,2.3c6.6,0,11-3.1,11-7.7C65.3,22.4,60.9,20.5,57.4,19"/>
	</g>
	<rect x="41" y="2" class="st2" width="1.2" height="38.7"/>
	<rect x="36.1" y="2" class="st3" width="1.2" height="38.7"/>
</g>
</svg>
