<?xml version="1.0" encoding="utf-8"?>
<!-- Generator: Adobe Illustrator 22.0.1, SVG Export Plug-In . SVG Version: 6.00 Build 0)  -->
<svg version="1.1" id="Layer_1" xmlns="http://www.w3.org/2000/svg" xmlns:xlink="http://www.w3.org/1999/xlink" x="0px" y="0px"
	 viewBox="0 0 171.9 37.2" style="enable-background:new 0 0 171.9 37.2;" xml:space="preserve">
<style type="text/css">
	.st0{fill:#008B44;}
</style>
<g>
	<g>
		<path class="st0" d="M30.4,8.4c-1.3-6.5-7.5-7.6-7.5-7.6C16.4-0.8,9.6,0.6,9.6,0.6c-7.2,1.5-8,8-8,8c-1.3,7-0.1,12.9-0.1,12.9
			c1.3,7.8,8.8,8.5,8.8,8.5c6.3,1.2,11.4,0,11.4,0c7.8-1.2,8.7-8.2,8.7-8.2C32,14.3,30.4,8.4,30.4,8.4z M29.2,21.3
			c0,0-0.9,6.4-7.9,7.5c0,0-4.7,1-10.5,0c0,0-6.9-0.7-8.1-7.8c0,0-1.1-5.4,0.1-11.8c0,0,0.7-6,7.3-7.3c0,0,6.3-1.3,12.2,0.1
			c0,0,5.7,1,6.8,7C29.2,9,30.7,14.4,29.2,21.3z"/>
		<path class="st0" d="M26.7,14.6c0-4.5-3.8-9.4-3.8-9.4l-3.3,6L16.1,5l0,0.2l0-0.1l-3.5,6.2l-3.2-6c0,0-4,4.9-4,9.4
			c0,0-0.4,6.6,9.5,6.8V26h2.2l0-4.6C27.2,21.3,26.7,14.6,26.7,14.6z M7.6,15.4c0,0-0.6-1.6,1.6-5.8l5.3,9.8
			C14.6,19.4,8.4,19.4,7.6,15.4z M16.1,17.6l-2.2-4l2.2-4l2.2,4L16.1,17.6z M24.4,15.4c-0.7,4-6.9,4-6.9,4l5.3-9.8
			C25,13.8,24.4,15.4,24.4,15.4z"/>
		<g>
			<g>
				<path class="st0" d="M0.9,30.2l0.5-0.1l0.1,0.1l-0.8,1.4c0.1,0.1,0.1,0.2,0,0.4c-0.1,0.2-0.3,0.3-0.5,0.2C0,32-0.1,31.8,0,31.6
					c0.1-0.1,0.1-0.1,0.2-0.2L0.9,30.2z M0.2,31.6c-0.1,0.1,0,0.2,0.1,0.3c0.1,0.1,0.2,0,0.3-0.1c0.1-0.1,0-0.2-0.1-0.3
					C0.4,31.5,0.3,31.6,0.2,31.6z"/>
				<path class="st0" d="M2.6,31.8C2.6,32,2.3,32,2.1,32c0,0-0.1,0-0.1-0.1l-0.4,0.9l-0.4-0.2l0.4-1c0,0-0.1-0.2,0-0.5
					c0.2-0.4,0.8-0.5,1.2-0.3c0.5,0.2,0.8,0.6,0.6,1.1l-0.6,1.4l-0.4-0.2L3,31.7c0.1-0.3,0-0.6-0.3-0.7c-0.4-0.2-0.9,0-0.9,0.4
					c0.1-0.1,0.4-0.2,0.6-0.1C2.6,31.3,2.7,31.5,2.6,31.8z M2.2,31.8c0.1,0,0.2,0,0.3-0.1c0-0.1,0-0.2-0.1-0.3c-0.1,0-0.2,0-0.3,0.1
					C2.1,31.6,2.1,31.8,2.2,31.8z"/>
				<path class="st0" d="M5.2,32.8l-0.3,0.8c-0.1,0.2-0.4,0.4-0.7,0.3c-0.3-0.1-0.4-0.4-0.3-0.6C4,33.1,4.2,33,4.4,33.1
					c0.1,0,0.1,0.1,0.1,0.1l0.2-0.6L3.9,32c0.2-0.4,0.6-0.5,1-0.3c0.3,0.1,0.4,0.3,0.5,0.3c0.1,0,0.2,0,0.3,0L5.7,32
					c-0.2,0.1-0.3,0.3-0.6,0.2c-0.2-0.1-0.3-0.3-0.5-0.3c-0.1,0-0.2,0-0.3,0.1L5,32.3C5.2,32.4,5.3,32.6,5.2,32.8z M4.4,33.3
					c-0.1,0-0.2,0-0.3,0.1c0,0.1,0,0.2,0.1,0.3c0.1,0,0.2,0,0.3-0.1C4.5,33.4,4.5,33.3,4.4,33.3z"/>
				<path class="st0" d="M5.8,31.2c0,0.2,0,0.4-0.1,0.6c-0.4-0.4-0.9-0.8-1.8-0.9c0.2-0.4,0.7-0.6,1.1-0.5L5.1,30l0.4,0.1l-0.1,0.4
					c0,0,0.1,0.1,0.1,0.1l0.2-0.5L6,30.3L5.8,31.2z M5.6,31.4c0-0.4-0.3-0.6-0.6-0.8c-0.3-0.1-0.5-0.1-0.7,0.1
					C4.9,30.8,5.2,31.1,5.6,31.4z"/>
				<path class="st0" d="M6.1,34c0,0.2,0,0.3,0.3,0.4c0.2,0.1,0.4,0,0.4-0.2l0.3-1c0.1-0.2-0.1-0.6-0.4-0.7c-0.3-0.1-0.5,0-0.7,0.1
					l-0.1-0.1c0.3-0.2,0.7-0.3,1-0.2c0.5,0.2,0.8,0.6,0.7,1l-0.3,0.8c-0.1,0.4-0.6,0.5-1,0.4c-0.5-0.1-0.7-0.4-0.6-0.9L5.8,33
					c0.1-0.3,0.4-0.4,0.6-0.3c0.3,0.1,0.4,0.4,0.3,0.5c-0.1,0.2-0.3,0.3-0.5,0.2c0,0-0.1,0-0.1,0L6.1,34z M6.4,33.3
					c0.1,0,0.2,0,0.3-0.1c0-0.1,0-0.2-0.1-0.2c-0.1,0-0.2,0-0.3,0.1C6.2,33.2,6.2,33.3,6.4,33.3z"/>
				<path class="st0" d="M8.3,33.1l0.4-0.2l0.1,0l-0.4,1.6c0.1,0.1,0.1,0.2,0.1,0.4c-0.1,0.2-0.3,0.3-0.5,0.3
					c-0.2-0.1-0.3-0.2-0.3-0.5c0-0.1,0.1-0.2,0.1-0.2L8.3,33.1z M8,34.6c0,0.1,0,0.2,0.1,0.2c0.1,0,0.2,0,0.2-0.1
					c0-0.1,0-0.2-0.1-0.2C8.1,34.5,8,34.5,8,34.6z"/>
				<path class="st0" d="M10.3,35.2l0.2-1.2c0.1-0.4-0.2-0.6-0.5-0.7c-0.2,0-0.4,0-0.6,0.1l-0.1-0.1c0.2-0.1,0.5-0.2,0.9-0.2
					c0.5,0.1,0.8,0.5,0.7,1l-0.2,1c-0.1,0.3-0.4,0.4-0.7,0.3c-0.3-0.1-0.6-0.3-0.6-0.6l0.1-0.5c0,0-0.1,0-0.1,0
					c-0.2,0-0.3-0.2-0.3-0.4c0-0.2,0.3-0.4,0.5-0.3c0.3,0.1,0.5,0.3,0.4,0.6l-0.2,0.9c0,0.1,0,0.2,0.1,0.2
					C10.2,35.4,10.3,35.3,10.3,35.2z M9.3,34c0,0.1,0.1,0.2,0.2,0.2c0.1,0,0.2,0,0.2-0.2c0-0.1-0.1-0.2-0.2-0.2
					C9.4,33.8,9.3,33.9,9.3,34z"/>
				<path class="st0" d="M12.9,34.6l-0.1,0.9c0,0.3-0.3,0.4-0.6,0.4c-0.3,0-0.5-0.3-0.4-0.5c0-0.2,0.2-0.4,0.4-0.3
					c0.1,0,0.1,0,0.1,0l0.1-0.7l-1-0.3c0.1-0.4,0.5-0.6,0.9-0.6c0.3,0.1,0.4,0.2,0.6,0.2c0.1,0,0.2,0,0.2-0.1l0.1,0.1
					c-0.1,0.2-0.3,0.3-0.5,0.3c-0.2,0-0.4-0.2-0.6-0.2c-0.1,0-0.2,0-0.3,0.1l0.8,0.3C12.8,34.2,13,34.3,12.9,34.6z M12.2,35.2
					c-0.1,0-0.2,0.1-0.2,0.2c0,0.1,0.1,0.2,0.2,0.2c0.1,0,0.2-0.1,0.2-0.2C12.4,35.3,12.3,35.2,12.2,35.2z"/>
				<path class="st0" d="M11.2,32.9c0.1-0.5,0.6-0.8,1.1-0.8c0.6,0.1,1,0.7,0.9,1.2C12.7,33.1,12,32.8,11.2,32.9z M12.9,33
					c-0.1-0.4-0.4-0.6-0.8-0.6c-0.3,0-0.5,0.1-0.7,0.3C12.1,32.6,12.5,32.8,12.9,33z"/>
				<path class="st0" d="M14.2,35.2c0.2,0,0.4,0.2,0.4,0.4c0,0.2-0.2,0.4-0.5,0.4c-0.3,0-0.5-0.2-0.5-0.5l0-1l-0.2,0
					c0-0.5,0.5-0.8,1-0.8c0.5,0,0.9,0.3,0.9,0.8l0,1.1c0,0.1,0.1,0.2,0.2,0.2c0.1,0,0.2-0.1,0.2-0.2l0.1-1.5l0.3-0.3l0.1,0l-0.1,1.8
					c0,0.3-0.4,0.5-0.7,0.5c-0.4,0-0.7-0.2-0.7-0.6l0-1c0-0.3-0.2-0.5-0.5-0.5c-0.3,0-0.5,0.1-0.6,0.3l0.7,0l0,0.2l-0.2,0l0,0.7
					C14.1,35.3,14.2,35.2,14.2,35.2z M14,35.6c0,0.1,0.1,0.2,0.2,0.2c0.1,0,0.2-0.1,0.2-0.2c0-0.1-0.1-0.2-0.2-0.2
					C14.1,35.4,14,35.5,14,35.6z M15,36.6C14.9,36.7,14.9,36.7,15,36.6c-0.1,0.2,0.1,0.3,0.3,0.3c0.1,0,0.4-0.1,0.4-0.2l0-0.4l0.5,0
					c0,0.1,0,0.3,0,0.3c0,0.4-0.4,0.5-0.8,0.5c-0.4,0-0.7-0.2-0.7-0.5c0-0.2,0.2-0.4,0.4-0.3c0.2,0,0.3,0.1,0.3,0.3
					c0,0.1-0.1,0.2-0.2,0.2C15,36.7,15,36.6,15,36.6z"/>
				<path class="st0" d="M17.7,33.3l0.1,2.1c0.1,0.1,0.2,0.2,0.2,0.3c0,0.2-0.1,0.4-0.4,0.4c-0.2,0-0.4-0.2-0.4-0.4
					c0-0.1,0-0.2,0.1-0.3l-0.1-2.2l-0.8-0.6c0.1-0.2,0.4-0.5,0.6-0.5c0.2,0,0.4,0.1,0.7,0.1c0.1,0,0.2-0.1,0.2-0.1l0.2,0
					c0,0.2-0.2,0.5-0.4,0.5c-0.3,0-0.4-0.2-0.7-0.2c-0.2,0-0.2,0.1-0.3,0.1l0.8,0.4C17.7,33.1,17.7,33.2,17.7,33.3z M17.4,35.7
					c0,0.1,0.1,0.2,0.2,0.2c0.1,0,0.2-0.1,0.2-0.2c0-0.1-0.1-0.2-0.2-0.2C17.5,35.5,17.4,35.6,17.4,35.7z"/>
				<path class="st0" d="M20.7,35.5l-0.3,0.4l-0.1,0l-0.2-1.5c0-0.3-0.3-0.5-0.6-0.5c-0.3,0-0.5,0.2-0.5,0.4l0.7-0.1l0,0.2l-0.3,0
					l0.1,1c0,0.3-0.2,0.5-0.4,0.5c-0.3,0-0.5-0.1-0.5-0.4c0-0.2,0.1-0.4,0.3-0.4c0.1,0,0.1,0,0.1,0l-0.1-0.7l-0.2,0
					c-0.1-0.5,0.3-0.9,0.8-0.9c0.5-0.1,1,0.2,1,0.7L20.7,35.5z M18.9,35.4c-0.1,0-0.2,0.1-0.2,0.2c0,0.1,0.1,0.2,0.2,0.2
					c0.1,0,0.2-0.1,0.2-0.2C19.1,35.5,19,35.4,18.9,35.4z"/>
				<path class="st0" d="M22.3,34.2c0,0.2-0.1,0.4-0.3,0.4c0,0-0.1,0-0.1,0l0.2,0.9l-0.5,0.1l-0.2-1c0,0-0.2-0.1-0.3-0.4
					c-0.1-0.5,0.3-0.9,0.8-1c0.5-0.1,1,0.1,1.1,0.5l0.3,1.5l-0.5,0.1l-0.3-1.5c-0.1-0.3-0.4-0.4-0.7-0.4c-0.4,0.1-0.7,0.5-0.5,0.8
					c0-0.2,0.2-0.4,0.4-0.5C22,33.8,22.2,33.9,22.3,34.2z M21.9,34.4c0.1,0,0.2-0.1,0.2-0.2c0-0.1-0.1-0.2-0.2-0.2
					c-0.1,0-0.2,0.1-0.2,0.2C21.7,34.4,21.8,34.5,21.9,34.4z"/>
				<path class="st0" d="M25.9,34.2l-0.2,0.4l-0.1,0l-0.5-1.5c-0.1-0.3-0.4-0.4-0.7-0.3c-0.3,0.1-0.4,0.3-0.4,0.5l0.7-0.2l0.1,0.2
					l-0.3,0.1l0.3,1c0.1,0.2-0.1,0.5-0.3,0.6c-0.3,0.1-0.5-0.1-0.6-0.3c-0.1-0.2,0.1-0.4,0.3-0.5c0.1,0,0.1,0,0.1,0l-0.2-0.7
					l-0.2,0.1c-0.1-0.5,0.2-0.9,0.7-1c0.5-0.2,1,0,1.1,0.5L25.9,34.2z M24.1,34.5c-0.1,0-0.2,0.1-0.1,0.3c0,0.1,0.1,0.2,0.3,0.1
					c0.1,0,0.2-0.1,0.1-0.3C24.3,34.5,24.2,34.4,24.1,34.5z"/>
				<path class="st0" d="M24.6,31.8c0.4-0.1,0.5-0.5,0.3-0.9l0.4-0.1c0.2,0.5-0.1,1-0.7,1.2c-0.3,0.1-0.7,0.1-0.8-0.2
					c-0.1-0.2,0-0.4,0.2-0.5c0.2-0.1,0.4,0,0.5,0.2C24.6,31.7,24.6,31.8,24.6,31.8z M24,31.8c0,0.1,0.2,0.2,0.3,0.1
					c0.1,0,0.2-0.2,0.1-0.3c0-0.1-0.2-0.2-0.3-0.1C24,31.5,24,31.7,24,31.8z"/>
				<path class="st0" d="M28.4,32.9c-0.1,0.1-0.2,0.4-0.1,0.6l-0.4,0.2l-0.6-1.4c-0.1-0.3-0.4-0.4-0.7-0.3c-0.2,0.1-0.4,0.3-0.4,0.6
					l0.6-0.3l0.1,0.2l-0.2,0.1l0.3,0.7c0,0,0,0,0.1-0.1c0.2-0.1,0.4,0,0.5,0.2c0.1,0.2,0,0.4-0.3,0.6c-0.2,0.1-0.5,0-0.6-0.2l-0.4-1
					L26.1,33c-0.2-0.4,0.1-0.9,0.5-1.1c0.4-0.2,1-0.1,1.2,0.3l0.4,0.8c0.1-0.2,0.4-0.4,0.4-0.4L28,31.6l0.2-0.4l0.1-0.1l0.6,1.3
					l0,0.2c0.1,0,0.2,0.1,0.3,0.2c0.1,0.2,0,0.4-0.2,0.5c-0.2,0.1-0.4,0-0.5-0.2C28.4,33,28.4,32.9,28.4,32.9z M27,33.7
					c0,0.1,0.2,0.1,0.3,0.1c0.1,0,0.2-0.2,0.1-0.3c0-0.1-0.2-0.2-0.3-0.1C27,33.5,27,33.6,27,33.7z M28.6,33.1
					c0,0.1,0.2,0.1,0.3,0.1c0.1,0,0.2-0.2,0.1-0.3c0-0.1-0.2-0.2-0.3-0.1C28.6,32.9,28.6,33,28.6,33.1z"/>
				<path class="st0" d="M31.1,32.2l-0.4,0.2l-0.9-1.5c-0.1-0.1-0.2-0.1-0.2-0.1l0,0.4L29.3,31c-0.1,0.1-0.1,0.3,0,0.4
					c0.1,0.2,0.2,0.3,0.4,0.2c0.1-0.1,0-0.2-0.1-0.2l0.1-0.2c0.2,0.1,0.3,0.5,0,0.6c-0.2,0.1-0.5,0-0.7-0.3c-0.1-0.2-0.2-0.6,0-0.9
					l0.3,0.2l0-0.4c0.4-0.2,0.7,0,0.8,0.2l0.3,0.5l-0.2-0.7c-0.1-0.2,0-0.5,0.2-0.6c0.3-0.2,0.6-0.1,0.7,0.2l0.9,1.5l-0.4,0.2
					l-0.9-1.6c-0.1-0.1-0.1-0.2-0.3-0.1c-0.1,0.1-0.1,0.2,0,0.3L31.1,32.2L31.1,32.2z"/>
				<path class="st0" d="M30.7,29.3c0,0-0.1,0-0.1-0.1c-0.1-0.1,0-0.2,0.1-0.3c0.1-0.1,0.2,0,0.3,0.1c0.1,0.2,0,0.4-0.1,0.5
					c-0.2,0.1-0.5,0.1-0.6-0.1c-0.2-0.3,0-0.7,0.3-0.7l-0.3-0.7l0.3-0.1l0.2,0.9c-0.2,0-0.4,0.2-0.3,0.4
					C30.5,29.4,30.7,29.4,30.7,29.3z"/>
			</g>
		</g>
	</g>
	<g>
		<path class="st0" d="M56.5,28.1c-0.7,0.1-1.4,0.2-2,0.2c-1.4,0-2.7-0.2-3.9-0.5c-1.2-0.4-2.2-0.9-3-1.6c-0.8-0.7-1.5-1.6-2-2.7
			c-0.5-1.1-0.7-2.4-0.7-3.9c0-1.5,0.2-2.8,0.7-4c0.4-1.2,1.1-2.2,1.9-3c0.8-0.8,1.8-1.4,3-1.8c1.2-0.4,2.5-0.6,4-0.6
			c0.6,0,1.2,0.1,1.9,0.2c0.7,0.1,1.4,0.3,2,0.5l-0.3,3c-0.7-0.4-1.3-0.6-1.9-0.7c-0.6-0.1-1.2-0.2-1.9-0.2c-0.9,0-1.7,0.2-2.5,0.5
			c-0.7,0.3-1.3,0.8-1.9,1.3c-0.5,0.6-0.9,1.2-1.2,2c-0.3,0.8-0.4,1.6-0.4,2.5c0,0.9,0.1,1.7,0.4,2.5c0.3,0.8,0.7,1.4,1.2,2
			c0.5,0.6,1.1,1,1.9,1.3c0.7,0.3,1.6,0.5,2.5,0.5c0.3,0,0.7,0,1.1-0.1c0.4,0,0.7-0.1,1.1-0.2c0.3-0.1,0.7-0.1,1-0.2
			c0.3-0.1,0.6-0.2,0.8-0.3l0.1,3C57.9,27.9,57.2,28,56.5,28.1z"/>
		<path class="st0" d="M60.8,28v-3.5h3.5V28H60.8z"/>
		<path class="st0" d="M79.6,15.7c0,1-0.2,1.9-0.5,2.6c-0.3,0.7-0.8,1.3-1.4,1.7c-0.6,0.4-1.3,0.8-2.1,1c-0.8,0.2-1.7,0.3-2.7,0.3
			h-1.5V28h-3.5V10.4h4.4c1,0,1.9,0.1,2.8,0.2c0.9,0.2,1.7,0.4,2.3,0.8c0.7,0.4,1.2,0.9,1.6,1.6C79.4,13.8,79.6,14.7,79.6,15.7z
			 M75.9,15.9c0-0.5-0.1-0.9-0.3-1.3c-0.2-0.4-0.4-0.6-0.7-0.8c-0.3-0.2-0.7-0.4-1.1-0.5c-0.4-0.1-0.8-0.1-1.3-0.1h-1.2v5.4h1.2
			c0.4,0,0.9,0,1.3-0.1c0.4-0.1,0.8-0.2,1.1-0.4c0.3-0.2,0.6-0.5,0.7-0.8C75.8,16.8,75.9,16.4,75.9,15.9z"/>
		<path class="st0" d="M81.8,28v-3.5h3.5V28H81.8z"/>
		<path class="st0" d="M100.8,28c-1,0.2-1.9,0.3-2.9,0.3c-1.4,0-2.7-0.2-3.9-0.5c-1.2-0.4-2.2-0.9-3-1.6c-0.8-0.7-1.5-1.6-2-2.7
			c-0.5-1.1-0.7-2.4-0.7-3.9c0-1.5,0.2-2.8,0.7-4c0.4-1.2,1.1-2.2,1.9-3c0.8-0.8,1.8-1.4,3-1.8c1.2-0.4,2.5-0.6,4-0.6
			c1,0,2,0.1,2.8,0.2c0.8,0.1,1.6,0.3,2.4,0.5l-0.2,3c-0.7-0.3-1.4-0.5-2.3-0.7c-0.8-0.2-1.6-0.2-2.3-0.2c-1,0-1.9,0.2-2.7,0.5
			c-0.8,0.3-1.5,0.8-2,1.3c-0.5,0.6-1,1.2-1.2,2c-0.3,0.8-0.4,1.6-0.4,2.5c0,0.9,0.1,1.7,0.4,2.5c0.3,0.8,0.7,1.4,1.2,2
			c0.5,0.6,1.1,1,1.9,1.3c0.7,0.3,1.6,0.5,2.5,0.5c0.5,0,0.9,0,1.3-0.1c0.4,0,0.7-0.1,1-0.2v-4.6h-3.7v-2.8h7.1v9.5
			C102.7,27.6,101.7,27.8,100.8,28z"/>
		<path class="st0" d="M116.2,28l-2.1-5.5c-0.1-0.3-0.3-0.6-0.4-0.8c-0.1-0.2-0.3-0.4-0.5-0.6c-0.2-0.1-0.4-0.3-0.7-0.3
			c-0.3-0.1-0.6-0.1-0.9-0.1h-1.1V28H107V10.4h3.8c0.6,0,1.3,0,1.9,0c0.7,0,1.3,0,1.9,0.1c0.6,0.1,1.2,0.2,1.7,0.4
			c0.5,0.2,1,0.5,1.4,0.8c0.4,0.3,0.7,0.8,1,1.3c0.2,0.6,0.4,1.2,0.4,2c0,0.5-0.1,1-0.3,1.5c-0.2,0.5-0.4,0.9-0.7,1.2
			c-0.3,0.4-0.7,0.7-1.2,0.9c-0.4,0.2-1,0.4-1.5,0.5v0c0.2,0,0.5,0.1,0.7,0.2c0.2,0.1,0.4,0.3,0.5,0.4c0.2,0.2,0.3,0.4,0.4,0.6
			c0.1,0.2,0.2,0.4,0.3,0.6l2.8,6.9H116.2z M115.4,15.5c0-0.5-0.1-1-0.3-1.3c-0.2-0.3-0.5-0.5-0.9-0.7c-0.4-0.2-0.8-0.2-1.2-0.3
			c-0.4,0-0.9-0.1-1.3-0.1h-1.1v4.7h1.1c0.4,0,0.9,0,1.3-0.1c0.4,0,0.8-0.2,1.2-0.3c0.4-0.2,0.6-0.4,0.9-0.7
			C115.3,16.5,115.4,16,115.4,15.5z"/>
		<path class="st0" d="M139,19.1c0,1.3-0.2,2.6-0.6,3.7c-0.4,1.1-0.9,2.1-1.6,2.9c-0.7,0.8-1.6,1.4-2.7,1.9
			c-1.1,0.4-2.3,0.7-3.7,0.7c-1.4,0-2.7-0.2-3.7-0.7c-1.1-0.4-2-1.1-2.7-1.9c-0.7-0.8-1.3-1.8-1.6-2.9c-0.4-1.1-0.5-2.4-0.5-3.7
			c0-1.3,0.2-2.6,0.6-3.7c0.4-1.1,0.9-2.1,1.6-2.9c0.7-0.8,1.6-1.4,2.7-1.9c1.1-0.4,2.3-0.7,3.7-0.7c1.4,0,2.6,0.2,3.7,0.7
			c1.1,0.4,2,1.1,2.7,1.9c0.7,0.8,1.3,1.8,1.7,2.9C138.9,16.6,139,17.8,139,19.1z M135.4,19.1c0-0.8-0.1-1.5-0.3-2.3
			c-0.2-0.7-0.5-1.4-0.9-2c-0.4-0.6-0.9-1.1-1.5-1.4c-0.6-0.4-1.4-0.5-2.2-0.5c-0.9,0-1.6,0.2-2.3,0.5c-0.6,0.4-1.1,0.8-1.5,1.4
			c-0.4,0.6-0.7,1.3-0.9,2c-0.2,0.7-0.3,1.5-0.3,2.3c0,0.8,0.1,1.6,0.3,2.3c0.2,0.8,0.5,1.4,0.9,2c0.4,0.6,0.9,1.1,1.5,1.4
			c0.6,0.4,1.4,0.5,2.3,0.5c0.9,0,1.6-0.2,2.3-0.5c0.6-0.4,1.1-0.8,1.5-1.4c0.4-0.6,0.7-1.3,0.9-2C135.3,20.7,135.4,19.9,135.4,19.1
			z"/>
		<path class="st0" d="M156,24.7c-0.3,0.8-0.8,1.5-1.4,2.1c-0.6,0.5-1.4,0.9-2.3,1.2c-0.9,0.2-1.9,0.4-3,0.4c-1.1,0-2.1-0.1-3-0.4
			c-0.9-0.2-1.6-0.6-2.3-1.2c-0.6-0.5-1.1-1.2-1.4-2.1c-0.3-0.8-0.5-1.8-0.5-3V10.4h3.6v10.1c0,0.8,0.1,1.4,0.2,2
			c0.1,0.6,0.3,1.1,0.6,1.6c0.3,0.4,0.7,0.8,1.1,1c0.5,0.2,1,0.4,1.7,0.4c0.7,0,1.2-0.1,1.7-0.4c0.5-0.2,0.8-0.6,1.1-1
			c0.3-0.4,0.5-1,0.6-1.6c0.1-0.6,0.2-1.3,0.2-2V10.4h3.5v11.2C156.5,22.8,156.3,23.8,156,24.7z"/>
		<path class="st0" d="M171.9,15.7c0,1-0.2,1.9-0.5,2.6c-0.3,0.7-0.8,1.3-1.4,1.7c-0.6,0.4-1.3,0.8-2.1,1c-0.8,0.2-1.7,0.3-2.7,0.3
			h-1.5V28h-3.5V10.4h4.4c1,0,1.9,0.1,2.8,0.2c0.9,0.2,1.7,0.4,2.3,0.8c0.7,0.4,1.2,0.9,1.6,1.6C171.7,13.8,171.9,14.7,171.9,15.7z
			 M168.3,15.9c0-0.5-0.1-0.9-0.3-1.3c-0.2-0.4-0.4-0.6-0.7-0.8c-0.3-0.2-0.7-0.4-1.1-0.5c-0.4-0.1-0.8-0.1-1.3-0.1h-1.2v5.4h1.2
			c0.4,0,0.9,0,1.3-0.1c0.4-0.1,0.8-0.2,1.1-0.4c0.3-0.2,0.6-0.5,0.7-0.8C168.2,16.8,168.3,16.4,168.3,15.9z"/>
	</g>
</g>
</svg>
