<?xml version="1.0" encoding="utf-8"?>
<!-- Generator: Adobe Illustrator 22.0.1, SVG Export Plug-In . SVG Version: 6.00 Build 0)  -->
<svg version="1.1" id="Layer_1" xmlns="http://www.w3.org/2000/svg" xmlns:xlink="http://www.w3.org/1999/xlink" x="0px" y="0px"
	 viewBox="0 0 104.2 53.5" style="enable-background:new 0 0 104.2 53.5;" xml:space="preserve">
<style type="text/css">
	.st0{fill:#EC136F;}
	.st1{fill:#00527E;}
	.st2{fill:url(#SVGID_1_);}
	.st3{fill:url(#SVGID_2_);}
</style>
<g>
	<g>
		<path class="st0" d="M18.3,21.6c-0.8,0.8-1.8,1.2-3.1,1.2c-1.4,0-2.5-0.4-3.4-1.3c-0.8-0.9-1.2-2-1.2-3.5l2.7-0.4
			c0,1.8,0.6,2.6,1.8,2.6c1.1,0,1.7-0.6,1.7-1.7c0-0.6-0.2-1.3-0.7-1.9c-0.3-0.4-0.9-1-1.8-1.9c-0.6-0.6-1.2-1.1-1.6-1.6
			c-0.4-0.5-0.7-0.8-0.9-1.1c-0.6-0.9-1-1.9-1-3c0-1.2,0.4-2.2,1.2-3.1C13,5.1,14,4.7,15.2,4.7c1.3,0,2.3,0.4,3,1.2
			C19,6.7,19.4,7.7,19.4,9l-2.7,0.4c0-1.5-0.5-2.2-1.5-2.2c-1,0-1.5,0.5-1.5,1.6c0,0.8,0.4,1.7,1.2,2.6c0.3,0.3,0.8,0.9,1.6,1.6
			c1.2,1.1,1.9,1.9,2.3,2.5c0.6,0.9,0.8,1.9,0.8,3C19.5,19.8,19.1,20.8,18.3,21.6z"/>
		<path class="st0" d="M27.2,7.5v15h-2.8v-15h-2.8V5h8.5v2.5H27.2z"/>
		<path class="st0" d="M46.4,22.4l-1.7-7.4h-1.3v7.4h-2.8V5h4.1c1.6,0,2.7,0.5,3.4,1.4c0.6,0.8,0.9,2,0.9,3.7c0,2.1-0.6,3.5-1.7,4.3
			l2,8.1H46.4z M45.9,8.1c-0.3-0.4-0.8-0.7-1.5-0.7h-1v5.1h1.1c0.7,0,1.2-0.3,1.5-0.9c0.1-0.4,0.2-1,0.2-1.8
			C46.2,9.1,46.1,8.5,45.9,8.1z"/>
		<path class="st0" d="M57.9,7.5v15H55v-15h-2.8V5h8.5v2.5H57.9z"/>
		<path class="st0" d="M68.6,22.8c-2.8,0-4.2-1.6-4.2-4.8V5h2.8v13.5c0,1.1,0.5,1.7,1.4,1.7c0.9,0,1.4-0.6,1.4-1.7V5h2.8V18
			C72.8,21.2,71.4,22.8,68.6,22.8z"/>
		<path class="st0" d="M85.2,13.5c-0.7,1.2-1.6,1.8-2.9,1.8h-1.9v7.1h-2.8V5h4.1c1.6,0,2.7,0.5,3.4,1.4c0.6,0.8,0.9,2,0.9,3.7
			C86,11.5,85.7,12.6,85.2,13.5z M83,8.2c-0.3-0.5-0.8-0.7-1.6-0.7h-1v5.4h1.1c0.7,0,1.2-0.3,1.5-0.9c0.1-0.4,0.2-1,0.2-1.9
			C83.2,9.2,83.1,8.5,83,8.2z"/>
	</g>
	<g>
		<path class="st1" d="M6.8,27.8V46H3.4V27.8H0v-3h10.3v3H6.8z"/>
		<path class="st1" d="M20.5,46v-9.5h-3.4V46h-3.3V24.8h3.3v8.7h3.4v-8.7h3.4V46H20.5z"/>
		<path class="st1" d="M44.2,46V24.8h3.4V46H44.2z"/>
		<path class="st1" d="M52,46V24.8h3.3V43h5.2v3H52z"/>
		<path class="st1" d="M71.4,46l-0.7-4.6h-3.4L66.7,46h-3.3L67,24.8h4.4L74.9,46H71.4z M69.2,29.5H69l-1.3,8.8h2.6L69.2,29.5z"/>
		<path class="st1" d="M85.9,46L81.1,32c0.1,0.6,0.2,1.2,0.3,1.7c0.1,0.5,0.1,0.9,0.1,1.3V46h-3.1V24.8h3l4.9,14.9
			c-0.1-0.7-0.2-1.2-0.3-1.7c-0.1-0.5-0.1-0.9-0.1-1.2V24.8h3.1V46H85.9z"/>
		<path class="st1" d="M103.1,44.5c-0.8,1-2.2,1.5-4.1,1.5H94V24.8h4.7c3.6,0,5.4,1.9,5.4,5.8v9.5C104.2,42.1,103.8,43.6,103.1,44.5
			z M100.7,30.4c0-1.7-0.9-2.5-2.6-2.5h-0.8v14.9H99c1.2,0,1.7-0.7,1.7-2.2V30.4z"/>
	</g>
	<linearGradient id="SVGID_1_" gradientUnits="userSpaceOnUse" x1="29.5946" y1="47.8429" x2="32.9454" y2="22.473">
		<stop  offset="0" style="stop-color:#F27448"/>
		<stop  offset="0.1059" style="stop-color:#F16C58"/>
		<stop  offset="0.331" style="stop-color:#EF5D74"/>
		<stop  offset="0.5563" style="stop-color:#ED5289"/>
		<stop  offset="0.7799" style="stop-color:#EC4C95"/>
		<stop  offset="1" style="stop-color:#EC4A99"/>
	</linearGradient>
	<polygon class="st2" points="33.3,0 24.2,53.5 33,49.8 37.8,20.6 	"/>
	<linearGradient id="SVGID_2_" gradientUnits="userSpaceOnUse" x1="39.4587" y1="44.1744" x2="37.3046" y2="31.0108">
		<stop  offset="0" style="stop-color:#008A87"/>
		<stop  offset="0.1178" style="stop-color:#047581"/>
		<stop  offset="0.2707" style="stop-color:#08607B"/>
		<stop  offset="0.4443" style="stop-color:#0B5276"/>
		<stop  offset="0.6542" style="stop-color:#0D4A74"/>
		<stop  offset="1" style="stop-color:#0D4773"/>
	</linearGradient>
	<polygon class="st3" points="35.1,37.2 37.8,20.6 42.8,45.2 36.8,44.2 	"/>
</g>
</svg>
