<?xml version="1.0" encoding="utf-8"?>
<!-- Generator: Adobe Illustrator 22.0.1, SVG Export Plug-In . SVG Version: 6.00 Build 0)  -->
<svg version="1.1" id="Layer_1" xmlns="http://www.w3.org/2000/svg" xmlns:xlink="http://www.w3.org/1999/xlink" x="0px" y="0px"
	 viewBox="0 0 103.5 39.6" style="enable-background:new 0 0 103.5 39.6;" xml:space="preserve">
<style type="text/css">
	.st0{fill:#1A5632;}
	.st1{fill:#A27300;}
</style>
<g>
	<g>
		<polygon class="st0" points="12.7,1.9 7.8,1.9 7.8,14.8 4.9,14.8 4.9,1.9 0,1.9 0,0 12.7,0 		"/>
		<path class="st0" d="M25.1,14.8h-2.8V9.5c0-0.9-0.1-1.4-0.4-1.7c-0.4-0.4-1.1-0.7-2.2-0.7c-1.3,0-2.2,0.4-2.6,1.1
			c-0.2,0.4-0.4,1.2-0.4,2.4v4.3h-2.8V0h2.8v6.4c0.3-0.4,0.9-0.9,1.5-1.2C19,5.1,19.7,5,20.4,5c0.9,0,1.6,0.1,2.3,0.3
			c0.6,0.2,1.1,0.5,1.5,0.9c0.6,0.6,1,1.9,1,3.2V14.8z"/>
		<path class="st0" d="M37,9.9c0-0.8-0.3-1.5-1-2.1c-0.7-0.6-1.7-0.9-2.9-0.9c-1.2,0-2.1,0.3-2.8,0.9c-0.7,0.6-1,1.3-1,2.1
			c0,0.9,0.3,1.6,1,2.2c0.7,0.6,1.6,0.9,2.8,0.9c1.2,0,2.2-0.3,2.9-0.9C36.7,11.5,37,10.8,37,9.9 M39.7,14.8h-2.8v-1.4
			c-0.2,0.2-0.5,0.4-0.8,0.6c-0.3,0.2-0.6,0.3-1.1,0.5c-0.4,0.1-0.7,0.2-1.1,0.3c-0.4,0.1-0.8,0.1-1.2,0.1c-1.9,0-3.4-0.5-4.6-1.4
			c-1.1-1-1.7-2.1-1.7-3.5c0-1.3,0.6-2.5,1.7-3.5C29.3,5.4,30.8,5,32.7,5c0.5,0,0.9,0,1.3,0.1c0.4,0.1,0.7,0.2,1.1,0.3
			c0.3,0.1,0.7,0.3,1,0.4c0.3,0.2,0.6,0.5,0.9,0.8V5h2.8V14.8z"/>
		<path class="st0" d="M58.7,10.5c0-0.9-0.6-1.5-1.7-1.9c-0.8-0.3-1.9-0.4-3.4-0.4h-1.3v4.8H54c1.3,0,2.4-0.2,3.2-0.5
			C58.2,12,58.7,11.4,58.7,10.5 M56.9,4.1c0-0.8-0.4-1.4-1.2-1.8c-0.6-0.3-1.6-0.4-2.9-0.4h-0.5v4.5h0.4c0.7,0,1.3,0,1.8-0.1
			C55,6.3,55.4,6.2,55.7,6C56.5,5.7,56.9,5,56.9,4.1 M61.6,10.6c0,0.7-0.2,1.3-0.6,1.9c-0.4,0.5-0.9,1-1.7,1.4
			c-0.7,0.3-1.4,0.6-2.2,0.7c-0.8,0.2-1.8,0.2-2.8,0.2h-4.9V0h2.7c2.3,0,4.1,0.3,5.3,0.8c1.6,0.7,2.3,1.8,2.3,3.3
			c0,0.6-0.2,1.1-0.6,1.7c-0.4,0.5-0.9,0.9-1.6,1.2V6.8c1.1,0.2,2.1,0.6,2.9,1.4C61.2,8.9,61.6,9.7,61.6,10.6"/>
		<path class="st0" d="M72.4,8.7c-0.4-1.3-1.5-1.9-3.2-1.9c-0.4,0-0.8,0-1.2,0.1c-0.4,0.1-0.7,0.2-1,0.4c-0.6,0.3-1,0.8-1.2,1.4
			H72.4z M75.4,12.2c-0.7,0.8-1.5,1.5-2.6,1.9c-1.1,0.4-2.2,0.7-3.6,0.7c-1.9,0-3.4-0.4-4.6-1.3c-1.2-0.9-1.8-2-1.8-3.5
			c0-0.7,0.1-1.5,0.4-2.1c0.3-0.6,0.7-1.1,1.2-1.6C65.6,5.4,67.2,5,69.2,5c2,0,3.5,0.5,4.6,1.4c1,0.9,1.5,2.1,1.5,3.5v0.6h-9.7
			c0,0.7,0.3,1.3,1,1.9c0.7,0.5,1.6,0.8,2.6,0.8c0.5,0,0.8,0,1.2-0.1c0.3-0.1,0.6-0.2,0.9-0.3c0.3-0.1,0.5-0.3,0.8-0.5
			c0.3-0.2,0.6-0.5,0.9-0.8L75.4,12.2z"/>
		<polygon class="st0" points="88.8,5 82.1,14.8 75.5,5 78.7,5 82.1,10.6 85.6,5 		"/>
		<path class="st1" d="M46.3,2c0,1.1-0.9,2-1.9,2c-1.1,0-1.9-0.9-1.9-2c0-1.1,0.9-2,1.9-2C45.5,0,46.3,0.9,46.3,2"/>
		<rect x="42.9" y="4.9" class="st0" width="2.9" height="9.8"/>
	</g>
	<path class="st0" d="M0,17.2c0,0,33.9-1.8,67.6,1.5c23.6,2.3,35.8,6.1,35.8,11.3c0,5.2-14.9,10.4-68.6,9.4c0,0,40.2-2,40.3-9.4
		C75.1,30.1,76.9,20,0,17.2z"/>
	<path class="st1" d="M19.8,36.9c34.1,1.4,67.2-6,38-12.4C27.8,18,0,18.6,0,18.6s50.9,4.2,51.6,10.7C52.1,34.2,19.8,36.9,19.8,36.9z
		"/>
</g>
</svg>
